<ttFont>
    <TTGlyph name="A" xMin="-145" yMin="-37" xMax="1282" yMax="1432">
      <contour>
        <pt x="1100" y="1405" on="1"/>
        <pt x="1115" y="1403" on="0"/>
        <pt x="1128" y="1385" on="0"/>
        <pt x="1128" y="1372" on="1"/>
        <pt x="1128" y="1355" on="0"/>
        <pt x="1108" y="1317" on="0"/>
        <pt x="1085" y="1294" on="1"/>
        <pt x="996" y="1208" on="0"/>
        <pt x="857" y="1071" on="0"/>
        <pt x="743" y="954" on="0"/>
        <pt x="649" y="850" on="0"/>
        <pt x="562" y="747" on="0"/>
        <pt x="474" y="637" on="0"/>
        <pt x="424" y="573" on="1"/>
        <pt x="467" y="577" on="0"/>
        <pt x="565" y="584" on="0"/>
        <pt x="616" y="584" on="1"/>
        <pt x="657" y="584" on="0"/>
        <pt x="732" y="578" on="0"/>
        <pt x="764" y="571" on="1"/>
        <pt x="791" y="645" on="0"/>
        <pt x="873" y="828" on="0"/>
        <pt x="966" y="1016" on="0"/>
        <pt x="1059" y="1195" on="0"/>
        <pt x="1134" y="1336" on="0"/>
        <pt x="1182" y="1426" on="0"/>
        <pt x="1184" y="1430" on="1"/>
        <pt x="1184" y="1432" on="0"/>
        <pt x="1190" y="1432" on="1"/>
        <pt x="1193" y="1432" on="0"/>
        <pt x="1203" y="1430" on="0"/>
        <pt x="1208" y="1430" on="1"/>
        <pt x="1210" y="1430" on="0"/>
        <pt x="1212" y="1432" on="0"/>
        <pt x="1214" y="1432" on="1"/>
        <pt x="1219" y="1432" on="1"/>
        <pt x="1225" y="1432" on="0"/>
        <pt x="1236" y="1423" on="0"/>
        <pt x="1241" y="1421" on="1"/>
        <pt x="1258" y="1412" on="0"/>
        <pt x="1282" y="1395" on="0"/>
        <pt x="1282" y="1376" on="1"/>
        <pt x="1282" y="1373" on="0"/>
        <pt x="1282" y="1365" on="0"/>
        <pt x="1280" y="1360" on="1"/>
        <pt x="1278" y="1351" on="0"/>
        <pt x="1245" y="1267" on="0"/>
        <pt x="1193" y="1141" on="0"/>
        <pt x="1126" y="983" on="0"/>
        <pt x="1053" y="817" on="0"/>
        <pt x="980" y="654" on="0"/>
        <pt x="948" y="586" on="1"/>
        <pt x="927" y="542" on="0"/>
        <pt x="798" y="253" on="0"/>
        <pt x="686" y="4" on="1"/>
        <pt x="683" y="-4" on="0"/>
        <pt x="673" y="-8" on="0"/>
        <pt x="668" y="-8" on="1"/>
        <pt x="663" y="-8" on="0"/>
        <pt x="654" y="-6" on="0"/>
        <pt x="651" y="-6" on="1"/>
        <pt x="646" y="-6" on="0"/>
        <pt x="643" y="-12" on="1"/>
        <pt x="636" y="-25" on="0"/>
        <pt x="623" y="-25" on="1"/>
        <pt x="611" y="-25" on="0"/>
        <pt x="608" y="-18" on="1"/>
        <pt x="603" y="-10" on="0"/>
        <pt x="580" y="4" on="0"/>
        <pt x="575" y="18" on="1"/>
        <pt x="573" y="24" on="0"/>
        <pt x="567" y="34" on="0"/>
        <pt x="562" y="47" on="0"/>
        <pt x="559" y="64" on="0"/>
        <pt x="559" y="78" on="1"/>
        <pt x="559" y="96" on="0"/>
        <pt x="560" y="114" on="0"/>
        <pt x="561" y="125" on="0"/>
        <pt x="563" y="130" on="0"/>
        <pt x="565" y="135" on="1"/>
        <pt x="607" y="241" on="0"/>
        <pt x="674" y="389" on="0"/>
        <pt x="698" y="440" on="1"/>
        <pt x="657" y="436" on="0"/>
        <pt x="554" y="429" on="0"/>
        <pt x="446" y="423" on="0"/>
        <pt x="341" y="416" on="0"/>
        <pt x="299" y="412" on="1"/>
        <pt x="281" y="390" on="0"/>
        <pt x="224" y="322" on="0"/>
        <pt x="159" y="247" on="0"/>
        <pt x="93" y="171" on="0"/>
        <pt x="39" y="108" on="0"/>
        <pt x="3" y="66" on="0"/>
        <pt x="2" y="63" on="1"/>
        <pt x="-7" y="50" on="0"/>
        <pt x="-36" y="16" on="0"/>
        <pt x="-65" y="-15" on="0"/>
        <pt x="-90" y="-37" on="0"/>
        <pt x="-96" y="-37" on="1"/>
        <pt x="-104" y="-37" on="0"/>
        <pt x="-110" y="-12" on="0"/>
        <pt x="-115" y="0" on="1"/>
        <pt x="-123" y="17" on="0"/>
        <pt x="-138" y="48" on="0"/>
        <pt x="-143" y="63" on="1"/>
        <pt x="-143" y="65" on="0"/>
        <pt x="-145" y="69" on="0"/>
        <pt x="-145" y="72" on="1"/>
        <pt x="-145" y="82" on="0"/>
        <pt x="-137" y="111" on="0"/>
        <pt x="-126" y="141" on="0"/>
        <pt x="-114" y="166" on="0"/>
        <pt x="-109" y="172" on="1"/>
        <pt x="-67" y="229" on="0"/>
        <pt x="14" y="337" on="0"/>
        <pt x="57" y="391" on="1"/>
        <pt x="33" y="391" on="0"/>
        <pt x="12" y="394" on="0"/>
        <pt x="10" y="399" on="1"/>
        <pt x="8" y="406" on="0"/>
        <pt x="-1" y="410" on="0"/>
        <pt x="-10" y="411" on="0"/>
        <pt x="-16" y="415" on="0"/>
        <pt x="-16" y="422" on="1"/>
        <pt x="-16" y="428" on="0"/>
        <pt x="-15" y="447" on="0"/>
        <pt x="-12" y="467" on="0"/>
        <pt x="-7" y="483" on="0"/>
        <pt x="-4" y="485" on="1"/>
        <pt x="5" y="495" on="0"/>
        <pt x="53" y="514" on="0"/>
        <pt x="90" y="528" on="1"/>
        <pt x="119" y="538" on="0"/>
        <pt x="186" y="547" on="1"/>
        <pt x="294" y="674" on="0"/>
        <pt x="506" y="900" on="0"/>
        <pt x="700" y="1089" on="0"/>
        <pt x="867" y="1239" on="0"/>
        <pt x="994" y="1344" on="0"/>
        <pt x="1073" y="1401" on="0"/>
        <pt x="1081" y="1403" on="1"/>
        <pt x="1086" y="1403" on="0"/>
        <pt x="1095" y="1405" on="0"/>
      </contour>
    </TTGlyph>
    <TTGlyph name="AE" xMin="-166" yMin="-37" xMax="2210" yMax="1427">
      <contour>
        <pt x="1653" y="109" on="1"/>
        <pt x="1653" y="104" on="0"/>
        <pt x="1649" y="104" on="1"/>
        <pt x="1642" y="104" on="0"/>
        <pt x="1642" y="100" on="1"/>
        <pt x="1642" y="95" on="0"/>
        <pt x="1653" y="74" on="0"/>
        <pt x="1653" y="63" on="1"/>
        <pt x="1653" y="52" on="0"/>
        <pt x="1642" y="43" on="1"/>
        <pt x="1635" y="38" on="0"/>
        <pt x="1625" y="28" on="0"/>
        <pt x="1612" y="20" on="0"/>
        <pt x="1595" y="16" on="0"/>
        <pt x="1581" y="16" on="1"/>
        <pt x="1562" y="16" on="0"/>
        <pt x="1502" y="26" on="0"/>
        <pt x="1454" y="37" on="1"/>
        <pt x="1427" y="43" on="0"/>
        <pt x="1366" y="43" on="1"/>
        <pt x="1313" y="43" on="0"/>
        <pt x="1170" y="35" on="0"/>
        <pt x="1015" y="22" on="0"/>
        <pt x="858" y="6" on="0"/>
        <pt x="722" y="-11" on="0"/>
        <pt x="619" y="-28" on="0"/>
        <pt x="596" y="-35" on="1"/>
        <pt x="592" y="-37" on="0"/>
        <pt x="586" y="-37" on="1"/>
        <pt x="574" y="-37" on="0"/>
        <pt x="555" y="-25" on="0"/>
        <pt x="542" y="-5" on="0"/>
        <pt x="533" y="18" on="0"/>
        <pt x="532" y="29" on="1"/>
        <pt x="518" y="50" on="0"/>
        <pt x="504" y="101" on="0"/>
        <pt x="504" y="121" on="1"/>
        <pt x="504" y="127" on="0"/>
        <pt x="505" y="138" on="0"/>
        <pt x="508" y="143" on="1"/>
        <pt x="515" y="158" on="0"/>
        <pt x="550" y="214" on="0"/>
        <pt x="601" y="288" on="0"/>
        <pt x="667" y="378" on="0"/>
        <pt x="705" y="428" on="1"/>
        <pt x="661" y="426" on="0"/>
        <pt x="560" y="421" on="0"/>
        <pt x="457" y="416" on="0"/>
        <pt x="357" y="411" on="0"/>
        <pt x="315" y="408" on="1"/>
        <pt x="292" y="384" on="0"/>
        <pt x="227" y="316" on="0"/>
        <pt x="154" y="241" on="0"/>
        <pt x="81" y="167" on="0"/>
        <pt x="22" y="106" on="0"/>
        <pt x="-16" y="66" on="0"/>
        <pt x="-18" y="63" on="1"/>
        <pt x="-27" y="50" on="0"/>
        <pt x="-56" y="16" on="0"/>
        <pt x="-86" y="-15" on="0"/>
        <pt x="-111" y="-37" on="0"/>
        <pt x="-117" y="-37" on="1"/>
        <pt x="-125" y="-37" on="0"/>
        <pt x="-130" y="-12" on="0"/>
        <pt x="-135" y="0" on="1"/>
        <pt x="-143" y="17" on="0"/>
        <pt x="-159" y="48" on="0"/>
        <pt x="-164" y="63" on="1"/>
        <pt x="-164" y="65" on="0"/>
        <pt x="-166" y="69" on="0"/>
        <pt x="-166" y="72" on="1"/>
        <pt x="-166" y="82" on="0"/>
        <pt x="-158" y="111" on="0"/>
        <pt x="-146" y="141" on="0"/>
        <pt x="-134" y="166" on="0"/>
        <pt x="-129" y="172" on="1"/>
        <pt x="-79" y="229" on="0"/>
        <pt x="18" y="339" on="0"/>
        <pt x="68" y="391" on="1"/>
        <pt x="27" y="391" on="1"/>
        <pt x="-7" y="391" on="0"/>
        <pt x="-10" y="399" on="1"/>
        <pt x="-12" y="406" on="0"/>
        <pt x="-21" y="410" on="0"/>
        <pt x="-30" y="411" on="0"/>
        <pt x="-37" y="415" on="0"/>
        <pt x="-37" y="422" on="1"/>
        <pt x="-37" y="428" on="0"/>
        <pt x="-36" y="447" on="0"/>
        <pt x="-33" y="467" on="0"/>
        <pt x="-28" y="483" on="0"/>
        <pt x="-25" y="485" on="1"/>
        <pt x="-15" y="495" on="0"/>
        <pt x="32" y="514" on="0"/>
        <pt x="70" y="528" on="1"/>
        <pt x="91" y="536" on="0"/>
        <pt x="173" y="548" on="0"/>
        <pt x="225" y="553" on="1"/>
        <pt x="345" y="671" on="0"/>
        <pt x="580" y="882" on="0"/>
        <pt x="796" y="1063" on="0"/>
        <pt x="987" y="1210" on="0"/>
        <pt x="1063" y="1264" on="1"/>
        <pt x="1061" y="1270" on="0"/>
        <pt x="1061" y="1281" on="0"/>
        <pt x="1061" y="1286" on="1"/>
        <pt x="1061" y="1294" on="0"/>
        <pt x="1065" y="1298" on="1"/>
        <pt x="1073" y="1301" on="0"/>
        <pt x="1073" y="1305" on="1"/>
        <pt x="1073" y="1310" on="0"/>
        <pt x="1071" y="1318" on="0"/>
        <pt x="1071" y="1323" on="1"/>
        <pt x="1071" y="1329" on="0"/>
        <pt x="1082" y="1346" on="0"/>
        <pt x="1102" y="1354" on="1"/>
        <pt x="1119" y="1360" on="0"/>
        <pt x="1190" y="1374" on="0"/>
        <pt x="1239" y="1382" on="1"/>
        <pt x="1255" y="1392" on="0"/>
        <pt x="1275" y="1401" on="0"/>
        <pt x="1280" y="1403" on="1"/>
        <pt x="1285" y="1403" on="0"/>
        <pt x="1295" y="1405" on="0"/>
        <pt x="1300" y="1405" on="1"/>
        <pt x="1321" y="1402" on="0"/>
        <pt x="1327" y="1393" on="1"/>
        <pt x="1392" y="1400" on="0"/>
        <pt x="1543" y="1413" on="0"/>
        <pt x="1701" y="1422" on="0"/>
        <pt x="1861" y="1427" on="0"/>
        <pt x="1935" y="1427" on="1"/>
        <pt x="1997" y="1427" on="0"/>
        <pt x="2106" y="1421" on="0"/>
        <pt x="2148" y="1415" on="1"/>
        <pt x="2174" y="1410" on="0"/>
        <pt x="2187" y="1394" on="0"/>
        <pt x="2187" y="1384" on="1"/>
        <pt x="2187" y="1373" on="0"/>
        <pt x="2187" y="1366" on="0"/>
        <pt x="2189" y="1366" on="1"/>
        <pt x="2196" y="1363" on="0"/>
        <pt x="2210" y="1361" on="0"/>
        <pt x="2210" y="1356" on="1"/>
        <pt x="2210" y="1354" on="0"/>
        <pt x="2206" y="1350" on="1"/>
        <pt x="2200" y="1344" on="0"/>
        <pt x="2194" y="1338" on="0"/>
        <pt x="2191" y="1333" on="0"/>
        <pt x="2189" y="1325" on="0"/>
        <pt x="2187" y="1317" on="1"/>
        <pt x="2181" y="1300" on="0"/>
        <pt x="2147" y="1277" on="0"/>
        <pt x="2116" y="1272" on="1"/>
        <pt x="2107" y="1271" on="0"/>
        <pt x="2044" y="1267" on="0"/>
        <pt x="1950" y="1262" on="0"/>
        <pt x="1831" y="1255" on="0"/>
        <pt x="1702" y="1248" on="0"/>
        <pt x="1569" y="1239" on="0"/>
        <pt x="1507" y="1235" on="1"/>
        <pt x="1475" y="1194" on="0"/>
        <pt x="1390" y="1086" on="0"/>
        <pt x="1300" y="967" on="0"/>
        <pt x="1211" y="848" on="0"/>
        <pt x="1174" y="797" on="1"/>
        <pt x="1268" y="811" on="0"/>
        <pt x="1465" y="829" on="0"/>
        <pt x="1548" y="829" on="1"/>
        <pt x="1586" y="829" on="0"/>
        <pt x="1654" y="824" on="0"/>
        <pt x="1681" y="819" on="1"/>
        <pt x="1701" y="815" on="0"/>
        <pt x="1730" y="794" on="0"/>
        <pt x="1748" y="766" on="0"/>
        <pt x="1757" y="737" on="0"/>
        <pt x="1757" y="725" on="1"/>
        <pt x="1757" y="716" on="0"/>
        <pt x="1754" y="702" on="0"/>
        <pt x="1749" y="700" on="1"/>
        <pt x="1740" y="695" on="0"/>
        <pt x="1712" y="683" on="0"/>
        <pt x="1677" y="673" on="0"/>
        <pt x="1640" y="664" on="0"/>
        <pt x="1622" y="662" on="1"/>
        <pt x="1612" y="660" on="0"/>
        <pt x="1539" y="653" on="0"/>
        <pt x="1437" y="645" on="0"/>
        <pt x="1314" y="637" on="0"/>
        <pt x="1194" y="630" on="0"/>
        <pt x="1087" y="625" on="0"/>
        <pt x="1051" y="625" on="1"/>
        <pt x="1017" y="577" on="0"/>
        <pt x="924" y="443" on="0"/>
        <pt x="829" y="303" on="0"/>
        <pt x="742" y="171" on="0"/>
        <pt x="715" y="125" on="1"/>
        <pt x="764" y="137" on="0"/>
        <pt x="885" y="161" on="0"/>
        <pt x="961" y="172" on="1"/>
        <pt x="1023" y="182" on="0"/>
        <pt x="1148" y="200" on="0"/>
        <pt x="1267" y="213" on="0"/>
        <pt x="1376" y="221" on="0"/>
        <pt x="1421" y="221" on="1"/>
        <pt x="1494" y="221" on="0"/>
        <pt x="1538" y="209" on="1"/>
        <pt x="1558" y="203" on="0"/>
        <pt x="1599" y="174" on="0"/>
        <pt x="1632" y="142" on="0"/>
        <pt x="1653" y="114" on="0"/>
      </contour>
      <contour>
        <pt x="1161" y="1196" on="1"/>
        <pt x="1078" y="1129" on="0"/>
        <pt x="942" y="1017" on="0"/>
        <pt x="826" y="917" on="0"/>
        <pt x="724" y="825" on="0"/>
        <pt x="626" y="732" on="0"/>
        <pt x="528" y="632" on="0"/>
        <pt x="473" y="575" on="1"/>
        <pt x="513" y="579" on="0"/>
        <pt x="603" y="584" on="0"/>
        <pt x="649" y="584" on="1"/>
        <pt x="693" y="584" on="0"/>
        <pt x="778" y="578" on="0"/>
        <pt x="813" y="571" on="1"/>
        <pt x="868" y="645" on="1"/>
        <pt x="868" y="647" on="0"/>
        <pt x="866" y="649" on="0"/>
        <pt x="866" y="651" on="1"/>
        <pt x="864" y="658" on="0"/>
        <pt x="850" y="671" on="0"/>
        <pt x="835" y="685" on="0"/>
        <pt x="823" y="698" on="0"/>
        <pt x="823" y="705" on="1"/>
        <pt x="823" y="711" on="0"/>
        <pt x="829" y="717" on="1"/>
        <pt x="837" y="725" on="0"/>
        <pt x="904" y="747" on="0"/>
        <pt x="956" y="758" on="1"/>
        <pt x="1010" y="826" on="0"/>
        <pt x="1116" y="959" on="0"/>
        <pt x="1212" y="1079" on="0"/>
        <pt x="1295" y="1181" on="0"/>
        <pt x="1327" y="1219" on="1"/>
        <pt x="1287" y="1212" on="0"/>
        <pt x="1232" y="1203" on="0"/>
        <pt x="1195" y="1198" on="0"/>
        <pt x="1170" y="1196" on="0"/>
      </contour>
    </TTGlyph>
    <TTGlyph name="AEacute" xMin="-166" yMin="-37" xMax="2210" yMax="1854">
      <component glyphName="AE" x="0" y="0" flags="0x204"/>
      <component glyphName="acute" x="1118" y="586" flags="0x4"/>
    </TTGlyph>
    <TTGlyph name="Aacute" xMin="-145" yMin="-37" xMax="1630" yMax="1860">
      <component glyphName="A" x="0" y="0" flags="0x204"/>
      <component glyphName="acute" x="729" y="592" flags="0x4"/>
    </TTGlyph>
    <TTGlyph name="Abreve" xMin="-145" yMin="-37" xMax="1622" yMax="1862">
      <component glyphName="A" x="0" y="0" flags="0x204"/>
      <component glyphName="breve" x="670" y="592" flags="0x4"/>
    </TTGlyph>
    <TTGlyph name="Acircumflex" xMin="-145" yMin="-37" xMax="1528" yMax="1856">
      <component glyphName="A" x="0" y="0" flags="0x204"/>
      <component glyphName="circumflex" x="680" y="592" flags="0x4"/>
    </TTGlyph>
    <TTGlyph name="Adieresis" xMin="-145" yMin="-37" xMax="1566" yMax="1778">
      <component glyphName="A" x="0" y="0" flags="0x204"/>
      <component glyphName="dieresis" x="698" y="592" flags="0x4"/>
    </TTGlyph>
    <TTGlyph name="Agrave" xMin="-145" yMin="-37" xMax="1292" yMax="1852">
      <component glyphName="A" x="0" y="0" flags="0x204"/>
      <component glyphName="grave" x="592" y="592" flags="0x4"/>
    </TTGlyph>
    <TTGlyph name="Amacron" xMin="-145" yMin="-37" xMax="1589" yMax="1763">
      <component glyphName="A" x="0" y="0" flags="0x204"/>
      <component glyphName="macron" x="696" y="592" flags="0x4"/>
    </TTGlyph>
    <TTGlyph name="Aogonek" xMin="-145" yMin="-461" xMax="1282" yMax="1432">
      <contour>
        <pt x="1100" y="1405" on="1"/>
        <pt x="1115" y="1403" on="0"/>
        <pt x="1128" y="1385" on="0"/>
        <pt x="1128" y="1372" on="1"/>
        <pt x="1128" y="1355" on="0"/>
        <pt x="1108" y="1317" on="0"/>
        <pt x="1085" y="1294" on="1"/>
        <pt x="996" y="1208" on="0"/>
        <pt x="857" y="1071" on="0"/>
        <pt x="743" y="954" on="0"/>
        <pt x="649" y="850" on="0"/>
        <pt x="562" y="747" on="0"/>
        <pt x="474" y="637" on="0"/>
        <pt x="424" y="573" on="1"/>
        <pt x="467" y="577" on="0"/>
        <pt x="565" y="584" on="0"/>
        <pt x="616" y="584" on="1"/>
        <pt x="657" y="584" on="0"/>
        <pt x="732" y="578" on="0"/>
        <pt x="764" y="571" on="1"/>
        <pt x="791" y="645" on="0"/>
        <pt x="873" y="828" on="0"/>
        <pt x="966" y="1016" on="0"/>
        <pt x="1059" y="1195" on="0"/>
        <pt x="1134" y="1336" on="0"/>
        <pt x="1182" y="1426" on="0"/>
        <pt x="1184" y="1430" on="1"/>
        <pt x="1184" y="1432" on="0"/>
        <pt x="1190" y="1432" on="1"/>
        <pt x="1193" y="1432" on="0"/>
        <pt x="1203" y="1430" on="0"/>
        <pt x="1208" y="1430" on="1"/>
        <pt x="1210" y="1430" on="0"/>
        <pt x="1212" y="1432" on="0"/>
        <pt x="1214" y="1432" on="1"/>
        <pt x="1224" y="1432" on="0"/>
        <pt x="1236" y="1423" on="0"/>
        <pt x="1241" y="1421" on="1"/>
        <pt x="1258" y="1412" on="0"/>
        <pt x="1282" y="1395" on="0"/>
        <pt x="1282" y="1376" on="1"/>
        <pt x="1282" y="1373" on="0"/>
        <pt x="1282" y="1365" on="0"/>
        <pt x="1280" y="1360" on="1"/>
        <pt x="1278" y="1351" on="0"/>
        <pt x="1245" y="1267" on="0"/>
        <pt x="1193" y="1141" on="0"/>
        <pt x="1126" y="983" on="0"/>
        <pt x="1053" y="817" on="0"/>
        <pt x="980" y="654" on="0"/>
        <pt x="948" y="586" on="1"/>
        <pt x="927" y="542" on="0"/>
        <pt x="798" y="253" on="0"/>
        <pt x="686" y="4" on="1"/>
        <pt x="683" y="-3" on="0"/>
        <pt x="676" y="-6" on="1"/>
        <pt x="656" y="-15" on="0"/>
        <pt x="599" y="-49" on="0"/>
        <pt x="538" y="-92" on="0"/>
        <pt x="477" y="-142" on="0"/>
        <pt x="429" y="-196" on="0"/>
        <pt x="399" y="-250" on="0"/>
        <pt x="399" y="-274" on="1"/>
        <pt x="399" y="-302" on="0"/>
        <pt x="442" y="-334" on="0"/>
        <pt x="479" y="-334" on="1"/>
        <pt x="501" y="-334" on="0"/>
        <pt x="553" y="-322" on="0"/>
        <pt x="605" y="-304" on="0"/>
        <pt x="653" y="-283" on="0"/>
        <pt x="672" y="-274" on="1"/>
        <pt x="675" y="-272" on="0"/>
        <pt x="688" y="-268" on="0"/>
        <pt x="694" y="-268" on="1"/>
        <pt x="699" y="-268" on="0"/>
        <pt x="707" y="-275" on="0"/>
        <pt x="707" y="-283" on="1"/>
        <pt x="707" y="-293" on="0"/>
        <pt x="699" y="-314" on="0"/>
        <pt x="690" y="-335" on="0"/>
        <pt x="682" y="-353" on="0"/>
        <pt x="682" y="-360" on="1"/>
        <pt x="682" y="-366" on="0"/>
        <pt x="688" y="-372" on="0"/>
        <pt x="694" y="-377" on="0"/>
        <pt x="700" y="-383" on="0"/>
        <pt x="700" y="-387" on="1"/>
        <pt x="700" y="-401" on="0"/>
        <pt x="680" y="-421" on="0"/>
        <pt x="668" y="-424" on="1"/>
        <pt x="640" y="-432" on="0"/>
        <pt x="590" y="-445" on="0"/>
        <pt x="536" y="-455" on="0"/>
        <pt x="472" y="-461" on="0"/>
        <pt x="430" y="-461" on="1"/>
        <pt x="391" y="-461" on="0"/>
        <pt x="325" y="-445" on="0"/>
        <pt x="277" y="-412" on="0"/>
        <pt x="250" y="-362" on="0"/>
        <pt x="250" y="-328" on="1"/>
        <pt x="250" y="-275" on="0"/>
        <pt x="297" y="-180" on="0"/>
        <pt x="382" y="-95" on="0"/>
        <pt x="502" y="-20" on="0"/>
        <pt x="575" y="14" on="1"/>
        <pt x="575" y="18" on="1"/>
        <pt x="570" y="31" on="0"/>
        <pt x="559" y="49" on="0"/>
        <pt x="559" y="68" on="1"/>
        <pt x="559" y="83" on="0"/>
        <pt x="562" y="126" on="0"/>
        <pt x="565" y="135" on="1"/>
        <pt x="607" y="241" on="0"/>
        <pt x="674" y="389" on="0"/>
        <pt x="698" y="440" on="1"/>
        <pt x="657" y="436" on="0"/>
        <pt x="554" y="429" on="0"/>
        <pt x="446" y="423" on="0"/>
        <pt x="341" y="416" on="0"/>
        <pt x="299" y="412" on="1"/>
        <pt x="281" y="390" on="0"/>
        <pt x="224" y="322" on="0"/>
        <pt x="159" y="247" on="0"/>
        <pt x="93" y="171" on="0"/>
        <pt x="39" y="108" on="0"/>
        <pt x="3" y="66" on="0"/>
        <pt x="2" y="63" on="1"/>
        <pt x="-7" y="50" on="0"/>
        <pt x="-38" y="16" on="0"/>
        <pt x="-68" y="-15" on="0"/>
        <pt x="-92" y="-37" on="0"/>
        <pt x="-96" y="-37" on="1"/>
        <pt x="-104" y="-37" on="0"/>
        <pt x="-110" y="-12" on="0"/>
        <pt x="-115" y="0" on="1"/>
        <pt x="-123" y="17" on="0"/>
        <pt x="-138" y="48" on="0"/>
        <pt x="-143" y="63" on="1"/>
        <pt x="-143" y="65" on="0"/>
        <pt x="-145" y="69" on="0"/>
        <pt x="-145" y="72" on="1"/>
        <pt x="-145" y="82" on="0"/>
        <pt x="-137" y="111" on="0"/>
        <pt x="-126" y="141" on="0"/>
        <pt x="-114" y="166" on="0"/>
        <pt x="-109" y="172" on="1"/>
        <pt x="-67" y="229" on="0"/>
        <pt x="14" y="337" on="0"/>
        <pt x="57" y="391" on="1"/>
        <pt x="33" y="391" on="0"/>
        <pt x="12" y="394" on="0"/>
        <pt x="10" y="399" on="1"/>
        <pt x="8" y="406" on="0"/>
        <pt x="-1" y="410" on="0"/>
        <pt x="-10" y="411" on="0"/>
        <pt x="-16" y="415" on="0"/>
        <pt x="-16" y="422" on="1"/>
        <pt x="-16" y="428" on="0"/>
        <pt x="-15" y="447" on="0"/>
        <pt x="-12" y="467" on="0"/>
        <pt x="-7" y="483" on="0"/>
        <pt x="-4" y="485" on="1"/>
        <pt x="5" y="495" on="0"/>
        <pt x="53" y="514" on="0"/>
        <pt x="90" y="528" on="1"/>
        <pt x="119" y="538" on="0"/>
        <pt x="186" y="547" on="1"/>
        <pt x="294" y="674" on="0"/>
        <pt x="506" y="900" on="0"/>
        <pt x="700" y="1089" on="0"/>
        <pt x="867" y="1239" on="0"/>
        <pt x="994" y="1344" on="0"/>
        <pt x="1073" y="1401" on="0"/>
        <pt x="1081" y="1403" on="1"/>
        <pt x="1086" y="1403" on="0"/>
        <pt x="1095" y="1405" on="0"/>
      </contour>
    </TTGlyph>
    <TTGlyph name="Aring" xMin="-145" yMin="-37" xMax="1557" yMax="1950">
      <component glyphName="A" x="0" y="0" flags="0x204"/>
      <component glyphName="ring" x="750" y="592" flags="0x4"/>
    </TTGlyph>
    <TTGlyph name="Atilde" xMin="-145" yMin="-37" xMax="1638" yMax="1839">
      <component glyphName="A" x="0" y="0" flags="0x204"/>
      <component glyphName="tilde" x="696" y="592" flags="0x4"/>
    </TTGlyph>
    <TTGlyph name="B" xMin="-152" yMin="-37" xMax="1391" yMax="1403">
      <contour>
        <pt x="905" y="788" on="1"/>
        <pt x="947" y="785" on="0"/>
        <pt x="1026" y="768" on="0"/>
        <pt x="1093" y="734" on="0"/>
        <pt x="1145" y="679" on="0"/>
        <pt x="1161" y="637" on="1"/>
        <pt x="1166" y="623" on="0"/>
        <pt x="1174" y="588" on="0"/>
        <pt x="1174" y="571" on="1"/>
        <pt x="1174" y="484" on="0"/>
        <pt x="1076" y="326" on="0"/>
        <pt x="916" y="191" on="0"/>
        <pt x="711" y="82" on="0"/>
        <pt x="498" y="5" on="0"/>
        <pt x="294" y="-37" on="0"/>
        <pt x="215" y="-37" on="1"/>
        <pt x="162" y="-37" on="0"/>
        <pt x="85" y="-18" on="0"/>
        <pt x="63" y="2" on="1"/>
        <pt x="25" y="39" on="0"/>
        <pt x="25" y="90" on="1"/>
        <pt x="25" y="99" on="0"/>
        <pt x="27" y="120" on="0"/>
        <pt x="29" y="129" on="1"/>
        <pt x="29" y="132" on="0"/>
        <pt x="27" y="137" on="0"/>
        <pt x="27" y="139" on="1"/>
        <pt x="13" y="124" on="0"/>
        <pt x="-9" y="94" on="0"/>
        <pt x="-18" y="80" on="1"/>
        <pt x="-24" y="70" on="0"/>
        <pt x="-37" y="59" on="0"/>
        <pt x="-51" y="50" on="0"/>
        <pt x="-63" y="40" on="0"/>
        <pt x="-68" y="31" on="1"/>
        <pt x="-83" y="0" on="0"/>
        <pt x="-94" y="0" on="1"/>
        <pt x="-103" y="0" on="0"/>
        <pt x="-116" y="15" on="0"/>
        <pt x="-126" y="34" on="0"/>
        <pt x="-134" y="55" on="0"/>
        <pt x="-137" y="61" on="1"/>
        <pt x="-143" y="74" on="0"/>
        <pt x="-152" y="99" on="0"/>
        <pt x="-152" y="115" on="1"/>
        <pt x="-152" y="147" on="0"/>
        <pt x="-123" y="195" on="1"/>
        <pt x="-108" y="218" on="0"/>
        <pt x="-58" y="285" on="0"/>
        <pt x="0" y="363" on="0"/>
        <pt x="61" y="447" on="0"/>
        <pt x="88" y="487" on="1"/>
        <pt x="104" y="511" on="0"/>
        <pt x="185" y="617" on="0"/>
        <pt x="291" y="753" on="0"/>
        <pt x="412" y="907" on="0"/>
        <pt x="527" y="1054" on="0"/>
        <pt x="624" y="1179" on="0"/>
        <pt x="653" y="1219" on="1"/>
        <pt x="593" y="1203" on="0"/>
        <pt x="475" y="1163" on="0"/>
        <pt x="418" y="1137" on="1"/>
        <pt x="416" y="1135" on="0"/>
        <pt x="412" y="1135" on="0"/>
        <pt x="410" y="1135" on="1"/>
        <pt x="397" y="1135" on="0"/>
        <pt x="385" y="1162" on="0"/>
        <pt x="385" y="1171" on="1"/>
        <pt x="385" y="1179" on="0"/>
        <pt x="389" y="1195" on="0"/>
        <pt x="389" y="1200" on="1"/>
        <pt x="389" y="1206" on="0"/>
        <pt x="385" y="1208" on="1"/>
        <pt x="379" y="1211" on="0"/>
        <pt x="371" y="1216" on="0"/>
        <pt x="371" y="1221" on="1"/>
        <pt x="371" y="1226" on="0"/>
        <pt x="385" y="1237" on="1"/>
        <pt x="400" y="1247" on="0"/>
        <pt x="474" y="1279" on="0"/>
        <pt x="579" y="1316" on="0"/>
        <pt x="709" y="1353" on="0"/>
        <pt x="853" y="1384" on="0"/>
        <pt x="1004" y="1403" on="0"/>
        <pt x="1077" y="1403" on="1"/>
        <pt x="1131" y="1403" on="0"/>
        <pt x="1243" y="1386" on="0"/>
        <pt x="1333" y="1344" on="0"/>
        <pt x="1391" y="1272" on="0"/>
        <pt x="1391" y="1217" on="1"/>
        <pt x="1391" y="1201" on="0"/>
        <pt x="1385" y="1176" on="0"/>
        <pt x="1382" y="1165" on="1"/>
        <pt x="1376" y="1130" on="0"/>
        <pt x="1337" y="1054" on="0"/>
        <pt x="1278" y="982" on="0"/>
        <pt x="1201" y="919" on="0"/>
        <pt x="1157" y="895" on="1"/>
        <pt x="1104" y="867" on="0"/>
        <pt x="980" y="813" on="0"/>
      </contour>
      <contour>
        <pt x="293" y="272" on="1"/>
        <pt x="302" y="269" on="0"/>
        <pt x="311" y="256" on="0"/>
        <pt x="311" y="248" on="1"/>
        <pt x="311" y="239" on="0"/>
        <pt x="299" y="220" on="0"/>
        <pt x="287" y="217" on="1"/>
        <pt x="221" y="194" on="0"/>
        <pt x="170" y="166" on="0"/>
        <pt x="170" y="150" on="1"/>
        <pt x="170" y="141" on="0"/>
        <pt x="172" y="137" on="1"/>
        <pt x="188" y="135" on="0"/>
        <pt x="208" y="135" on="0"/>
        <pt x="219" y="135" on="1"/>
        <pt x="292" y="135" on="0"/>
        <pt x="473" y="183" on="0"/>
        <pt x="660" y="264" on="0"/>
        <pt x="838" y="369" on="0"/>
        <pt x="977" y="484" on="0"/>
        <pt x="1061" y="601" on="0"/>
        <pt x="1061" y="653" on="1"/>
        <pt x="1061" y="659" on="0"/>
        <pt x="1055" y="667" on="1"/>
        <pt x="1052" y="671" on="0"/>
        <pt x="1049" y="674" on="1"/>
        <pt x="1039" y="684" on="0"/>
        <pt x="989" y="701" on="0"/>
        <pt x="916" y="715" on="0"/>
        <pt x="824" y="723" on="0"/>
        <pt x="772" y="723" on="1"/>
        <pt x="752" y="723" on="0"/>
        <pt x="710" y="723" on="0"/>
        <pt x="688" y="721" on="1"/>
        <pt x="616" y="699" on="0"/>
        <pt x="461" y="662" on="0"/>
        <pt x="383" y="645" on="1"/>
        <pt x="349" y="601" on="0"/>
        <pt x="262" y="484" on="0"/>
        <pt x="179" y="369" on="0"/>
        <pt x="114" y="273" on="0"/>
        <pt x="102" y="250" on="1"/>
        <pt x="121" y="261" on="0"/>
        <pt x="165" y="278" on="0"/>
        <pt x="207" y="289" on="0"/>
        <pt x="245" y="295" on="0"/>
        <pt x="260" y="295" on="1"/>
        <pt x="274" y="295" on="0"/>
        <pt x="288" y="279" on="0"/>
      </contour>
      <contour>
        <pt x="782" y="1194" on="1"/>
        <pt x="779" y="1191" on="0"/>
        <pt x="749" y="1150" on="0"/>
        <pt x="704" y="1085" on="0"/>
        <pt x="647" y="1003" on="0"/>
        <pt x="586" y="916" on="0"/>
        <pt x="524" y="830" on="0"/>
        <pt x="498" y="793" on="1"/>
        <pt x="565" y="819" on="0"/>
        <pt x="723" y="884" on="0"/>
        <pt x="887" y="956" on="0"/>
        <pt x="1045" y="1034" on="0"/>
        <pt x="1177" y="1112" on="0"/>
        <pt x="1274" y="1188" on="0"/>
        <pt x="1294" y="1223" on="1"/>
        <pt x="1294" y="1226" on="0"/>
        <pt x="1296" y="1232" on="0"/>
        <pt x="1296" y="1235" on="1"/>
        <pt x="1296" y="1244" on="0"/>
        <pt x="1287" y="1255" on="0"/>
        <pt x="1276" y="1262" on="1"/>
        <pt x="1267" y="1267" on="0"/>
        <pt x="1177" y="1276" on="0"/>
        <pt x="1106" y="1276" on="1"/>
        <pt x="1037" y="1276" on="0"/>
        <pt x="859" y="1262" on="0"/>
        <pt x="762" y="1243" on="1"/>
        <pt x="773" y="1234" on="0"/>
        <pt x="786" y="1210" on="0"/>
        <pt x="786" y="1202" on="1"/>
      </contour>
    </TTGlyph>
    <TTGlyph name="C" xMin="37" yMin="-29" xMax="1409" yMax="1397">
      <contour>
        <pt x="176" y="324" on="1"/>
        <pt x="176" y="285" on="0"/>
        <pt x="205" y="218" on="0"/>
        <pt x="257" y="170" on="0"/>
        <pt x="332" y="143" on="0"/>
        <pt x="377" y="143" on="1"/>
        <pt x="442" y="143" on="0"/>
        <pt x="568" y="182" on="0"/>
        <pt x="639" y="217" on="1"/>
        <pt x="673" y="234" on="0"/>
        <pt x="757" y="299" on="0"/>
        <pt x="851" y="382" on="0"/>
        <pt x="951" y="476" on="0"/>
        <pt x="999" y="522" on="1"/>
        <pt x="1022" y="544" on="0"/>
        <pt x="1043" y="571" on="0"/>
        <pt x="1057" y="584" on="1"/>
        <pt x="1059" y="586" on="0"/>
        <pt x="1063" y="586" on="1"/>
        <pt x="1068" y="586" on="0"/>
        <pt x="1072" y="578" on="0"/>
        <pt x="1077" y="578" on="1"/>
        <pt x="1083" y="578" on="0"/>
        <pt x="1091" y="588" on="0"/>
        <pt x="1096" y="588" on="1"/>
        <pt x="1102" y="588" on="0"/>
        <pt x="1102" y="578" on="1"/>
        <pt x="1102" y="571" on="0"/>
        <pt x="1100" y="564" on="0"/>
        <pt x="1100" y="559" on="1"/>
        <pt x="1100" y="561" on="0"/>
        <pt x="1102" y="563" on="1"/>
        <pt x="1104" y="567" on="0"/>
        <pt x="1108" y="567" on="1"/>
        <pt x="1114" y="567" on="0"/>
        <pt x="1114" y="551" on="1"/>
        <pt x="1114" y="541" on="1"/>
        <pt x="1113" y="527" on="0"/>
        <pt x="1095" y="468" on="0"/>
        <pt x="1057" y="389" on="0"/>
        <pt x="998" y="295" on="0"/>
        <pt x="914" y="197" on="0"/>
        <pt x="804" y="103" on="0"/>
        <pt x="735" y="63" on="1"/>
        <pt x="652" y="15" on="0"/>
        <pt x="487" y="-29" on="0"/>
        <pt x="412" y="-29" on="1"/>
        <pt x="324" y="-29" on="0"/>
        <pt x="186" y="26" on="0"/>
        <pt x="145" y="76" on="1"/>
        <pt x="88" y="125" on="0"/>
        <pt x="37" y="272" on="0"/>
        <pt x="37" y="358" on="1"/>
        <pt x="37" y="425" on="0"/>
        <pt x="66" y="567" on="0"/>
        <pt x="118" y="704" on="0"/>
        <pt x="191" y="830" on="0"/>
        <pt x="236" y="883" on="1"/>
        <pt x="334" y="998" on="0"/>
        <pt x="528" y="1163" on="0"/>
        <pt x="712" y="1277" on="0"/>
        <pt x="881" y="1347" on="0"/>
        <pt x="1027" y="1384" on="0"/>
        <pt x="1144" y="1397" on="0"/>
        <pt x="1184" y="1397" on="1"/>
        <pt x="1204" y="1397" on="0"/>
        <pt x="1234" y="1397" on="0"/>
        <pt x="1243" y="1395" on="1"/>
        <pt x="1285" y="1390" on="0"/>
        <pt x="1332" y="1355" on="0"/>
        <pt x="1343" y="1329" on="1"/>
        <pt x="1368" y="1306" on="0"/>
        <pt x="1409" y="1242" on="0"/>
        <pt x="1409" y="1196" on="1"/>
        <pt x="1409" y="1149" on="0"/>
        <pt x="1371" y="1062" on="0"/>
        <pt x="1310" y="988" on="0"/>
        <pt x="1236" y="931" on="0"/>
        <pt x="1200" y="915" on="1"/>
        <pt x="1196" y="913" on="0"/>
        <pt x="1188" y="913" on="1"/>
        <pt x="1180" y="913" on="0"/>
        <pt x="1170" y="927" on="0"/>
        <pt x="1167" y="938" on="1"/>
        <pt x="1165" y="945" on="0"/>
        <pt x="1163" y="951" on="0"/>
        <pt x="1161" y="955" on="0"/>
        <pt x="1158" y="959" on="0"/>
        <pt x="1155" y="965" on="1"/>
        <pt x="1152" y="968" on="0"/>
        <pt x="1153" y="979" on="0"/>
        <pt x="1153" y="981" on="1"/>
        <pt x="1153" y="989" on="0"/>
        <pt x="1143" y="997" on="1"/>
        <pt x="1126" y="1009" on="0"/>
        <pt x="1126" y="1024" on="1"/>
        <pt x="1126" y="1030" on="0"/>
        <pt x="1135" y="1045" on="0"/>
        <pt x="1143" y="1053" on="1"/>
        <pt x="1150" y="1060" on="0"/>
        <pt x="1181" y="1086" on="0"/>
        <pt x="1218" y="1119" on="0"/>
        <pt x="1259" y="1159" on="0"/>
        <pt x="1292" y="1204" on="0"/>
        <pt x="1313" y="1253" on="0"/>
        <pt x="1313" y="1278" on="1"/>
        <pt x="1313" y="1281" on="0"/>
        <pt x="1313" y="1289" on="0"/>
        <pt x="1311" y="1292" on="1"/>
        <pt x="1292" y="1306" on="0"/>
        <pt x="1258" y="1311" on="0"/>
        <pt x="1239" y="1311" on="1"/>
        <pt x="1190" y="1311" on="0"/>
        <pt x="1054" y="1275" on="0"/>
        <pt x="898" y="1207" on="0"/>
        <pt x="729" y="1107" on="0"/>
        <pt x="565" y="978" on="0"/>
        <pt x="412" y="823" on="0"/>
        <pt x="350" y="733" on="1"/>
        <pt x="302" y="662" on="0"/>
        <pt x="235" y="545" on="0"/>
        <pt x="194" y="446" on="0"/>
        <pt x="176" y="361" on="0"/>
      </contour>
    </TTGlyph>
    <TTGlyph name="Cacute" xMin="37" yMin="-29" xMax="1601" yMax="1825">
      <component glyphName="C" x="0" y="0" flags="0x204"/>
      <component glyphName="acute" x="700" y="557" flags="0x4"/>
    </TTGlyph>
    <TTGlyph name="Ccaron" xMin="37" yMin="-29" xMax="1605" yMax="1821">
      <component glyphName="C" x="0" y="0" flags="0x204"/>
      <component glyphName="caron" x="655" y="557" flags="0x4"/>
    </TTGlyph>
    <TTGlyph name="Ccedilla" xMin="-74" yMin="-502" xMax="1409" yMax="1397">
      <contour>
        <pt x="377" y="143" on="1"/>
        <pt x="436" y="143" on="0"/>
        <pt x="568" y="182" on="0"/>
        <pt x="639" y="217" on="1"/>
        <pt x="673" y="234" on="0"/>
        <pt x="757" y="299" on="0"/>
        <pt x="851" y="382" on="0"/>
        <pt x="951" y="476" on="0"/>
        <pt x="999" y="522" on="1"/>
        <pt x="1022" y="544" on="0"/>
        <pt x="1043" y="571" on="0"/>
        <pt x="1057" y="584" on="1"/>
        <pt x="1059" y="586" on="0"/>
        <pt x="1063" y="586" on="1"/>
        <pt x="1068" y="586" on="0"/>
        <pt x="1072" y="578" on="0"/>
        <pt x="1077" y="578" on="1"/>
        <pt x="1083" y="578" on="0"/>
        <pt x="1091" y="588" on="0"/>
        <pt x="1096" y="588" on="1"/>
        <pt x="1102" y="588" on="0"/>
        <pt x="1102" y="578" on="1"/>
        <pt x="1102" y="571" on="0"/>
        <pt x="1100" y="564" on="0"/>
        <pt x="1100" y="559" on="1"/>
        <pt x="1100" y="561" on="0"/>
        <pt x="1102" y="563" on="1"/>
        <pt x="1104" y="567" on="0"/>
        <pt x="1108" y="567" on="1"/>
        <pt x="1114" y="567" on="0"/>
        <pt x="1114" y="551" on="1"/>
        <pt x="1114" y="541" on="1"/>
        <pt x="1113" y="527" on="0"/>
        <pt x="1095" y="468" on="0"/>
        <pt x="1057" y="389" on="0"/>
        <pt x="998" y="295" on="0"/>
        <pt x="914" y="197" on="0"/>
        <pt x="804" y="103" on="0"/>
        <pt x="735" y="63" on="1"/>
        <pt x="652" y="15" on="0"/>
        <pt x="487" y="-29" on="0"/>
        <pt x="412" y="-29" on="1"/>
        <pt x="369" y="-29" on="0"/>
        <pt x="336" y="-23" on="1"/>
        <pt x="297" y="-88" on="1"/>
        <pt x="383" y="-91" on="0"/>
        <pt x="459" y="-164" on="0"/>
        <pt x="459" y="-215" on="1"/>
        <pt x="459" y="-277" on="0"/>
        <pt x="408" y="-382" on="0"/>
        <pt x="313" y="-458" on="0"/>
        <pt x="177" y="-502" on="0"/>
        <pt x="92" y="-502" on="1"/>
        <pt x="68" y="-502" on="0"/>
        <pt x="10" y="-491" on="0"/>
        <pt x="-40" y="-475" on="0"/>
        <pt x="-74" y="-458" on="0"/>
        <pt x="-74" y="-451" on="1"/>
        <pt x="-74" y="-450" on="1"/>
        <pt x="-74" y="-450" on="0"/>
        <pt x="-72" y="-446" on="1"/>
        <pt x="-70" y="-442" on="0"/>
        <pt x="-42" y="-403" on="0"/>
        <pt x="-8" y="-359" on="0"/>
        <pt x="24" y="-324" on="0"/>
        <pt x="31" y="-324" on="1"/>
        <pt x="34" y="-324" on="0"/>
        <pt x="62" y="-340" on="0"/>
        <pt x="104" y="-359" on="0"/>
        <pt x="155" y="-375" on="0"/>
        <pt x="180" y="-375" on="1"/>
        <pt x="208" y="-375" on="0"/>
        <pt x="265" y="-366" on="0"/>
        <pt x="310" y="-343" on="0"/>
        <pt x="338" y="-304" on="0"/>
        <pt x="338" y="-274" on="1"/>
        <pt x="338" y="-248" on="0"/>
        <pt x="306" y="-218" on="0"/>
        <pt x="260" y="-202" on="0"/>
        <pt x="208" y="-197" on="0"/>
        <pt x="188" y="-197" on="1"/>
        <pt x="181" y="-197" on="0"/>
        <pt x="165" y="-196" on="0"/>
        <pt x="151" y="-193" on="0"/>
        <pt x="141" y="-186" on="0"/>
        <pt x="141" y="-180" on="1"/>
        <pt x="141" y="-175" on="0"/>
        <pt x="147" y="-166" on="1"/>
        <pt x="161" y="-142" on="0"/>
        <pt x="186" y="-101" on="0"/>
        <pt x="211" y="-62" on="0"/>
        <pt x="237" y="-23" on="0"/>
        <pt x="252" y="0" on="1"/>
        <pt x="218" y="12" on="0"/>
        <pt x="164" y="51" on="0"/>
        <pt x="145" y="76" on="1"/>
        <pt x="88" y="125" on="0"/>
        <pt x="37" y="272" on="0"/>
        <pt x="37" y="358" on="1"/>
        <pt x="37" y="425" on="0"/>
        <pt x="66" y="567" on="0"/>
        <pt x="118" y="704" on="0"/>
        <pt x="191" y="830" on="0"/>
        <pt x="236" y="883" on="1"/>
        <pt x="334" y="998" on="0"/>
        <pt x="528" y="1163" on="0"/>
        <pt x="712" y="1277" on="0"/>
        <pt x="881" y="1347" on="0"/>
        <pt x="1027" y="1384" on="0"/>
        <pt x="1144" y="1397" on="0"/>
        <pt x="1184" y="1397" on="1"/>
        <pt x="1204" y="1397" on="0"/>
        <pt x="1234" y="1397" on="0"/>
        <pt x="1243" y="1395" on="1"/>
        <pt x="1285" y="1390" on="0"/>
        <pt x="1332" y="1355" on="0"/>
        <pt x="1343" y="1329" on="1"/>
        <pt x="1368" y="1306" on="0"/>
        <pt x="1409" y="1242" on="0"/>
        <pt x="1409" y="1196" on="1"/>
        <pt x="1409" y="1149" on="0"/>
        <pt x="1371" y="1062" on="0"/>
        <pt x="1310" y="988" on="0"/>
        <pt x="1236" y="931" on="0"/>
        <pt x="1200" y="915" on="1"/>
        <pt x="1196" y="913" on="0"/>
        <pt x="1188" y="913" on="1"/>
        <pt x="1180" y="913" on="0"/>
        <pt x="1170" y="927" on="0"/>
        <pt x="1167" y="938" on="1"/>
        <pt x="1165" y="945" on="0"/>
        <pt x="1163" y="951" on="0"/>
        <pt x="1161" y="955" on="0"/>
        <pt x="1158" y="959" on="0"/>
        <pt x="1155" y="965" on="1"/>
        <pt x="1152" y="968" on="0"/>
        <pt x="1153" y="979" on="0"/>
        <pt x="1153" y="981" on="1"/>
        <pt x="1153" y="989" on="0"/>
        <pt x="1143" y="997" on="1"/>
        <pt x="1126" y="1009" on="0"/>
        <pt x="1126" y="1024" on="1"/>
        <pt x="1126" y="1030" on="0"/>
        <pt x="1135" y="1045" on="0"/>
        <pt x="1143" y="1053" on="1"/>
        <pt x="1150" y="1060" on="0"/>
        <pt x="1181" y="1086" on="0"/>
        <pt x="1218" y="1119" on="0"/>
        <pt x="1259" y="1159" on="0"/>
        <pt x="1292" y="1204" on="0"/>
        <pt x="1313" y="1253" on="0"/>
        <pt x="1313" y="1278" on="1"/>
        <pt x="1313" y="1281" on="0"/>
        <pt x="1313" y="1289" on="0"/>
        <pt x="1311" y="1292" on="1"/>
        <pt x="1300" y="1300" on="1"/>
        <pt x="1275" y="1311" on="0"/>
        <pt x="1239" y="1311" on="1"/>
        <pt x="1190" y="1311" on="0"/>
        <pt x="1054" y="1275" on="0"/>
        <pt x="898" y="1207" on="0"/>
        <pt x="729" y="1107" on="0"/>
        <pt x="565" y="978" on="0"/>
        <pt x="412" y="823" on="0"/>
        <pt x="350" y="733" on="1"/>
        <pt x="302" y="662" on="0"/>
        <pt x="235" y="543" on="0"/>
        <pt x="194" y="442" on="0"/>
        <pt x="176" y="358" on="0"/>
        <pt x="176" y="324" on="1"/>
        <pt x="176" y="287" on="0"/>
        <pt x="202" y="221" on="0"/>
        <pt x="253" y="172" on="0"/>
        <pt x="328" y="143" on="0"/>
      </contour>
    </TTGlyph>
    <TTGlyph name="Ccircumflex" xMin="37" yMin="-29" xMax="1499" yMax="1821">
      <component glyphName="C" x="0" y="0" flags="0x204"/>
      <component glyphName="circumflex" x="651" y="557" flags="0x4"/>
    </TTGlyph>
    <TTGlyph name="Cdotaccent" xMin="37" yMin="-29" xMax="1422" yMax="1788">
      <component glyphName="C" x="0" y="0" flags="0x204"/>
      <component glyphName="dotaccent" x="666" y="557" flags="0x4"/>
    </TTGlyph>
    <TTGlyph name="D" xMin="-145" yMin="-31" xMax="1516" yMax="1407">
      <contour>
        <pt x="1511" y="932" on="1"/>
        <pt x="1508" y="910" on="0"/>
        <pt x="1469" y="820" on="0"/>
        <pt x="1398" y="699" on="0"/>
        <pt x="1292" y="555" on="0"/>
        <pt x="1152" y="406" on="0"/>
        <pt x="975" y="258" on="0"/>
        <pt x="761" y="128" on="0"/>
        <pt x="508" y="25" on="0"/>
        <pt x="362" y="-6" on="1"/>
        <pt x="301" y="-20" on="0"/>
        <pt x="210" y="-31" on="0"/>
        <pt x="178" y="-31" on="1"/>
        <pt x="164" y="-31" on="0"/>
        <pt x="123" y="-28" on="0"/>
        <pt x="83" y="-19" on="0"/>
        <pt x="48" y="-1" on="0"/>
        <pt x="41" y="14" on="1"/>
        <pt x="29" y="31" on="0"/>
        <pt x="10" y="83" on="0"/>
        <pt x="4" y="109" on="1"/>
        <pt x="-20" y="90" on="0"/>
        <pt x="-45" y="67" on="0"/>
        <pt x="-61" y="54" on="0"/>
        <pt x="-73" y="49" on="0"/>
        <pt x="-82" y="49" on="1"/>
        <pt x="-87" y="49" on="0"/>
        <pt x="-102" y="49" on="0"/>
        <pt x="-113" y="51" on="1"/>
        <pt x="-128" y="53" on="0"/>
        <pt x="-145" y="87" on="0"/>
        <pt x="-145" y="109" on="1"/>
        <pt x="-145" y="132" on="0"/>
        <pt x="-137" y="152" on="1"/>
        <pt x="-130" y="170" on="0"/>
        <pt x="-68" y="269" on="0"/>
        <pt x="27" y="406" on="0"/>
        <pt x="146" y="568" on="0"/>
        <pt x="211" y="649" on="1"/>
        <pt x="247" y="695" on="0"/>
        <pt x="335" y="805" on="0"/>
        <pt x="429" y="920" on="0"/>
        <pt x="524" y="1035" on="0"/>
        <pt x="610" y="1136" on="0"/>
        <pt x="683" y="1219" on="0"/>
        <pt x="707" y="1245" on="1"/>
        <pt x="648" y="1231" on="0"/>
        <pt x="515" y="1186" on="0"/>
        <pt x="436" y="1155" on="1"/>
        <pt x="434" y="1155" on="0"/>
        <pt x="434" y="1153" on="0"/>
        <pt x="432" y="1153" on="1"/>
        <pt x="423" y="1153" on="0"/>
        <pt x="410" y="1184" on="0"/>
        <pt x="410" y="1198" on="1"/>
        <pt x="410" y="1206" on="0"/>
        <pt x="413" y="1218" on="0"/>
        <pt x="418" y="1221" on="1"/>
        <pt x="430" y="1229" on="0"/>
        <pt x="449" y="1247" on="0"/>
        <pt x="471" y="1264" on="0"/>
        <pt x="498" y="1280" on="0"/>
        <pt x="516" y="1288" on="1"/>
        <pt x="533" y="1296" on="0"/>
        <pt x="617" y="1335" on="0"/>
        <pt x="743" y="1376" on="0"/>
        <pt x="904" y="1407" on="0"/>
        <pt x="997" y="1407" on="1"/>
        <pt x="1010" y="1407" on="0"/>
        <pt x="1036" y="1405" on="0"/>
        <pt x="1049" y="1405" on="1"/>
        <pt x="1248" y="1393" on="0"/>
        <pt x="1470" y="1276" on="0"/>
        <pt x="1483" y="1188" on="1"/>
        <pt x="1500" y="1146" on="0"/>
        <pt x="1516" y="1042" on="0"/>
        <pt x="1516" y="991" on="1"/>
        <pt x="1516" y="979" on="0"/>
        <pt x="1515" y="949" on="0"/>
      </contour>
      <contour>
        <pt x="281" y="266" on="1"/>
        <pt x="274" y="255" on="0"/>
        <pt x="239" y="231" on="0"/>
        <pt x="199" y="203" on="0"/>
        <pt x="162" y="173" on="0"/>
        <pt x="152" y="158" on="1"/>
        <pt x="163" y="156" on="0"/>
        <pt x="187" y="154" on="0"/>
        <pt x="203" y="154" on="1"/>
        <pt x="237" y="154" on="0"/>
        <pt x="324" y="167" on="0"/>
        <pt x="436" y="201" on="0"/>
        <pt x="575" y="260" on="0"/>
        <pt x="659" y="305" on="1"/>
        <pt x="755" y="356" on="0"/>
        <pt x="943" y="487" on="0"/>
        <pt x="1112" y="636" on="0"/>
        <pt x="1256" y="795" on="0"/>
        <pt x="1363" y="951" on="0"/>
        <pt x="1427" y="1098" on="0"/>
        <pt x="1430" y="1161" on="1"/>
        <pt x="1407" y="1209" on="0"/>
        <pt x="1244" y="1264" on="0"/>
        <pt x="1090" y="1276" on="1"/>
        <pt x="1064" y="1278" on="0"/>
        <pt x="1009" y="1280" on="0"/>
        <pt x="981" y="1280" on="1"/>
        <pt x="933" y="1280" on="0"/>
        <pt x="831" y="1272" on="0"/>
        <pt x="772" y="1260" on="1"/>
        <pt x="783" y="1250" on="0"/>
        <pt x="807" y="1228" on="0"/>
        <pt x="821" y="1219" on="1"/>
        <pt x="831" y="1212" on="0"/>
        <pt x="842" y="1209" on="0"/>
        <pt x="842" y="1204" on="1"/>
        <pt x="842" y="1199" on="0"/>
        <pt x="834" y="1188" on="1"/>
        <pt x="829" y="1181" on="0"/>
        <pt x="769" y="1103" on="0"/>
        <pt x="680" y="988" on="0"/>
        <pt x="574" y="852" on="0"/>
        <pt x="472" y="723" on="0"/>
        <pt x="385" y="615" on="0"/>
        <pt x="360" y="586" on="1"/>
        <pt x="342" y="564" on="0"/>
        <pt x="294" y="499" on="0"/>
        <pt x="240" y="423" on="0"/>
        <pt x="183" y="339" on="0"/>
        <pt x="156" y="299" on="1"/>
        <pt x="193" y="316" on="0"/>
        <pt x="250" y="336" on="0"/>
        <pt x="256" y="336" on="1"/>
        <pt x="258" y="336" on="0"/>
        <pt x="274" y="314" on="0"/>
        <pt x="274" y="305" on="1"/>
        <pt x="274" y="303" on="0"/>
        <pt x="272" y="298" on="0"/>
        <pt x="272" y="295" on="1"/>
        <pt x="283" y="295" on="0"/>
        <pt x="289" y="290" on="0"/>
        <pt x="289" y="287" on="1"/>
        <pt x="289" y="281" on="0"/>
        <pt x="285" y="273" on="1"/>
        <pt x="283" y="269" on="0"/>
      </contour>
    </TTGlyph>
    <TTGlyph name="Dcaron" xMin="-145" yMin="-31" xMax="1560" yMax="1831">
      <component glyphName="D" x="0" y="0" flags="0x204"/>
      <component glyphName="caron" x="610" y="567" flags="0x4"/>
    </TTGlyph>
    <TTGlyph name="Dcroat" xMin="-145" yMin="-31" xMax="1516" yMax="1407">
      <contour>
        <pt x="1511" y="932" on="1"/>
        <pt x="1508" y="910" on="0"/>
        <pt x="1469" y="820" on="0"/>
        <pt x="1398" y="699" on="0"/>
        <pt x="1292" y="555" on="0"/>
        <pt x="1152" y="406" on="0"/>
        <pt x="975" y="258" on="0"/>
        <pt x="761" y="128" on="0"/>
        <pt x="508" y="25" on="0"/>
        <pt x="362" y="-6" on="1"/>
        <pt x="301" y="-20" on="0"/>
        <pt x="210" y="-31" on="0"/>
        <pt x="178" y="-31" on="1"/>
        <pt x="164" y="-31" on="0"/>
        <pt x="123" y="-28" on="0"/>
        <pt x="83" y="-19" on="0"/>
        <pt x="48" y="-1" on="0"/>
        <pt x="41" y="14" on="1"/>
        <pt x="29" y="31" on="0"/>
        <pt x="10" y="83" on="0"/>
        <pt x="4" y="109" on="1"/>
        <pt x="-20" y="90" on="0"/>
        <pt x="-45" y="67" on="0"/>
        <pt x="-61" y="54" on="0"/>
        <pt x="-73" y="49" on="0"/>
        <pt x="-82" y="49" on="1"/>
        <pt x="-87" y="49" on="0"/>
        <pt x="-102" y="49" on="0"/>
        <pt x="-113" y="51" on="1"/>
        <pt x="-128" y="53" on="0"/>
        <pt x="-145" y="87" on="0"/>
        <pt x="-145" y="109" on="1"/>
        <pt x="-145" y="132" on="0"/>
        <pt x="-137" y="152" on="1"/>
        <pt x="-130" y="170" on="0"/>
        <pt x="-68" y="269" on="0"/>
        <pt x="29" y="410" on="0"/>
        <pt x="154" y="579" on="0"/>
        <pt x="223" y="666" on="1"/>
        <pt x="155" y="659" on="0"/>
        <pt x="48" y="651" on="0"/>
        <pt x="31" y="651" on="1"/>
        <pt x="26" y="651" on="0"/>
        <pt x="26" y="660" on="0"/>
        <pt x="32" y="674" on="0"/>
        <pt x="41" y="689" on="0"/>
        <pt x="45" y="694" on="1"/>
        <pt x="57" y="717" on="1"/>
        <pt x="59" y="719" on="0"/>
        <pt x="51" y="730" on="0"/>
        <pt x="57" y="739" on="1"/>
        <pt x="79" y="750" on="0"/>
        <pt x="117" y="761" on="1"/>
        <pt x="149" y="771" on="0"/>
        <pt x="254" y="792" on="0"/>
        <pt x="332" y="801" on="1"/>
        <pt x="383" y="865" on="0"/>
        <pt x="493" y="997" on="0"/>
        <pt x="594" y="1117" on="0"/>
        <pt x="679" y="1216" on="0"/>
        <pt x="707" y="1245" on="1"/>
        <pt x="648" y="1231" on="0"/>
        <pt x="515" y="1186" on="0"/>
        <pt x="436" y="1155" on="1"/>
        <pt x="434" y="1155" on="0"/>
        <pt x="434" y="1153" on="0"/>
        <pt x="432" y="1153" on="1"/>
        <pt x="423" y="1153" on="0"/>
        <pt x="410" y="1184" on="0"/>
        <pt x="410" y="1198" on="1"/>
        <pt x="410" y="1206" on="0"/>
        <pt x="413" y="1218" on="0"/>
        <pt x="418" y="1221" on="1"/>
        <pt x="430" y="1229" on="0"/>
        <pt x="449" y="1247" on="0"/>
        <pt x="471" y="1264" on="0"/>
        <pt x="498" y="1280" on="0"/>
        <pt x="516" y="1288" on="1"/>
        <pt x="533" y="1296" on="0"/>
        <pt x="617" y="1335" on="0"/>
        <pt x="743" y="1376" on="0"/>
        <pt x="904" y="1407" on="0"/>
        <pt x="997" y="1407" on="1"/>
        <pt x="1010" y="1407" on="0"/>
        <pt x="1036" y="1405" on="0"/>
        <pt x="1049" y="1405" on="1"/>
        <pt x="1248" y="1393" on="0"/>
        <pt x="1470" y="1276" on="0"/>
        <pt x="1483" y="1188" on="1"/>
        <pt x="1500" y="1146" on="0"/>
        <pt x="1516" y="1042" on="0"/>
        <pt x="1516" y="991" on="1"/>
        <pt x="1516" y="979" on="0"/>
        <pt x="1515" y="949" on="0"/>
      </contour>
      <contour>
        <pt x="834" y="1188" on="1"/>
        <pt x="829" y="1181" on="0"/>
        <pt x="774" y="1109" on="0"/>
        <pt x="692" y="1002" on="0"/>
        <pt x="592" y="874" on="0"/>
        <pt x="543" y="811" on="1"/>
        <pt x="560" y="811" on="0"/>
        <pt x="594" y="813" on="0"/>
        <pt x="614" y="813" on="1"/>
        <pt x="653" y="813" on="0"/>
        <pt x="718" y="812" on="0"/>
        <pt x="765" y="809" on="0"/>
        <pt x="788" y="803" on="0"/>
        <pt x="784" y="797" on="1"/>
        <pt x="781" y="792" on="0"/>
        <pt x="766" y="781" on="0"/>
        <pt x="758" y="772" on="1"/>
        <pt x="753" y="766" on="0"/>
        <pt x="749" y="753" on="0"/>
        <pt x="752" y="750" on="1"/>
        <pt x="750" y="745" on="1"/>
        <pt x="748" y="742" on="0"/>
        <pt x="723" y="725" on="0"/>
        <pt x="705" y="700" on="1"/>
        <pt x="700" y="697" on="0"/>
        <pt x="701" y="693" on="0"/>
        <pt x="696" y="690" on="1"/>
        <pt x="694" y="687" on="0"/>
        <pt x="669" y="678" on="0"/>
        <pt x="635" y="678" on="1"/>
        <pt x="434" y="678" on="1"/>
        <pt x="360" y="586" on="1"/>
        <pt x="342" y="564" on="0"/>
        <pt x="294" y="499" on="0"/>
        <pt x="240" y="423" on="0"/>
        <pt x="183" y="339" on="0"/>
        <pt x="156" y="299" on="1"/>
        <pt x="193" y="316" on="0"/>
        <pt x="250" y="336" on="0"/>
        <pt x="256" y="336" on="1"/>
        <pt x="258" y="336" on="0"/>
        <pt x="274" y="314" on="0"/>
        <pt x="274" y="305" on="1"/>
        <pt x="274" y="303" on="0"/>
        <pt x="272" y="298" on="0"/>
        <pt x="272" y="295" on="1"/>
        <pt x="283" y="295" on="0"/>
        <pt x="289" y="290" on="0"/>
        <pt x="289" y="287" on="1"/>
        <pt x="289" y="281" on="0"/>
        <pt x="285" y="273" on="1"/>
        <pt x="283" y="269" on="0"/>
        <pt x="281" y="266" on="1"/>
        <pt x="274" y="255" on="0"/>
        <pt x="239" y="231" on="0"/>
        <pt x="199" y="203" on="0"/>
        <pt x="162" y="173" on="0"/>
        <pt x="152" y="158" on="1"/>
        <pt x="163" y="156" on="0"/>
        <pt x="187" y="154" on="0"/>
        <pt x="203" y="154" on="1"/>
        <pt x="237" y="154" on="0"/>
        <pt x="324" y="167" on="0"/>
        <pt x="436" y="201" on="0"/>
        <pt x="575" y="260" on="0"/>
        <pt x="659" y="305" on="1"/>
        <pt x="755" y="356" on="0"/>
        <pt x="943" y="487" on="0"/>
        <pt x="1112" y="636" on="0"/>
        <pt x="1256" y="795" on="0"/>
        <pt x="1363" y="951" on="0"/>
        <pt x="1427" y="1098" on="0"/>
        <pt x="1430" y="1161" on="1"/>
        <pt x="1407" y="1209" on="0"/>
        <pt x="1244" y="1264" on="0"/>
        <pt x="1090" y="1276" on="1"/>
        <pt x="1064" y="1278" on="0"/>
        <pt x="1009" y="1280" on="0"/>
        <pt x="981" y="1280" on="1"/>
        <pt x="933" y="1280" on="0"/>
        <pt x="831" y="1272" on="0"/>
        <pt x="772" y="1260" on="1"/>
        <pt x="783" y="1250" on="0"/>
        <pt x="807" y="1228" on="0"/>
        <pt x="821" y="1219" on="1"/>
        <pt x="831" y="1212" on="0"/>
        <pt x="842" y="1209" on="0"/>
        <pt x="842" y="1204" on="1"/>
        <pt x="842" y="1199" on="0"/>
      </contour>
    </TTGlyph>
    <TTGlyph name="E" xMin="-164" yMin="-37" xMax="1583" yMax="1427">
      <contour>
        <pt x="985" y="109" on="1"/>
        <pt x="985" y="104" on="0"/>
        <pt x="981" y="104" on="1"/>
        <pt x="975" y="104" on="0"/>
        <pt x="975" y="100" on="1"/>
        <pt x="975" y="95" on="0"/>
        <pt x="985" y="74" on="0"/>
        <pt x="985" y="63" on="1"/>
        <pt x="985" y="53" on="0"/>
        <pt x="975" y="43" on="1"/>
        <pt x="968" y="38" on="0"/>
        <pt x="957" y="28" on="0"/>
        <pt x="944" y="20" on="0"/>
        <pt x="927" y="16" on="0"/>
        <pt x="913" y="16" on="1"/>
        <pt x="895" y="16" on="0"/>
        <pt x="834" y="26" on="0"/>
        <pt x="786" y="37" on="1"/>
        <pt x="759" y="43" on="0"/>
        <pt x="698" y="43" on="1"/>
        <pt x="645" y="43" on="0"/>
        <pt x="502" y="35" on="0"/>
        <pt x="347" y="22" on="0"/>
        <pt x="190" y="6" on="0"/>
        <pt x="55" y="-11" on="0"/>
        <pt x="-48" y="-28" on="0"/>
        <pt x="-72" y="-35" on="1"/>
        <pt x="-76" y="-37" on="0"/>
        <pt x="-82" y="-37" on="1"/>
        <pt x="-93" y="-37" on="0"/>
        <pt x="-111" y="-25" on="0"/>
        <pt x="-125" y="-5" on="0"/>
        <pt x="-134" y="18" on="0"/>
        <pt x="-135" y="29" on="1"/>
        <pt x="-149" y="50" on="0"/>
        <pt x="-164" y="101" on="0"/>
        <pt x="-164" y="121" on="1"/>
        <pt x="-164" y="127" on="0"/>
        <pt x="-163" y="138" on="0"/>
        <pt x="-160" y="143" on="1"/>
        <pt x="-149" y="167" on="0"/>
        <pt x="-83" y="266" on="0"/>
        <pt x="15" y="400" on="0"/>
        <pt x="136" y="560" on="0"/>
        <pt x="201" y="645" on="1"/>
        <pt x="201" y="647" on="0"/>
        <pt x="199" y="649" on="0"/>
        <pt x="199" y="651" on="1"/>
        <pt x="197" y="658" on="0"/>
        <pt x="183" y="671" on="0"/>
        <pt x="168" y="685" on="0"/>
        <pt x="156" y="698" on="0"/>
        <pt x="156" y="705" on="1"/>
        <pt x="156" y="711" on="0"/>
        <pt x="162" y="717" on="1"/>
        <pt x="170" y="725" on="0"/>
        <pt x="236" y="747" on="0"/>
        <pt x="289" y="758" on="1"/>
        <pt x="340" y="822" on="0"/>
        <pt x="439" y="947" on="0"/>
        <pt x="530" y="1061" on="0"/>
        <pt x="611" y="1160" on="0"/>
        <pt x="643" y="1198" on="1"/>
        <pt x="627" y="1206" on="1"/>
        <pt x="620" y="1207" on="0"/>
        <pt x="614" y="1213" on="0"/>
        <pt x="610" y="1220" on="0"/>
        <pt x="605" y="1227" on="0"/>
        <pt x="598" y="1229" on="1"/>
        <pt x="594" y="1230" on="0"/>
        <pt x="588" y="1242" on="0"/>
        <pt x="583" y="1259" on="0"/>
        <pt x="580" y="1278" on="0"/>
        <pt x="580" y="1286" on="1"/>
        <pt x="580" y="1294" on="0"/>
        <pt x="584" y="1298" on="1"/>
        <pt x="590" y="1301" on="0"/>
        <pt x="590" y="1305" on="1"/>
        <pt x="590" y="1310" on="0"/>
        <pt x="588" y="1318" on="0"/>
        <pt x="588" y="1323" on="1"/>
        <pt x="588" y="1329" on="0"/>
        <pt x="597" y="1346" on="0"/>
        <pt x="614" y="1354" on="1"/>
        <pt x="632" y="1363" on="0"/>
        <pt x="712" y="1380" on="0"/>
        <pt x="821" y="1397" on="0"/>
        <pt x="954" y="1411" on="0"/>
        <pt x="1096" y="1421" on="0"/>
        <pt x="1242" y="1427" on="0"/>
        <pt x="1309" y="1427" on="1"/>
        <pt x="1371" y="1427" on="0"/>
        <pt x="1480" y="1421" on="0"/>
        <pt x="1522" y="1415" on="1"/>
        <pt x="1548" y="1410" on="0"/>
        <pt x="1561" y="1394" on="0"/>
        <pt x="1561" y="1384" on="1"/>
        <pt x="1561" y="1373" on="0"/>
        <pt x="1561" y="1366" on="0"/>
        <pt x="1563" y="1366" on="1"/>
        <pt x="1569" y="1363" on="0"/>
        <pt x="1583" y="1361" on="0"/>
        <pt x="1583" y="1356" on="1"/>
        <pt x="1583" y="1354" on="0"/>
        <pt x="1579" y="1350" on="1"/>
        <pt x="1573" y="1344" on="0"/>
        <pt x="1568" y="1338" on="0"/>
        <pt x="1565" y="1333" on="0"/>
        <pt x="1563" y="1325" on="0"/>
        <pt x="1561" y="1317" on="1"/>
        <pt x="1554" y="1300" on="0"/>
        <pt x="1520" y="1277" on="0"/>
        <pt x="1489" y="1272" on="1"/>
        <pt x="1479" y="1271" on="0"/>
        <pt x="1402" y="1265" on="0"/>
        <pt x="1289" y="1258" on="0"/>
        <pt x="1150" y="1250" on="0"/>
        <pt x="1010" y="1239" on="0"/>
        <pt x="878" y="1227" on="0"/>
        <pt x="827" y="1221" on="1"/>
        <pt x="795" y="1179" on="0"/>
        <pt x="713" y="1073" on="0"/>
        <pt x="626" y="960" on="0"/>
        <pt x="541" y="846" on="0"/>
        <pt x="506" y="797" on="1"/>
        <pt x="600" y="811" on="0"/>
        <pt x="797" y="829" on="0"/>
        <pt x="881" y="829" on="1"/>
        <pt x="919" y="829" on="0"/>
        <pt x="986" y="824" on="0"/>
        <pt x="1014" y="819" on="1"/>
        <pt x="1034" y="815" on="0"/>
        <pt x="1063" y="794" on="0"/>
        <pt x="1081" y="766" on="0"/>
        <pt x="1090" y="737" on="0"/>
        <pt x="1090" y="725" on="1"/>
        <pt x="1090" y="716" on="0"/>
        <pt x="1086" y="702" on="0"/>
        <pt x="1081" y="700" on="1"/>
        <pt x="1073" y="695" on="0"/>
        <pt x="1044" y="683" on="0"/>
        <pt x="1010" y="673" on="0"/>
        <pt x="972" y="664" on="0"/>
        <pt x="954" y="662" on="1"/>
        <pt x="944" y="660" on="0"/>
        <pt x="871" y="653" on="0"/>
        <pt x="769" y="645" on="0"/>
        <pt x="646" y="637" on="0"/>
        <pt x="526" y="630" on="0"/>
        <pt x="419" y="625" on="0"/>
        <pt x="383" y="625" on="1"/>
        <pt x="349" y="577" on="0"/>
        <pt x="257" y="443" on="0"/>
        <pt x="161" y="303" on="0"/>
        <pt x="75" y="171" on="0"/>
        <pt x="47" y="125" on="1"/>
        <pt x="97" y="137" on="0"/>
        <pt x="218" y="161" on="0"/>
        <pt x="293" y="172" on="1"/>
        <pt x="355" y="182" on="0"/>
        <pt x="481" y="200" on="0"/>
        <pt x="600" y="213" on="0"/>
        <pt x="709" y="221" on="0"/>
        <pt x="754" y="221" on="1"/>
        <pt x="828" y="221" on="0"/>
        <pt x="870" y="209" on="1"/>
        <pt x="890" y="203" on="0"/>
        <pt x="931" y="174" on="0"/>
        <pt x="964" y="142" on="0"/>
        <pt x="985" y="114" on="0"/>
      </contour>
    </TTGlyph>
    <TTGlyph name="Eacute" xMin="-164" yMin="-37" xMax="1587" yMax="1856">
      <component glyphName="E" x="0" y="0" flags="0x204"/>
      <component glyphName="acute" x="686" y="588" flags="0x4"/>
    </TTGlyph>
    <TTGlyph name="Ebreve" xMin="-164" yMin="-37" xMax="1583" yMax="1858">
      <component glyphName="E" x="0" y="0" flags="0x204"/>
      <component glyphName="breve" x="627" y="588" flags="0x4"/>
    </TTGlyph>
    <TTGlyph name="Ecaron" xMin="-164" yMin="-37" xMax="1591" yMax="1852">
      <component glyphName="E" x="0" y="0" flags="0x204"/>
      <component glyphName="caron" x="641" y="588" flags="0x4"/>
    </TTGlyph>
    <TTGlyph name="Ecircumflex" xMin="-164" yMin="-37" xMax="1583" yMax="1852">
      <component glyphName="E" x="0" y="0" flags="0x204"/>
      <component glyphName="circumflex" x="637" y="588" flags="0x4"/>
    </TTGlyph>
    <TTGlyph name="Edieresis" xMin="-164" yMin="-37" xMax="1583" yMax="1774">
      <component glyphName="E" x="0" y="0" flags="0x204"/>
      <component glyphName="dieresis" x="655" y="588" flags="0x4"/>
    </TTGlyph>
    <TTGlyph name="Edotaccent" xMin="-164" yMin="-37" xMax="1583" yMax="1819">
      <component glyphName="E" x="0" y="0" flags="0x204"/>
      <component glyphName="dotaccent" x="651" y="588" flags="0x4"/>
    </TTGlyph>
    <TTGlyph name="Egrave" xMin="-164" yMin="-37" xMax="1583" yMax="1848">
      <component glyphName="E" x="0" y="0" flags="0x204"/>
      <component glyphName="grave" x="549" y="588" flags="0x4"/>
    </TTGlyph>
    <TTGlyph name="Emacron" xMin="-164" yMin="-37" xMax="1583" yMax="1759">
      <component glyphName="E" x="0" y="0" flags="0x204"/>
      <component glyphName="macron" x="653" y="588" flags="0x4"/>
    </TTGlyph>
    <TTGlyph name="Eng" xMin="-205" yMin="-588" xMax="1657" yMax="1419">
      <contour>
        <pt x="127" y="-387" on="1"/>
        <pt x="171" y="-387" on="0"/>
        <pt x="287" y="-306" on="0"/>
        <pt x="420" y="-170" on="0"/>
        <pt x="565" y="11" on="0"/>
        <pt x="637" y="111" on="1"/>
        <pt x="634" y="137" on="0"/>
        <pt x="633" y="198" on="0"/>
        <pt x="633" y="233" on="1"/>
        <pt x="633" y="315" on="0"/>
        <pt x="641" y="505" on="0"/>
        <pt x="647" y="596" on="1"/>
        <pt x="651" y="664" on="0"/>
        <pt x="659" y="816" on="0"/>
        <pt x="667" y="963" on="0"/>
        <pt x="674" y="1096" on="0"/>
        <pt x="678" y="1145" on="1"/>
        <pt x="500" y="889" on="1"/>
        <pt x="477" y="856" on="0"/>
        <pt x="404" y="744" on="0"/>
        <pt x="318" y="612" on="0"/>
        <pt x="226" y="471" on="0"/>
        <pt x="146" y="345" on="0"/>
        <pt x="84" y="246" on="0"/>
        <pt x="70" y="223" on="1"/>
        <pt x="20" y="137" on="0"/>
        <pt x="-69" y="5" on="0"/>
        <pt x="-88" y="-37" on="1"/>
        <pt x="-93" y="-48" on="0"/>
        <pt x="-97" y="-57" on="0"/>
        <pt x="-100" y="-57" on="1"/>
        <pt x="-103" y="-57" on="0"/>
        <pt x="-114" y="-52" on="0"/>
        <pt x="-125" y="-49" on="1"/>
        <pt x="-148" y="-45" on="0"/>
        <pt x="-154" y="-32" on="0"/>
        <pt x="-158" y="-23" on="1"/>
        <pt x="-161" y="-18" on="0"/>
        <pt x="-173" y="-18" on="0"/>
        <pt x="-176" y="-18" on="1"/>
        <pt x="-185" y="-18" on="0"/>
        <pt x="-195" y="-8" on="0"/>
        <pt x="-201" y="7" on="0"/>
        <pt x="-204" y="23" on="0"/>
        <pt x="-205" y="29" on="1"/>
        <pt x="-185" y="81" on="0"/>
        <pt x="-112" y="215" on="0"/>
        <pt x="-17" y="366" on="0"/>
        <pt x="96" y="530" on="0"/>
        <pt x="215" y="694" on="0"/>
        <pt x="335" y="851" on="0"/>
        <pt x="391" y="920" on="1"/>
        <pt x="475" y="1024" on="0"/>
        <pt x="593" y="1174" on="0"/>
        <pt x="670" y="1274" on="0"/>
        <pt x="712" y="1328" on="0"/>
        <pt x="719" y="1337" on="1"/>
        <pt x="724" y="1344" on="0"/>
        <pt x="730" y="1355" on="0"/>
        <pt x="735" y="1358" on="1"/>
        <pt x="740" y="1367" on="0"/>
        <pt x="749" y="1379" on="0"/>
        <pt x="752" y="1384" on="1"/>
        <pt x="759" y="1393" on="0"/>
        <pt x="774" y="1393" on="1"/>
        <pt x="779" y="1393" on="0"/>
        <pt x="789" y="1389" on="0"/>
        <pt x="791" y="1384" on="1"/>
        <pt x="797" y="1366" on="0"/>
        <pt x="801" y="1366" on="1"/>
        <pt x="809" y="1377" on="0"/>
        <pt x="812" y="1386" on="0"/>
        <pt x="823" y="1391" on="1"/>
        <pt x="829" y="1393" on="0"/>
        <pt x="835" y="1394" on="0"/>
        <pt x="838" y="1397" on="0"/>
        <pt x="841" y="1402" on="0"/>
        <pt x="846" y="1409" on="1"/>
        <pt x="853" y="1419" on="0"/>
        <pt x="862" y="1419" on="1"/>
        <pt x="868" y="1419" on="0"/>
        <pt x="879" y="1407" on="0"/>
        <pt x="879" y="1393" on="1"/>
        <pt x="878" y="1381" on="0"/>
        <pt x="877" y="1314" on="0"/>
        <pt x="874" y="1219" on="0"/>
        <pt x="870" y="1104" on="0"/>
        <pt x="865" y="987" on="0"/>
        <pt x="858" y="876" on="0"/>
        <pt x="854" y="831" on="1"/>
        <pt x="849" y="774" on="0"/>
        <pt x="847" y="640" on="0"/>
        <pt x="846" y="505" on="0"/>
        <pt x="845" y="381" on="0"/>
        <pt x="842" y="336" on="1"/>
        <pt x="864" y="366" on="0"/>
        <pt x="931" y="458" on="0"/>
        <pt x="1010" y="566" on="0"/>
        <pt x="1094" y="683" on="0"/>
        <pt x="1175" y="795" on="0"/>
        <pt x="1246" y="894" on="0"/>
        <pt x="1272" y="930" on="1"/>
        <pt x="1317" y="992" on="0"/>
        <pt x="1412" y="1123" on="0"/>
        <pt x="1490" y="1235" on="0"/>
        <pt x="1543" y="1315" on="0"/>
        <pt x="1548" y="1327" on="1"/>
        <pt x="1559" y="1350" on="0"/>
        <pt x="1581" y="1358" on="0"/>
        <pt x="1593" y="1358" on="1"/>
        <pt x="1598" y="1358" on="0"/>
        <pt x="1602" y="1351" on="0"/>
        <pt x="1602" y="1346" on="1"/>
        <pt x="1602" y="1337" on="0"/>
        <pt x="1604" y="1337" on="1"/>
        <pt x="1607" y="1337" on="0"/>
        <pt x="1623" y="1352" on="0"/>
        <pt x="1628" y="1352" on="1"/>
        <pt x="1634" y="1352" on="0"/>
        <pt x="1644" y="1344" on="0"/>
        <pt x="1649" y="1331" on="1"/>
        <pt x="1649" y="1326" on="0"/>
        <pt x="1650" y="1316" on="0"/>
        <pt x="1652" y="1312" on="1"/>
        <pt x="1653" y="1307" on="0"/>
        <pt x="1655" y="1303" on="1"/>
        <pt x="1657" y="1298" on="0"/>
        <pt x="1657" y="1290" on="1"/>
        <pt x="1657" y="1282" on="0"/>
        <pt x="1650" y="1260" on="0"/>
        <pt x="1642" y="1235" on="1"/>
        <pt x="1635" y="1210" on="0"/>
        <pt x="1563" y="1094" on="0"/>
        <pt x="1452" y="931" on="0"/>
        <pt x="1309" y="731" on="0"/>
        <pt x="1150" y="517" on="0"/>
        <pt x="984" y="298" on="0"/>
        <pt x="905" y="197" on="1"/>
        <pt x="882" y="167" on="0"/>
        <pt x="810" y="68" on="0"/>
        <pt x="720" y="-54" on="0"/>
        <pt x="615" y="-189" on="0"/>
        <pt x="502" y="-322" on="0"/>
        <pt x="384" y="-442" on="0"/>
        <pt x="268" y="-534" on="0"/>
        <pt x="156" y="-588" on="0"/>
        <pt x="106" y="-588" on="1"/>
        <pt x="95" y="-588" on="0"/>
        <pt x="57" y="-552" on="0"/>
        <pt x="37" y="-514" on="1"/>
        <pt x="8" y="-489" on="0"/>
        <pt x="-25" y="-394" on="0"/>
        <pt x="-25" y="-338" on="1"/>
        <pt x="-25" y="-298" on="0"/>
        <pt x="11" y="-198" on="0"/>
        <pt x="77" y="-106" on="0"/>
        <pt x="169" y="-33" on="0"/>
        <pt x="225" y="-20" on="1"/>
        <pt x="237" y="-20" on="0"/>
        <pt x="253" y="-44" on="0"/>
        <pt x="261" y="-75" on="0"/>
        <pt x="264" y="-106" on="0"/>
        <pt x="264" y="-113" on="1"/>
        <pt x="264" y="-121" on="0"/>
        <pt x="261" y="-142" on="0"/>
        <pt x="255" y="-162" on="0"/>
        <pt x="245" y="-176" on="0"/>
        <pt x="238" y="-176" on="1"/>
        <pt x="228" y="-176" on="0"/>
        <pt x="219" y="-162" on="0"/>
        <pt x="211" y="-162" on="1"/>
        <pt x="205" y="-162" on="0"/>
        <pt x="173" y="-203" on="0"/>
        <pt x="140" y="-267" on="0"/>
        <pt x="115" y="-343" on="0"/>
        <pt x="115" y="-377" on="1"/>
        <pt x="115" y="-385" on="1"/>
        <pt x="119" y="-387" on="0"/>
      </contour>
    </TTGlyph>
    <TTGlyph name="Eogonek" xMin="-164" yMin="-420" xMax="1583" yMax="1427">
      <contour>
        <pt x="985" y="109" on="1"/>
        <pt x="985" y="104" on="0"/>
        <pt x="981" y="104" on="1"/>
        <pt x="975" y="104" on="0"/>
        <pt x="975" y="100" on="1"/>
        <pt x="975" y="95" on="0"/>
        <pt x="985" y="74" on="0"/>
        <pt x="985" y="63" on="1"/>
        <pt x="985" y="53" on="0"/>
        <pt x="975" y="43" on="1"/>
        <pt x="968" y="38" on="0"/>
        <pt x="957" y="31" on="0"/>
        <pt x="944" y="25" on="0"/>
        <pt x="927" y="19" on="0"/>
        <pt x="913" y="16" on="1"/>
        <pt x="881" y="9" on="0"/>
        <pt x="807" y="-22" on="0"/>
        <pt x="735" y="-62" on="0"/>
        <pt x="668" y="-110" on="0"/>
        <pt x="617" y="-160" on="0"/>
        <pt x="586" y="-211" on="0"/>
        <pt x="586" y="-233" on="1"/>
        <pt x="586" y="-261" on="0"/>
        <pt x="628" y="-293" on="0"/>
        <pt x="666" y="-293" on="1"/>
        <pt x="688" y="-293" on="0"/>
        <pt x="739" y="-281" on="0"/>
        <pt x="791" y="-263" on="0"/>
        <pt x="839" y="-242" on="0"/>
        <pt x="858" y="-233" on="1"/>
        <pt x="861" y="-231" on="0"/>
        <pt x="874" y="-227" on="0"/>
        <pt x="881" y="-227" on="1"/>
        <pt x="886" y="-227" on="0"/>
        <pt x="893" y="-234" on="0"/>
        <pt x="893" y="-242" on="1"/>
        <pt x="893" y="-252" on="0"/>
        <pt x="885" y="-273" on="0"/>
        <pt x="876" y="-294" on="0"/>
        <pt x="868" y="-312" on="0"/>
        <pt x="868" y="-319" on="1"/>
        <pt x="868" y="-325" on="0"/>
        <pt x="874" y="-331" on="0"/>
        <pt x="881" y="-336" on="0"/>
        <pt x="887" y="-342" on="0"/>
        <pt x="887" y="-346" on="1"/>
        <pt x="887" y="-360" on="0"/>
        <pt x="866" y="-380" on="0"/>
        <pt x="854" y="-383" on="1"/>
        <pt x="826" y="-391" on="0"/>
        <pt x="776" y="-404" on="0"/>
        <pt x="722" y="-414" on="0"/>
        <pt x="658" y="-420" on="0"/>
        <pt x="616" y="-420" on="1"/>
        <pt x="577" y="-420" on="0"/>
        <pt x="511" y="-404" on="0"/>
        <pt x="463" y="-371" on="0"/>
        <pt x="436" y="-321" on="0"/>
        <pt x="436" y="-287" on="1"/>
        <pt x="436" y="-232" on="0"/>
        <pt x="498" y="-134" on="0"/>
        <pt x="599" y="-52" on="0"/>
        <pt x="726" y="15" on="0"/>
        <pt x="791" y="41" on="1"/>
        <pt x="777" y="43" on="0"/>
        <pt x="723" y="43" on="0"/>
        <pt x="698" y="43" on="1"/>
        <pt x="645" y="43" on="0"/>
        <pt x="502" y="35" on="0"/>
        <pt x="347" y="22" on="0"/>
        <pt x="190" y="6" on="0"/>
        <pt x="55" y="-11" on="0"/>
        <pt x="-48" y="-28" on="0"/>
        <pt x="-72" y="-35" on="1"/>
        <pt x="-76" y="-37" on="0"/>
        <pt x="-82" y="-37" on="1"/>
        <pt x="-93" y="-37" on="0"/>
        <pt x="-111" y="-25" on="0"/>
        <pt x="-125" y="-5" on="0"/>
        <pt x="-134" y="18" on="0"/>
        <pt x="-135" y="29" on="1"/>
        <pt x="-149" y="50" on="0"/>
        <pt x="-164" y="101" on="0"/>
        <pt x="-164" y="121" on="1"/>
        <pt x="-164" y="127" on="0"/>
        <pt x="-163" y="138" on="0"/>
        <pt x="-160" y="143" on="1"/>
        <pt x="-149" y="167" on="0"/>
        <pt x="-83" y="266" on="0"/>
        <pt x="15" y="400" on="0"/>
        <pt x="136" y="560" on="0"/>
        <pt x="201" y="645" on="1"/>
        <pt x="201" y="647" on="0"/>
        <pt x="199" y="649" on="0"/>
        <pt x="199" y="651" on="1"/>
        <pt x="197" y="658" on="0"/>
        <pt x="183" y="671" on="0"/>
        <pt x="168" y="685" on="0"/>
        <pt x="156" y="698" on="0"/>
        <pt x="156" y="705" on="1"/>
        <pt x="156" y="711" on="0"/>
        <pt x="162" y="717" on="1"/>
        <pt x="170" y="725" on="0"/>
        <pt x="236" y="747" on="0"/>
        <pt x="289" y="758" on="1"/>
        <pt x="340" y="822" on="0"/>
        <pt x="439" y="947" on="0"/>
        <pt x="530" y="1061" on="0"/>
        <pt x="611" y="1160" on="0"/>
        <pt x="643" y="1198" on="1"/>
        <pt x="627" y="1206" on="1"/>
        <pt x="620" y="1207" on="0"/>
        <pt x="614" y="1213" on="0"/>
        <pt x="610" y="1220" on="0"/>
        <pt x="605" y="1227" on="0"/>
        <pt x="598" y="1229" on="1"/>
        <pt x="594" y="1230" on="0"/>
        <pt x="588" y="1242" on="0"/>
        <pt x="583" y="1259" on="0"/>
        <pt x="580" y="1278" on="0"/>
        <pt x="580" y="1286" on="1"/>
        <pt x="580" y="1294" on="0"/>
        <pt x="584" y="1298" on="1"/>
        <pt x="590" y="1301" on="0"/>
        <pt x="590" y="1305" on="1"/>
        <pt x="590" y="1310" on="0"/>
        <pt x="588" y="1318" on="0"/>
        <pt x="588" y="1323" on="1"/>
        <pt x="588" y="1329" on="0"/>
        <pt x="597" y="1346" on="0"/>
        <pt x="614" y="1354" on="1"/>
        <pt x="632" y="1363" on="0"/>
        <pt x="712" y="1380" on="0"/>
        <pt x="821" y="1397" on="0"/>
        <pt x="954" y="1411" on="0"/>
        <pt x="1096" y="1421" on="0"/>
        <pt x="1242" y="1427" on="0"/>
        <pt x="1309" y="1427" on="1"/>
        <pt x="1371" y="1427" on="0"/>
        <pt x="1480" y="1421" on="0"/>
        <pt x="1522" y="1415" on="1"/>
        <pt x="1548" y="1410" on="0"/>
        <pt x="1561" y="1394" on="0"/>
        <pt x="1561" y="1384" on="1"/>
        <pt x="1561" y="1373" on="0"/>
        <pt x="1561" y="1366" on="0"/>
        <pt x="1563" y="1366" on="1"/>
        <pt x="1569" y="1363" on="0"/>
        <pt x="1583" y="1361" on="0"/>
        <pt x="1583" y="1356" on="1"/>
        <pt x="1583" y="1354" on="0"/>
        <pt x="1579" y="1350" on="1"/>
        <pt x="1573" y="1344" on="0"/>
        <pt x="1568" y="1338" on="0"/>
        <pt x="1565" y="1333" on="0"/>
        <pt x="1563" y="1325" on="0"/>
        <pt x="1561" y="1317" on="1"/>
        <pt x="1554" y="1300" on="0"/>
        <pt x="1520" y="1277" on="0"/>
        <pt x="1489" y="1272" on="1"/>
        <pt x="1479" y="1271" on="0"/>
        <pt x="1402" y="1265" on="0"/>
        <pt x="1289" y="1258" on="0"/>
        <pt x="1150" y="1250" on="0"/>
        <pt x="1010" y="1239" on="0"/>
        <pt x="878" y="1227" on="0"/>
        <pt x="827" y="1221" on="1"/>
        <pt x="795" y="1179" on="0"/>
        <pt x="713" y="1073" on="0"/>
        <pt x="626" y="960" on="0"/>
        <pt x="541" y="846" on="0"/>
        <pt x="506" y="797" on="1"/>
        <pt x="600" y="811" on="0"/>
        <pt x="797" y="829" on="0"/>
        <pt x="881" y="829" on="1"/>
        <pt x="919" y="829" on="0"/>
        <pt x="986" y="824" on="0"/>
        <pt x="1014" y="819" on="1"/>
        <pt x="1034" y="815" on="0"/>
        <pt x="1063" y="794" on="0"/>
        <pt x="1081" y="766" on="0"/>
        <pt x="1090" y="737" on="0"/>
        <pt x="1090" y="725" on="1"/>
        <pt x="1090" y="716" on="0"/>
        <pt x="1086" y="702" on="0"/>
        <pt x="1081" y="700" on="1"/>
        <pt x="1073" y="695" on="0"/>
        <pt x="1044" y="683" on="0"/>
        <pt x="1010" y="673" on="0"/>
        <pt x="972" y="664" on="0"/>
        <pt x="954" y="662" on="1"/>
        <pt x="944" y="660" on="0"/>
        <pt x="871" y="653" on="0"/>
        <pt x="769" y="645" on="0"/>
        <pt x="646" y="637" on="0"/>
        <pt x="526" y="630" on="0"/>
        <pt x="419" y="625" on="0"/>
        <pt x="383" y="625" on="1"/>
        <pt x="349" y="577" on="0"/>
        <pt x="257" y="443" on="0"/>
        <pt x="161" y="303" on="0"/>
        <pt x="75" y="171" on="0"/>
        <pt x="47" y="125" on="1"/>
        <pt x="97" y="137" on="0"/>
        <pt x="218" y="161" on="0"/>
        <pt x="293" y="172" on="1"/>
        <pt x="355" y="182" on="0"/>
        <pt x="481" y="200" on="0"/>
        <pt x="600" y="213" on="0"/>
        <pt x="709" y="221" on="0"/>
        <pt x="754" y="221" on="1"/>
        <pt x="828" y="221" on="0"/>
        <pt x="870" y="209" on="1"/>
        <pt x="890" y="203" on="0"/>
        <pt x="931" y="174" on="0"/>
        <pt x="964" y="142" on="0"/>
        <pt x="985" y="114" on="0"/>
      </contour>
    </TTGlyph>
    <TTGlyph name="Eth" xMin="-145" yMin="-31" xMax="1516" yMax="1407">
      <contour>
        <pt x="1511" y="932" on="1"/>
        <pt x="1508" y="910" on="0"/>
        <pt x="1469" y="820" on="0"/>
        <pt x="1398" y="699" on="0"/>
        <pt x="1292" y="555" on="0"/>
        <pt x="1152" y="406" on="0"/>
        <pt x="975" y="258" on="0"/>
        <pt x="761" y="128" on="0"/>
        <pt x="508" y="25" on="0"/>
        <pt x="362" y="-6" on="1"/>
        <pt x="301" y="-20" on="0"/>
        <pt x="210" y="-31" on="0"/>
        <pt x="178" y="-31" on="1"/>
        <pt x="164" y="-31" on="0"/>
        <pt x="123" y="-28" on="0"/>
        <pt x="83" y="-19" on="0"/>
        <pt x="48" y="-1" on="0"/>
        <pt x="41" y="14" on="1"/>
        <pt x="29" y="31" on="0"/>
        <pt x="10" y="83" on="0"/>
        <pt x="4" y="109" on="1"/>
        <pt x="-20" y="90" on="0"/>
        <pt x="-45" y="67" on="0"/>
        <pt x="-61" y="54" on="0"/>
        <pt x="-73" y="49" on="0"/>
        <pt x="-82" y="49" on="1"/>
        <pt x="-87" y="49" on="0"/>
        <pt x="-102" y="49" on="0"/>
        <pt x="-113" y="51" on="1"/>
        <pt x="-128" y="53" on="0"/>
        <pt x="-145" y="87" on="0"/>
        <pt x="-145" y="109" on="1"/>
        <pt x="-145" y="132" on="0"/>
        <pt x="-137" y="152" on="1"/>
        <pt x="-130" y="170" on="0"/>
        <pt x="-68" y="269" on="0"/>
        <pt x="29" y="410" on="0"/>
        <pt x="154" y="579" on="0"/>
        <pt x="223" y="666" on="1"/>
        <pt x="155" y="659" on="0"/>
        <pt x="48" y="651" on="0"/>
        <pt x="31" y="651" on="1"/>
        <pt x="26" y="651" on="0"/>
        <pt x="26" y="660" on="0"/>
        <pt x="32" y="674" on="0"/>
        <pt x="41" y="689" on="0"/>
        <pt x="45" y="694" on="1"/>
        <pt x="57" y="717" on="1"/>
        <pt x="59" y="719" on="0"/>
        <pt x="51" y="730" on="0"/>
        <pt x="57" y="739" on="1"/>
        <pt x="79" y="750" on="0"/>
        <pt x="117" y="761" on="1"/>
        <pt x="149" y="771" on="0"/>
        <pt x="254" y="792" on="0"/>
        <pt x="332" y="801" on="1"/>
        <pt x="383" y="865" on="0"/>
        <pt x="493" y="997" on="0"/>
        <pt x="594" y="1117" on="0"/>
        <pt x="679" y="1216" on="0"/>
        <pt x="707" y="1245" on="1"/>
        <pt x="648" y="1231" on="0"/>
        <pt x="515" y="1186" on="0"/>
        <pt x="436" y="1155" on="1"/>
        <pt x="434" y="1155" on="0"/>
        <pt x="434" y="1153" on="0"/>
        <pt x="432" y="1153" on="1"/>
        <pt x="423" y="1153" on="0"/>
        <pt x="410" y="1184" on="0"/>
        <pt x="410" y="1198" on="1"/>
        <pt x="410" y="1206" on="0"/>
        <pt x="413" y="1218" on="0"/>
        <pt x="418" y="1221" on="1"/>
        <pt x="430" y="1229" on="0"/>
        <pt x="449" y="1247" on="0"/>
        <pt x="471" y="1264" on="0"/>
        <pt x="498" y="1280" on="0"/>
        <pt x="516" y="1288" on="1"/>
        <pt x="533" y="1296" on="0"/>
        <pt x="617" y="1335" on="0"/>
        <pt x="743" y="1376" on="0"/>
        <pt x="904" y="1407" on="0"/>
        <pt x="997" y="1407" on="1"/>
        <pt x="1010" y="1407" on="0"/>
        <pt x="1036" y="1405" on="0"/>
        <pt x="1049" y="1405" on="1"/>
        <pt x="1248" y="1393" on="0"/>
        <pt x="1470" y="1276" on="0"/>
        <pt x="1483" y="1188" on="1"/>
        <pt x="1500" y="1146" on="0"/>
        <pt x="1516" y="1042" on="0"/>
        <pt x="1516" y="991" on="1"/>
        <pt x="1516" y="979" on="0"/>
        <pt x="1515" y="949" on="0"/>
      </contour>
      <contour>
        <pt x="834" y="1188" on="1"/>
        <pt x="829" y="1181" on="0"/>
        <pt x="774" y="1109" on="0"/>
        <pt x="692" y="1002" on="0"/>
        <pt x="592" y="874" on="0"/>
        <pt x="543" y="811" on="1"/>
        <pt x="560" y="811" on="0"/>
        <pt x="594" y="813" on="0"/>
        <pt x="614" y="813" on="1"/>
        <pt x="653" y="813" on="0"/>
        <pt x="718" y="812" on="0"/>
        <pt x="765" y="809" on="0"/>
        <pt x="788" y="803" on="0"/>
        <pt x="784" y="797" on="1"/>
        <pt x="781" y="792" on="0"/>
        <pt x="766" y="781" on="0"/>
        <pt x="758" y="772" on="1"/>
        <pt x="753" y="766" on="0"/>
        <pt x="749" y="753" on="0"/>
        <pt x="752" y="750" on="1"/>
        <pt x="750" y="745" on="1"/>
        <pt x="748" y="742" on="0"/>
        <pt x="723" y="725" on="0"/>
        <pt x="705" y="700" on="1"/>
        <pt x="700" y="697" on="0"/>
        <pt x="701" y="693" on="0"/>
        <pt x="696" y="690" on="1"/>
        <pt x="694" y="687" on="0"/>
        <pt x="669" y="678" on="0"/>
        <pt x="635" y="678" on="1"/>
        <pt x="434" y="678" on="1"/>
        <pt x="360" y="586" on="1"/>
        <pt x="342" y="564" on="0"/>
        <pt x="294" y="499" on="0"/>
        <pt x="240" y="423" on="0"/>
        <pt x="183" y="339" on="0"/>
        <pt x="156" y="299" on="1"/>
        <pt x="193" y="316" on="0"/>
        <pt x="250" y="336" on="0"/>
        <pt x="256" y="336" on="1"/>
        <pt x="258" y="336" on="0"/>
        <pt x="274" y="314" on="0"/>
        <pt x="274" y="305" on="1"/>
        <pt x="274" y="303" on="0"/>
        <pt x="272" y="298" on="0"/>
        <pt x="272" y="295" on="1"/>
        <pt x="283" y="295" on="0"/>
        <pt x="289" y="290" on="0"/>
        <pt x="289" y="287" on="1"/>
        <pt x="289" y="281" on="0"/>
        <pt x="285" y="273" on="1"/>
        <pt x="283" y="269" on="0"/>
        <pt x="281" y="266" on="1"/>
        <pt x="274" y="255" on="0"/>
        <pt x="239" y="231" on="0"/>
        <pt x="199" y="203" on="0"/>
        <pt x="162" y="173" on="0"/>
        <pt x="152" y="158" on="1"/>
        <pt x="163" y="156" on="0"/>
        <pt x="187" y="154" on="0"/>
        <pt x="203" y="154" on="1"/>
        <pt x="237" y="154" on="0"/>
        <pt x="324" y="167" on="0"/>
        <pt x="436" y="201" on="0"/>
        <pt x="575" y="260" on="0"/>
        <pt x="659" y="305" on="1"/>
        <pt x="755" y="356" on="0"/>
        <pt x="943" y="487" on="0"/>
        <pt x="1112" y="636" on="0"/>
        <pt x="1256" y="795" on="0"/>
        <pt x="1363" y="951" on="0"/>
        <pt x="1427" y="1098" on="0"/>
        <pt x="1430" y="1161" on="1"/>
        <pt x="1407" y="1209" on="0"/>
        <pt x="1244" y="1264" on="0"/>
        <pt x="1090" y="1276" on="1"/>
        <pt x="1064" y="1278" on="0"/>
        <pt x="1009" y="1280" on="0"/>
        <pt x="981" y="1280" on="1"/>
        <pt x="933" y="1280" on="0"/>
        <pt x="831" y="1272" on="0"/>
        <pt x="772" y="1260" on="1"/>
        <pt x="783" y="1250" on="0"/>
        <pt x="807" y="1228" on="0"/>
        <pt x="821" y="1219" on="1"/>
        <pt x="831" y="1212" on="0"/>
        <pt x="842" y="1209" on="0"/>
        <pt x="842" y="1204" on="1"/>
        <pt x="842" y="1199" on="0"/>
      </contour>
    </TTGlyph>
    <TTGlyph name="Euro" xMin="-41" yMin="-8" xMax="1421" yMax="1399">
      <contour>
        <pt x="659" y="764" on="1"/>
        <pt x="607" y="764" on="0"/>
        <pt x="484" y="763" on="0"/>
        <pt x="418" y="760" on="1"/>
        <pt x="354" y="670" on="1"/>
        <pt x="413" y="675" on="0"/>
        <pt x="530" y="680" on="0"/>
        <pt x="584" y="680" on="1"/>
        <pt x="621" y="680" on="0"/>
        <pt x="655" y="661" on="0"/>
        <pt x="655" y="629" on="1"/>
        <pt x="655" y="616" on="0"/>
        <pt x="645" y="583" on="0"/>
        <pt x="633" y="563" on="1"/>
        <pt x="630" y="553" on="0"/>
        <pt x="616" y="553" on="1"/>
        <pt x="593" y="553" on="0"/>
        <pt x="537" y="559" on="0"/>
        <pt x="487" y="559" on="1"/>
        <pt x="436" y="559" on="0"/>
        <pt x="334" y="559" on="0"/>
        <pt x="285" y="557" on="1"/>
        <pt x="285" y="555" on="1"/>
        <pt x="229" y="458" on="0"/>
        <pt x="186" y="320" on="0"/>
        <pt x="186" y="272" on="1"/>
        <pt x="186" y="244" on="0"/>
        <pt x="193" y="223" on="1"/>
        <pt x="200" y="215" on="0"/>
        <pt x="215" y="190" on="0"/>
        <pt x="252" y="167" on="0"/>
        <pt x="321" y="150" on="0"/>
        <pt x="383" y="150" on="1"/>
        <pt x="435" y="150" on="0"/>
        <pt x="546" y="182" on="0"/>
        <pt x="656" y="232" on="0"/>
        <pt x="758" y="293" on="0"/>
        <pt x="843" y="352" on="0"/>
        <pt x="904" y="401" on="0"/>
        <pt x="918" y="414" on="1"/>
        <pt x="941" y="434" on="0"/>
        <pt x="981" y="465" on="0"/>
        <pt x="1004" y="465" on="1"/>
        <pt x="1013" y="465" on="0"/>
        <pt x="1026" y="456" on="0"/>
        <pt x="1026" y="453" on="1"/>
        <pt x="1026" y="451" on="0"/>
        <pt x="1022" y="440" on="0"/>
        <pt x="1010" y="422" on="1"/>
        <pt x="1004" y="416" on="0"/>
        <pt x="950" y="348" on="0"/>
        <pt x="860" y="253" on="0"/>
        <pt x="737" y="144" on="0"/>
        <pt x="587" y="53" on="0"/>
        <pt x="413" y="-8" on="0"/>
        <pt x="317" y="-8" on="1"/>
        <pt x="260" y="-8" on="0"/>
        <pt x="177" y="17" on="0"/>
        <pt x="121" y="54" on="0"/>
        <pt x="87" y="99" on="0"/>
        <pt x="78" y="119" on="1"/>
        <pt x="56" y="144" on="0"/>
        <pt x="31" y="214" on="0"/>
        <pt x="31" y="262" on="1"/>
        <pt x="31" y="316" on="0"/>
        <pt x="68" y="458" on="0"/>
        <pt x="113" y="549" on="1"/>
        <pt x="72" y="546" on="0"/>
        <pt x="0" y="540" on="0"/>
        <pt x="-29" y="535" on="1"/>
        <pt x="-31" y="535" on="0"/>
        <pt x="-35" y="532" on="0"/>
        <pt x="-37" y="532" on="1"/>
        <pt x="-39" y="532" on="0"/>
        <pt x="-41" y="538" on="0"/>
        <pt x="-41" y="541" on="1"/>
        <pt x="-41" y="547" on="0"/>
        <pt x="-38" y="565" on="0"/>
        <pt x="-34" y="583" on="0"/>
        <pt x="-29" y="598" on="0"/>
        <pt x="-27" y="602" on="1"/>
        <pt x="-20" y="613" on="0"/>
        <pt x="85" y="637" on="0"/>
        <pt x="166" y="649" on="1"/>
        <pt x="181" y="675" on="0"/>
        <pt x="214" y="725" on="0"/>
        <pt x="231" y="750" on="1"/>
        <pt x="188" y="746" on="0"/>
        <pt x="106" y="737" on="0"/>
        <pt x="66" y="731" on="1"/>
        <pt x="63" y="730" on="0"/>
        <pt x="61" y="730" on="1"/>
        <pt x="58" y="729" on="0"/>
        <pt x="55" y="729" on="1"/>
        <pt x="47" y="729" on="0"/>
        <pt x="47" y="733" on="1"/>
        <pt x="47" y="737" on="0"/>
        <pt x="49" y="739" on="1"/>
        <pt x="52" y="744" on="0"/>
        <pt x="72" y="759" on="0"/>
        <pt x="72" y="768" on="1"/>
        <pt x="72" y="773" on="0"/>
        <pt x="61" y="778" on="0"/>
        <pt x="61" y="784" on="1"/>
        <pt x="61" y="788" on="0"/>
        <pt x="63" y="791" on="1"/>
        <pt x="70" y="802" on="0"/>
        <pt x="196" y="841" on="0"/>
        <pt x="313" y="858" on="1"/>
        <pt x="409" y="976" on="0"/>
        <pt x="635" y="1175" on="0"/>
        <pt x="871" y="1319" on="0"/>
        <pt x="1104" y="1399" on="0"/>
        <pt x="1208" y="1399" on="1"/>
        <pt x="1257" y="1399" on="0"/>
        <pt x="1336" y="1371" on="0"/>
        <pt x="1391" y="1326" on="0"/>
        <pt x="1421" y="1268" on="0"/>
        <pt x="1421" y="1239" on="1"/>
        <pt x="1421" y="1192" on="0"/>
        <pt x="1393" y="1141" on="1"/>
        <pt x="1371" y="1103" on="0"/>
        <pt x="1307" y="1041" on="0"/>
        <pt x="1236" y="992" on="0"/>
        <pt x="1163" y="955" on="0"/>
        <pt x="1102" y="932" on="0"/>
        <pt x="1060" y="920" on="0"/>
        <pt x="1055" y="920" on="1"/>
        <pt x="1049" y="920" on="0"/>
        <pt x="1034" y="929" on="0"/>
        <pt x="1027" y="935" on="1"/>
        <pt x="1019" y="941" on="0"/>
        <pt x="1010" y="950" on="1"/>
        <pt x="999" y="949" on="0"/>
        <pt x="1027" y="962" on="0"/>
        <pt x="1081" y="989" on="0"/>
        <pt x="1150" y="1029" on="0"/>
        <pt x="1211" y="1082" on="0"/>
        <pt x="1253" y="1146" on="0"/>
        <pt x="1253" y="1184" on="1"/>
        <pt x="1253" y="1212" on="0"/>
        <pt x="1196" y="1245" on="0"/>
        <pt x="1139" y="1245" on="1"/>
        <pt x="1126" y="1245" on="0"/>
        <pt x="1063" y="1234" on="0"/>
        <pt x="973" y="1205" on="0"/>
        <pt x="858" y="1153" on="0"/>
        <pt x="729" y="1072" on="0"/>
        <pt x="588" y="956" on="0"/>
        <pt x="516" y="877" on="1"/>
        <pt x="598" y="883" on="0"/>
        <pt x="700" y="883" on="1"/>
        <pt x="728" y="883" on="0"/>
        <pt x="784" y="883" on="0"/>
        <pt x="813" y="881" on="1"/>
        <pt x="827" y="879" on="0"/>
        <pt x="844" y="834" on="0"/>
        <pt x="844" y="809" on="1"/>
        <pt x="844" y="798" on="0"/>
        <pt x="841" y="778" on="0"/>
        <pt x="836" y="770" on="1"/>
        <pt x="828" y="760" on="0"/>
        <pt x="817" y="760" on="1"/>
        <pt x="795" y="760" on="0"/>
        <pt x="716" y="764" on="0"/>
      </contour>
    </TTGlyph>
    <TTGlyph name="F" xMin="-172" yMin="-102" xMax="1526" yMax="1425">
      <contour>
        <pt x="1044" y="776" on="1"/>
        <pt x="1044" y="768" on="0"/>
        <pt x="1047" y="750" on="0"/>
        <pt x="1047" y="739" on="1"/>
        <pt x="1047" y="724" on="0"/>
        <pt x="1042" y="695" on="0"/>
        <pt x="1034" y="684" on="1"/>
        <pt x="1027" y="674" on="0"/>
        <pt x="1020" y="669" on="0"/>
        <pt x="1014" y="669" on="0"/>
        <pt x="1008" y="668" on="0"/>
        <pt x="1004" y="662" on="1"/>
        <pt x="997" y="654" on="0"/>
        <pt x="977" y="647" on="0"/>
        <pt x="965" y="647" on="1"/>
        <pt x="960" y="647" on="0"/>
        <pt x="949" y="649" on="0"/>
        <pt x="944" y="649" on="1"/>
        <pt x="882" y="649" on="0"/>
        <pt x="728" y="639" on="0"/>
        <pt x="575" y="625" on="0"/>
        <pt x="437" y="609" on="0"/>
        <pt x="391" y="604" on="1"/>
        <pt x="356" y="552" on="0"/>
        <pt x="270" y="421" on="0"/>
        <pt x="181" y="282" on="0"/>
        <pt x="96" y="146" on="0"/>
        <pt x="26" y="35" on="0"/>
        <pt x="-21" y="-42" on="0"/>
        <pt x="-27" y="-53" on="1"/>
        <pt x="-42" y="-82" on="0"/>
        <pt x="-56" y="-102" on="0"/>
        <pt x="-61" y="-102" on="1"/>
        <pt x="-66" y="-102" on="0"/>
        <pt x="-71" y="-84" on="0"/>
        <pt x="-76" y="-78" on="1"/>
        <pt x="-81" y="-72" on="0"/>
        <pt x="-90" y="-68" on="0"/>
        <pt x="-100" y="-68" on="0"/>
        <pt x="-112" y="-66" on="0"/>
        <pt x="-119" y="-61" on="1"/>
        <pt x="-125" y="-58" on="0"/>
        <pt x="-129" y="-40" on="0"/>
        <pt x="-129" y="-18" on="1"/>
        <pt x="-129" y="-9" on="0"/>
        <pt x="-143" y="-2" on="1"/>
        <pt x="-157" y="4" on="0"/>
        <pt x="-172" y="34" on="0"/>
        <pt x="-172" y="51" on="1"/>
        <pt x="-172" y="60" on="0"/>
        <pt x="-169" y="78" on="0"/>
        <pt x="-164" y="86" on="1"/>
        <pt x="-139" y="140" on="0"/>
        <pt x="-56" y="272" on="0"/>
        <pt x="40" y="408" on="0"/>
        <pt x="139" y="541" on="0"/>
        <pt x="180" y="596" on="1"/>
        <pt x="158" y="599" on="0"/>
        <pt x="156" y="604" on="1"/>
        <pt x="151" y="607" on="0"/>
        <pt x="140" y="621" on="0"/>
        <pt x="130" y="637" on="0"/>
        <pt x="123" y="655" on="0"/>
        <pt x="123" y="662" on="1"/>
        <pt x="123" y="671" on="0"/>
        <pt x="140" y="684" on="0"/>
        <pt x="145" y="690" on="1"/>
        <pt x="152" y="701" on="0"/>
        <pt x="160" y="708" on="0"/>
        <pt x="168" y="713" on="1"/>
        <pt x="176" y="718" on="0"/>
        <pt x="237" y="735" on="0"/>
        <pt x="287" y="748" on="1"/>
        <pt x="305" y="775" on="0"/>
        <pt x="383" y="882" on="0"/>
        <pt x="481" y="1012" on="0"/>
        <pt x="586" y="1149" on="0"/>
        <pt x="631" y="1206" on="1"/>
        <pt x="609" y="1211" on="0"/>
        <pt x="586" y="1225" on="0"/>
        <pt x="580" y="1225" on="1"/>
        <pt x="574" y="1225" on="0"/>
        <pt x="559" y="1235" on="0"/>
        <pt x="546" y="1249" on="0"/>
        <pt x="537" y="1266" on="0"/>
        <pt x="537" y="1272" on="1"/>
        <pt x="537" y="1283" on="0"/>
        <pt x="556" y="1305" on="0"/>
        <pt x="567" y="1313" on="1"/>
        <pt x="592" y="1327" on="0"/>
        <pt x="693" y="1356" on="0"/>
        <pt x="758" y="1368" on="1"/>
        <pt x="779" y="1389" on="0"/>
        <pt x="801" y="1389" on="1"/>
        <pt x="807" y="1389" on="0"/>
        <pt x="819" y="1383" on="0"/>
        <pt x="825" y="1380" on="1"/>
        <pt x="879" y="1389" on="0"/>
        <pt x="997" y="1406" on="0"/>
        <pt x="1132" y="1418" on="0"/>
        <pt x="1286" y="1425" on="0"/>
        <pt x="1376" y="1425" on="1"/>
        <pt x="1428" y="1425" on="0"/>
        <pt x="1480" y="1423" on="0"/>
        <pt x="1501" y="1419" on="0"/>
        <pt x="1503" y="1413" on="0"/>
        <pt x="1507" y="1409" on="1"/>
        <pt x="1517" y="1400" on="0"/>
        <pt x="1526" y="1373" on="0"/>
        <pt x="1526" y="1358" on="1"/>
        <pt x="1526" y="1339" on="0"/>
        <pt x="1515" y="1307" on="0"/>
        <pt x="1507" y="1300" on="1"/>
        <pt x="1499" y="1292" on="0"/>
        <pt x="1499" y="1286" on="1"/>
        <pt x="1499" y="1275" on="0"/>
        <pt x="1483" y="1268" on="0"/>
        <pt x="1477" y="1266" on="1"/>
        <pt x="1470" y="1263" on="0"/>
        <pt x="1464" y="1260" on="0"/>
        <pt x="1464" y="1253" on="1"/>
        <pt x="1464" y="1252" on="0"/>
        <pt x="1463" y="1252" on="1"/>
        <pt x="1462" y="1251" on="0"/>
        <pt x="1454" y="1251" on="1"/>
        <pt x="1444" y="1251" on="0"/>
        <pt x="1415" y="1252" on="0"/>
        <pt x="1383" y="1254" on="0"/>
        <pt x="1351" y="1255" on="0"/>
        <pt x="1339" y="1255" on="1"/>
        <pt x="1285" y="1255" on="0"/>
        <pt x="1159" y="1250" on="0"/>
        <pt x="1028" y="1242" on="0"/>
        <pt x="900" y="1232" on="0"/>
        <pt x="846" y="1227" on="1"/>
        <pt x="815" y="1189" on="0"/>
        <pt x="735" y="1078" on="0"/>
        <pt x="651" y="958" on="0"/>
        <pt x="569" y="841" on="0"/>
        <pt x="537" y="797" on="1"/>
        <pt x="617" y="809" on="0"/>
        <pt x="787" y="829" on="0"/>
        <pt x="870" y="829" on="1"/>
        <pt x="933" y="829" on="0"/>
        <pt x="1012" y="807" on="0"/>
        <pt x="1030" y="795" on="1"/>
        <pt x="1028" y="786" on="1"/>
        <pt x="1028" y="779" on="0"/>
      </contour>
    </TTGlyph>
    <TTGlyph name="G" xMin="20" yMin="-51" xMax="1499" yMax="1425">
      <contour>
        <pt x="1149" y="500" on="1"/>
        <pt x="1149" y="487" on="0"/>
        <pt x="1131" y="428" on="0"/>
        <pt x="1092" y="349" on="0"/>
        <pt x="1030" y="255" on="0"/>
        <pt x="944" y="162" on="0"/>
        <pt x="831" y="75" on="0"/>
        <pt x="760" y="41" on="1"/>
        <pt x="663" y="-5" on="0"/>
        <pt x="504" y="-51" on="0"/>
        <pt x="436" y="-51" on="1"/>
        <pt x="352" y="-51" on="0"/>
        <pt x="213" y="24" on="0"/>
        <pt x="145" y="102" on="1"/>
        <pt x="121" y="127" on="0"/>
        <pt x="76" y="194" on="0"/>
        <pt x="41" y="268" on="0"/>
        <pt x="20" y="347" on="0"/>
        <pt x="20" y="385" on="1"/>
        <pt x="20" y="450" on="0"/>
        <pt x="54" y="581" on="0"/>
        <pt x="113" y="709" on="0"/>
        <pt x="192" y="830" on="0"/>
        <pt x="279" y="938" on="0"/>
        <pt x="371" y="1032" on="0"/>
        <pt x="414" y="1069" on="1"/>
        <pt x="519" y="1158" on="0"/>
        <pt x="743" y="1292" on="0"/>
        <pt x="957" y="1381" on="0"/>
        <pt x="1149" y="1425" on="0"/>
        <pt x="1221" y="1425" on="1"/>
        <pt x="1236" y="1425" on="0"/>
        <pt x="1264" y="1423" on="0"/>
        <pt x="1276" y="1421" on="1"/>
        <pt x="1303" y="1416" on="0"/>
        <pt x="1335" y="1401" on="0"/>
        <pt x="1356" y="1377" on="0"/>
        <pt x="1368" y="1343" on="0"/>
        <pt x="1376" y="1321" on="1"/>
        <pt x="1408" y="1301" on="0"/>
        <pt x="1436" y="1240" on="0"/>
        <pt x="1436" y="1212" on="1"/>
        <pt x="1436" y="1171" on="0"/>
        <pt x="1396" y="1090" on="0"/>
        <pt x="1370" y="1061" on="1"/>
        <pt x="1348" y="1035" on="0"/>
        <pt x="1314" y="1005" on="0"/>
        <pt x="1287" y="990" on="0"/>
        <pt x="1267" y="985" on="0"/>
        <pt x="1260" y="985" on="1"/>
        <pt x="1250" y="985" on="0"/>
        <pt x="1236" y="996" on="0"/>
        <pt x="1226" y="1009" on="0"/>
        <pt x="1216" y="1023" on="0"/>
        <pt x="1210" y="1026" on="1"/>
        <pt x="1202" y="1029" on="0"/>
        <pt x="1196" y="1048" on="0"/>
        <pt x="1196" y="1059" on="1"/>
        <pt x="1196" y="1074" on="0"/>
        <pt x="1205" y="1103" on="0"/>
        <pt x="1214" y="1112" on="1"/>
        <pt x="1222" y="1120" on="0"/>
        <pt x="1229" y="1127" on="0"/>
        <pt x="1236" y="1133" on="0"/>
        <pt x="1249" y="1143" on="0"/>
        <pt x="1262" y="1155" on="1"/>
        <pt x="1272" y="1164" on="0"/>
        <pt x="1292" y="1188" on="0"/>
        <pt x="1309" y="1215" on="0"/>
        <pt x="1321" y="1245" on="0"/>
        <pt x="1323" y="1260" on="1"/>
        <pt x="1288" y="1284" on="0"/>
        <pt x="1229" y="1284" on="1"/>
        <pt x="1181" y="1284" on="0"/>
        <pt x="1059" y="1254" on="0"/>
        <pt x="926" y="1200" on="0"/>
        <pt x="788" y="1127" on="0"/>
        <pt x="659" y="1042" on="0"/>
        <pt x="543" y="948" on="0"/>
        <pt x="500" y="901" on="1"/>
        <pt x="441" y="837" on="0"/>
        <pt x="326" y="695" on="0"/>
        <pt x="233" y="546" on="0"/>
        <pt x="176" y="398" on="0"/>
        <pt x="176" y="328" on="1"/>
        <pt x="176" y="287" on="0"/>
        <pt x="198" y="214" on="0"/>
        <pt x="221" y="180" on="1"/>
        <pt x="250" y="152" on="0"/>
        <pt x="333" y="121" on="0"/>
        <pt x="387" y="121" on="1"/>
        <pt x="446" y="121" on="0"/>
        <pt x="590" y="167" on="0"/>
        <pt x="678" y="221" on="1"/>
        <pt x="769" y="278" on="0"/>
        <pt x="893" y="383" on="0"/>
        <pt x="972" y="477" on="0"/>
        <pt x="1013" y="556" on="0"/>
        <pt x="1022" y="588" on="1"/>
        <pt x="979" y="582" on="0"/>
        <pt x="854" y="557" on="0"/>
        <pt x="725" y="532" on="0"/>
        <pt x="606" y="512" on="0"/>
        <pt x="569" y="510" on="1"/>
        <pt x="563" y="510" on="0"/>
        <pt x="555" y="533" on="0"/>
        <pt x="545" y="541" on="1"/>
        <pt x="539" y="544" on="0"/>
        <pt x="539" y="551" on="1"/>
        <pt x="539" y="557" on="0"/>
        <pt x="545" y="573" on="0"/>
        <pt x="545" y="586" on="1"/>
        <pt x="543" y="589" on="0"/>
        <pt x="531" y="594" on="0"/>
        <pt x="517" y="600" on="0"/>
        <pt x="506" y="606" on="0"/>
        <pt x="506" y="610" on="1"/>
        <pt x="506" y="615" on="0"/>
        <pt x="518" y="623" on="1"/>
        <pt x="532" y="630" on="0"/>
        <pt x="593" y="652" on="0"/>
        <pt x="676" y="677" on="0"/>
        <pt x="777" y="703" on="0"/>
        <pt x="888" y="726" on="0"/>
        <pt x="1002" y="744" on="0"/>
        <pt x="1057" y="748" on="1"/>
        <pt x="1150" y="754" on="0"/>
        <pt x="1288" y="766" on="0"/>
        <pt x="1337" y="766" on="1"/>
        <pt x="1378" y="766" on="0"/>
        <pt x="1433" y="756" on="0"/>
        <pt x="1452" y="743" on="1"/>
        <pt x="1481" y="725" on="0"/>
        <pt x="1499" y="696" on="0"/>
        <pt x="1499" y="684" on="1"/>
        <pt x="1499" y="679" on="0"/>
        <pt x="1497" y="669" on="0"/>
        <pt x="1495" y="664" on="1"/>
        <pt x="1494" y="656" on="0"/>
        <pt x="1489" y="637" on="0"/>
        <pt x="1480" y="619" on="0"/>
        <pt x="1468" y="605" on="0"/>
        <pt x="1462" y="604" on="1"/>
        <pt x="1437" y="600" on="0"/>
        <pt x="1348" y="596" on="0"/>
        <pt x="1248" y="594" on="0"/>
        <pt x="1152" y="594" on="0"/>
        <pt x="1120" y="594" on="1"/>
        <pt x="1133" y="568" on="0"/>
        <pt x="1149" y="528" on="0"/>
      </contour>
    </TTGlyph>
    <TTGlyph name="Gbreve" xMin="20" yMin="-51" xMax="1618" yMax="1856">
      <component glyphName="G" x="0" y="0" flags="0x204"/>
      <component glyphName="breve" x="666" y="586" flags="0x4"/>
    </TTGlyph>
    <TTGlyph name="Gcircumflex" xMin="20" yMin="-51" xMax="1524" yMax="1850">
      <component glyphName="G" x="0" y="0" flags="0x204"/>
      <component glyphName="circumflex" x="676" y="586" flags="0x4"/>
    </TTGlyph>
    <TTGlyph name="Gcommaaccent" xMin="20" yMin="-488" xMax="1499" yMax="1425">
      <component glyphName="G" x="0" y="0" flags="0x204"/>
      <component glyphName="commaaccent" x="-93" y="-19" flags="0x4"/>
    </TTGlyph>
    <TTGlyph name="Gdotaccent" xMin="20" yMin="-51" xMax="1499" yMax="1817">
      <component glyphName="G" x="0" y="0" flags="0x204"/>
      <component glyphName="dotaccent" x="690" y="586" flags="0x4"/>
    </TTGlyph>
    <TTGlyph name="H" xMin="-115" yMin="-41" xMax="1653" yMax="1423">
      <contour>
        <pt x="899" y="1352" on="1"/>
        <pt x="901" y="1339" on="0"/>
        <pt x="907" y="1313" on="0"/>
        <pt x="907" y="1296" on="1"/>
        <pt x="907" y="1273" on="0"/>
        <pt x="893" y="1241" on="1"/>
        <pt x="888" y="1233" on="0"/>
        <pt x="850" y="1179" on="0"/>
        <pt x="794" y="1101" on="0"/>
        <pt x="723" y="1006" on="0"/>
        <pt x="648" y="907" on="0"/>
        <pt x="573" y="810" on="0"/>
        <pt x="541" y="770" on="1"/>
        <pt x="638" y="781" on="0"/>
        <pt x="924" y="810" on="0"/>
        <pt x="1096" y="819" on="1"/>
        <pt x="1128" y="866" on="0"/>
        <pt x="1218" y="988" on="0"/>
        <pt x="1317" y="1119" on="0"/>
        <pt x="1418" y="1246" on="0"/>
        <pt x="1503" y="1347" on="0"/>
        <pt x="1563" y="1413" on="0"/>
        <pt x="1573" y="1417" on="1"/>
        <pt x="1585" y="1423" on="0"/>
        <pt x="1593" y="1423" on="1"/>
        <pt x="1606" y="1423" on="0"/>
        <pt x="1621" y="1394" on="0"/>
        <pt x="1636" y="1360" on="1"/>
        <pt x="1644" y="1341" on="0"/>
        <pt x="1653" y="1320" on="0"/>
        <pt x="1653" y="1309" on="1"/>
        <pt x="1653" y="1301" on="0"/>
        <pt x="1647" y="1285" on="0"/>
        <pt x="1634" y="1262" on="0"/>
        <pt x="1614" y="1232" on="0"/>
        <pt x="1599" y="1210" on="1"/>
        <pt x="1591" y="1199" on="0"/>
        <pt x="1551" y="1146" on="0"/>
        <pt x="1496" y="1075" on="0"/>
        <pt x="1432" y="993" on="0"/>
        <pt x="1369" y="913" on="0"/>
        <pt x="1313" y="841" on="0"/>
        <pt x="1294" y="815" on="1"/>
        <pt x="1307" y="810" on="0"/>
        <pt x="1320" y="793" on="0"/>
        <pt x="1325" y="782" on="1"/>
        <pt x="1329" y="771" on="0"/>
        <pt x="1337" y="755" on="0"/>
        <pt x="1344" y="742" on="0"/>
        <pt x="1348" y="727" on="0"/>
        <pt x="1348" y="717" on="1"/>
        <pt x="1348" y="706" on="0"/>
        <pt x="1354" y="693" on="0"/>
        <pt x="1354" y="688" on="1"/>
        <pt x="1354" y="683" on="0"/>
        <pt x="1345" y="674" on="0"/>
        <pt x="1331" y="666" on="1"/>
        <pt x="1311" y="656" on="0"/>
        <pt x="1235" y="649" on="0"/>
        <pt x="1192" y="647" on="1"/>
        <pt x="1161" y="600" on="0"/>
        <pt x="1086" y="490" on="0"/>
        <pt x="1005" y="373" on="0"/>
        <pt x="924" y="254" on="0"/>
        <pt x="851" y="143" on="0"/>
        <pt x="790" y="45" on="0"/>
        <pt x="770" y="8" on="1"/>
        <pt x="764" y="-4" on="0"/>
        <pt x="758" y="-17" on="0"/>
        <pt x="752" y="-25" on="0"/>
        <pt x="742" y="-29" on="0"/>
        <pt x="733" y="-33" on="1"/>
        <pt x="717" y="-41" on="1"/>
        <pt x="715" y="-41" on="0"/>
        <pt x="710" y="-36" on="0"/>
        <pt x="702" y="-31" on="1"/>
        <pt x="687" y="-20" on="0"/>
        <pt x="661" y="11" on="0"/>
        <pt x="659" y="31" on="1"/>
        <pt x="657" y="39" on="0"/>
        <pt x="657" y="53" on="0"/>
        <pt x="657" y="61" on="1"/>
        <pt x="657" y="97" on="0"/>
        <pt x="677" y="161" on="0"/>
        <pt x="708" y="223" on="0"/>
        <pt x="746" y="287" on="0"/>
        <pt x="764" y="324" on="1"/>
        <pt x="779" y="353" on="0"/>
        <pt x="827" y="427" on="0"/>
        <pt x="886" y="511" on="0"/>
        <pt x="951" y="601" on="0"/>
        <pt x="983" y="645" on="1"/>
        <pt x="933" y="642" on="0"/>
        <pt x="783" y="628" on="0"/>
        <pt x="619" y="611" on="0"/>
        <pt x="461" y="595" on="0"/>
        <pt x="403" y="590" on="1"/>
        <pt x="368" y="539" on="0"/>
        <pt x="286" y="416" on="0"/>
        <pt x="202" y="290" on="0"/>
        <pt x="122" y="169" on="0"/>
        <pt x="57" y="72" on="0"/>
        <pt x="12" y="7" on="0"/>
        <pt x="6" y="0" on="1"/>
        <pt x="-6" y="-12" on="0"/>
        <pt x="-15" y="-23" on="0"/>
        <pt x="-21" y="-27" on="0"/>
        <pt x="-29" y="-28" on="0"/>
        <pt x="-41" y="-31" on="1"/>
        <pt x="-47" y="-33" on="0"/>
        <pt x="-56" y="-33" on="0"/>
        <pt x="-61" y="-33" on="1"/>
        <pt x="-72" y="-33" on="0"/>
        <pt x="-82" y="-23" on="0"/>
        <pt x="-88" y="-10" on="1"/>
        <pt x="-94" y="3" on="0"/>
        <pt x="-115" y="27" on="0"/>
        <pt x="-115" y="53" on="1"/>
        <pt x="-115" y="63" on="0"/>
        <pt x="-111" y="87" on="0"/>
        <pt x="-106" y="102" on="1"/>
        <pt x="-101" y="118" on="0"/>
        <pt x="-70" y="178" on="0"/>
        <pt x="-24" y="256" on="0"/>
        <pt x="33" y="348" on="0"/>
        <pt x="95" y="444" on="0"/>
        <pt x="157" y="540" on="0"/>
        <pt x="186" y="584" on="1"/>
        <pt x="177" y="586" on="0"/>
        <pt x="162" y="586" on="0"/>
        <pt x="154" y="586" on="1"/>
        <pt x="143" y="586" on="0"/>
        <pt x="125" y="585" on="0"/>
        <pt x="119" y="582" on="1"/>
        <pt x="111" y="579" on="0"/>
        <pt x="99" y="575" on="0"/>
        <pt x="94" y="575" on="1"/>
        <pt x="82" y="575" on="0"/>
        <pt x="70" y="592" on="0"/>
        <pt x="63" y="606" on="1"/>
        <pt x="58" y="617" on="0"/>
        <pt x="39" y="650" on="0"/>
        <pt x="39" y="659" on="1"/>
        <pt x="39" y="664" on="0"/>
        <pt x="47" y="680" on="0"/>
        <pt x="61" y="694" on="1"/>
        <pt x="78" y="700" on="0"/>
        <pt x="129" y="713" on="0"/>
        <pt x="190" y="724" on="0"/>
        <pt x="258" y="734" on="0"/>
        <pt x="293" y="739" on="1"/>
        <pt x="335" y="797" on="0"/>
        <pt x="445" y="937" on="0"/>
        <pt x="563" y="1081" on="0"/>
        <pt x="679" y="1217" on="0"/>
        <pt x="774" y="1323" on="0"/>
        <pt x="840" y="1390" on="0"/>
        <pt x="848" y="1393" on="1"/>
        <pt x="850" y="1393" on="0"/>
        <pt x="855" y="1395" on="0"/>
        <pt x="858" y="1395" on="1"/>
        <pt x="872" y="1395" on="0"/>
        <pt x="897" y="1370" on="0"/>
      </contour>
    </TTGlyph>
    <TTGlyph name="Hbar" xMin="-115" yMin="-41" xMax="1703" yMax="1423">
      <contour>
        <pt x="1636" y="1360" on="1"/>
        <pt x="1644" y="1341" on="0"/>
        <pt x="1653" y="1320" on="0"/>
        <pt x="1653" y="1309" on="1"/>
        <pt x="1653" y="1301" on="0"/>
        <pt x="1647" y="1285" on="0"/>
        <pt x="1634" y="1262" on="0"/>
        <pt x="1614" y="1232" on="0"/>
        <pt x="1599" y="1210" on="1"/>
        <pt x="1550" y="1145" on="1"/>
        <pt x="1584" y="1145" on="0"/>
        <pt x="1641" y="1144" on="0"/>
        <pt x="1682" y="1140" on="0"/>
        <pt x="1703" y="1134" on="0"/>
        <pt x="1700" y="1128" on="1"/>
        <pt x="1697" y="1123" on="0"/>
        <pt x="1681" y="1113" on="0"/>
        <pt x="1673" y="1104" on="1"/>
        <pt x="1668" y="1098" on="0"/>
        <pt x="1664" y="1084" on="0"/>
        <pt x="1667" y="1081" on="1"/>
        <pt x="1665" y="1077" on="1"/>
        <pt x="1663" y="1074" on="0"/>
        <pt x="1639" y="1057" on="0"/>
        <pt x="1620" y="1032" on="1"/>
        <pt x="1615" y="1029" on="0"/>
        <pt x="1617" y="1025" on="0"/>
        <pt x="1612" y="1022" on="1"/>
        <pt x="1610" y="1019" on="0"/>
        <pt x="1584" y="1010" on="0"/>
        <pt x="1550" y="1010" on="1"/>
        <pt x="1444" y="1010" on="1"/>
        <pt x="1400" y="954" on="0"/>
        <pt x="1319" y="849" on="0"/>
        <pt x="1294" y="815" on="1"/>
        <pt x="1307" y="810" on="0"/>
        <pt x="1320" y="793" on="0"/>
        <pt x="1325" y="782" on="1"/>
        <pt x="1329" y="771" on="0"/>
        <pt x="1337" y="755" on="0"/>
        <pt x="1344" y="742" on="0"/>
        <pt x="1348" y="727" on="0"/>
        <pt x="1348" y="717" on="1"/>
        <pt x="1348" y="706" on="0"/>
        <pt x="1354" y="693" on="0"/>
        <pt x="1354" y="688" on="1"/>
        <pt x="1354" y="683" on="0"/>
        <pt x="1345" y="674" on="0"/>
        <pt x="1331" y="666" on="1"/>
        <pt x="1311" y="656" on="0"/>
        <pt x="1235" y="649" on="0"/>
        <pt x="1192" y="647" on="1"/>
        <pt x="1161" y="600" on="0"/>
        <pt x="1086" y="490" on="0"/>
        <pt x="1005" y="373" on="0"/>
        <pt x="924" y="254" on="0"/>
        <pt x="851" y="143" on="0"/>
        <pt x="790" y="45" on="0"/>
        <pt x="770" y="8" on="1"/>
        <pt x="764" y="-4" on="0"/>
        <pt x="758" y="-17" on="0"/>
        <pt x="752" y="-25" on="0"/>
        <pt x="742" y="-29" on="0"/>
        <pt x="733" y="-33" on="1"/>
        <pt x="717" y="-41" on="1"/>
        <pt x="715" y="-41" on="0"/>
        <pt x="710" y="-36" on="0"/>
        <pt x="702" y="-31" on="1"/>
        <pt x="687" y="-20" on="0"/>
        <pt x="661" y="11" on="0"/>
        <pt x="659" y="31" on="1"/>
        <pt x="657" y="39" on="0"/>
        <pt x="657" y="53" on="0"/>
        <pt x="657" y="61" on="1"/>
        <pt x="657" y="97" on="0"/>
        <pt x="677" y="161" on="0"/>
        <pt x="708" y="223" on="0"/>
        <pt x="746" y="287" on="0"/>
        <pt x="764" y="324" on="1"/>
        <pt x="779" y="353" on="0"/>
        <pt x="827" y="427" on="0"/>
        <pt x="886" y="511" on="0"/>
        <pt x="951" y="601" on="0"/>
        <pt x="983" y="645" on="1"/>
        <pt x="933" y="642" on="0"/>
        <pt x="783" y="628" on="0"/>
        <pt x="619" y="611" on="0"/>
        <pt x="461" y="595" on="0"/>
        <pt x="403" y="590" on="1"/>
        <pt x="368" y="539" on="0"/>
        <pt x="286" y="416" on="0"/>
        <pt x="202" y="290" on="0"/>
        <pt x="122" y="169" on="0"/>
        <pt x="57" y="72" on="0"/>
        <pt x="12" y="7" on="0"/>
        <pt x="6" y="0" on="1"/>
        <pt x="-6" y="-12" on="0"/>
        <pt x="-15" y="-23" on="0"/>
        <pt x="-21" y="-27" on="0"/>
        <pt x="-29" y="-28" on="0"/>
        <pt x="-41" y="-31" on="1"/>
        <pt x="-47" y="-33" on="0"/>
        <pt x="-56" y="-33" on="0"/>
        <pt x="-61" y="-33" on="1"/>
        <pt x="-72" y="-33" on="0"/>
        <pt x="-82" y="-23" on="0"/>
        <pt x="-88" y="-10" on="1"/>
        <pt x="-94" y="3" on="0"/>
        <pt x="-115" y="27" on="0"/>
        <pt x="-115" y="53" on="1"/>
        <pt x="-115" y="63" on="0"/>
        <pt x="-111" y="87" on="0"/>
        <pt x="-106" y="102" on="1"/>
        <pt x="-101" y="118" on="0"/>
        <pt x="-70" y="178" on="0"/>
        <pt x="-24" y="256" on="0"/>
        <pt x="33" y="348" on="0"/>
        <pt x="95" y="444" on="0"/>
        <pt x="157" y="540" on="0"/>
        <pt x="186" y="584" on="1"/>
        <pt x="177" y="586" on="0"/>
        <pt x="162" y="586" on="0"/>
        <pt x="154" y="586" on="1"/>
        <pt x="143" y="586" on="0"/>
        <pt x="125" y="585" on="0"/>
        <pt x="119" y="582" on="1"/>
        <pt x="111" y="579" on="0"/>
        <pt x="99" y="575" on="0"/>
        <pt x="94" y="575" on="1"/>
        <pt x="82" y="575" on="0"/>
        <pt x="70" y="592" on="0"/>
        <pt x="63" y="606" on="1"/>
        <pt x="58" y="617" on="0"/>
        <pt x="39" y="650" on="0"/>
        <pt x="39" y="659" on="1"/>
        <pt x="39" y="664" on="0"/>
        <pt x="47" y="680" on="0"/>
        <pt x="61" y="694" on="1"/>
        <pt x="78" y="700" on="0"/>
        <pt x="129" y="713" on="0"/>
        <pt x="190" y="724" on="0"/>
        <pt x="258" y="734" on="0"/>
        <pt x="293" y="739" on="1"/>
        <pt x="328" y="789" on="0"/>
        <pt x="415" y="901" on="0"/>
        <pt x="465" y="961" on="1"/>
        <pt x="386" y="954" on="0"/>
        <pt x="272" y="946" on="0"/>
        <pt x="250" y="946" on="1"/>
        <pt x="245" y="946" on="0"/>
        <pt x="246" y="955" on="0"/>
        <pt x="252" y="969" on="0"/>
        <pt x="260" y="984" on="0"/>
        <pt x="264" y="989" on="1"/>
        <pt x="276" y="1012" on="1"/>
        <pt x="278" y="1014" on="0"/>
        <pt x="270" y="1025" on="0"/>
        <pt x="276" y="1034" on="1"/>
        <pt x="304" y="1043" on="0"/>
        <pt x="346" y="1054" on="1"/>
        <pt x="382" y="1063" on="0"/>
        <pt x="494" y="1085" on="0"/>
        <pt x="575" y="1096" on="1"/>
        <pt x="624" y="1155" on="0"/>
        <pt x="717" y="1260" on="0"/>
        <pt x="791" y="1341" on="0"/>
        <pt x="841" y="1390" on="0"/>
        <pt x="848" y="1393" on="1"/>
        <pt x="850" y="1393" on="0"/>
        <pt x="855" y="1395" on="0"/>
        <pt x="858" y="1395" on="1"/>
        <pt x="872" y="1395" on="0"/>
        <pt x="897" y="1370" on="0"/>
        <pt x="899" y="1352" on="1"/>
        <pt x="901" y="1339" on="0"/>
        <pt x="907" y="1313" on="0"/>
        <pt x="907" y="1296" on="1"/>
        <pt x="907" y="1273" on="0"/>
        <pt x="893" y="1241" on="1"/>
        <pt x="888" y="1232" on="0"/>
        <pt x="842" y="1167" on="0"/>
        <pt x="807" y="1120" on="1"/>
        <pt x="913" y="1128" on="0"/>
        <pt x="1170" y="1140" on="0"/>
        <pt x="1335" y="1143" on="1"/>
        <pt x="1377" y="1196" on="0"/>
        <pt x="1455" y="1292" on="0"/>
        <pt x="1520" y="1367" on="0"/>
        <pt x="1565" y="1414" on="0"/>
        <pt x="1573" y="1417" on="1"/>
        <pt x="1585" y="1423" on="0"/>
        <pt x="1593" y="1423" on="1"/>
        <pt x="1606" y="1423" on="0"/>
        <pt x="1621" y="1394" on="0"/>
      </contour>
      <contour>
        <pt x="1163" y="1010" on="1"/>
        <pt x="1121" y="1010" on="0"/>
        <pt x="1015" y="1005" on="0"/>
        <pt x="896" y="998" on="0"/>
        <pt x="768" y="988" on="0"/>
        <pt x="705" y="983" on="1"/>
        <pt x="663" y="926" on="0"/>
        <pt x="578" y="816" on="0"/>
        <pt x="541" y="770" on="1"/>
        <pt x="638" y="781" on="0"/>
        <pt x="924" y="810" on="0"/>
        <pt x="1096" y="819" on="1"/>
        <pt x="1122" y="857" on="0"/>
        <pt x="1193" y="956" on="0"/>
        <pt x="1233" y="1010" on="1"/>
      </contour>
    </TTGlyph>
    <TTGlyph name="Hcircumflex" xMin="-115" yMin="-41" xMax="1653" yMax="1827">
      <component glyphName="H" x="0" y="0" flags="0x204"/>
      <component glyphName="circumflex" x="698" y="563" flags="0x4"/>
    </TTGlyph>
    <TTGlyph name="I" xMin="-139" yMin="-12" xMax="870" yMax="1374">
      <contour>
        <pt x="596" y="881" on="1"/>
        <pt x="562" y="839" on="0"/>
        <pt x="461" y="702" on="0"/>
        <pt x="346" y="545" on="0"/>
        <pt x="229" y="381" on="0"/>
        <pt x="130" y="240" on="0"/>
        <pt x="61" y="137" on="0"/>
        <pt x="51" y="119" on="1"/>
        <pt x="23" y="63" on="0"/>
        <pt x="-33" y="6" on="0"/>
        <pt x="-45" y="-6" on="1"/>
        <pt x="-50" y="-11" on="0"/>
        <pt x="-56" y="-12" on="0"/>
        <pt x="-59" y="-12" on="1"/>
        <pt x="-69" y="-12" on="0"/>
        <pt x="-85" y="0" on="0"/>
        <pt x="-94" y="0" on="1"/>
        <pt x="-102" y="0" on="0"/>
        <pt x="-118" y="22" on="0"/>
        <pt x="-131" y="53" on="0"/>
        <pt x="-139" y="87" on="0"/>
        <pt x="-139" y="100" on="1"/>
        <pt x="-139" y="134" on="0"/>
        <pt x="-82" y="248" on="0"/>
        <pt x="7" y="385" on="0"/>
        <pt x="117" y="532" on="0"/>
        <pt x="170" y="600" on="1"/>
        <pt x="227" y="674" on="0"/>
        <pt x="365" y="841" on="0"/>
        <pt x="504" y="1006" on="0"/>
        <pt x="636" y="1159" on="0"/>
        <pt x="741" y="1280" on="0"/>
        <pt x="807" y="1357" on="0"/>
        <pt x="811" y="1364" on="1"/>
        <pt x="818" y="1374" on="0"/>
        <pt x="829" y="1374" on="1"/>
        <pt x="843" y="1374" on="0"/>
        <pt x="870" y="1343" on="0"/>
        <pt x="870" y="1315" on="1"/>
        <pt x="870" y="1302" on="0"/>
        <pt x="848" y="1251" on="0"/>
        <pt x="810" y="1183" on="0"/>
        <pt x="758" y="1102" on="0"/>
        <pt x="697" y="1014" on="0"/>
        <pt x="630" y="924" on="0"/>
      </contour>
    </TTGlyph>
    <TTGlyph name="IJ" xMin="-139" yMin="-287" xMax="1851" yMax="1413">
      <component glyphName="I" x="0" y="0" flags="0x4"/>
      <component glyphName="J" x="612" y="0" flags="0x4"/>
    </TTGlyph>
    <TTGlyph name="Iacute" xMin="-139" yMin="-12" xMax="1294" yMax="1803">
      <component glyphName="I" x="0" y="0" flags="0x204"/>
      <component glyphName="acute" x="393" y="535" flags="0x4"/>
    </TTGlyph>
    <TTGlyph name="Ibreve" xMin="-139" yMin="-12" xMax="1286" yMax="1805">
      <component glyphName="I" x="0" y="0" flags="0x204"/>
      <component glyphName="breve" x="334" y="535" flags="0x4"/>
    </TTGlyph>
    <TTGlyph name="Icircumflex" xMin="-139" yMin="-12" xMax="1192" yMax="1799">
      <component glyphName="I" x="0" y="0" flags="0x204"/>
      <component glyphName="circumflex" x="344" y="535" flags="0x4"/>
    </TTGlyph>
    <TTGlyph name="Idieresis" xMin="-139" yMin="-12" xMax="1230" yMax="1721">
      <component glyphName="I" x="0" y="0" flags="0x204"/>
      <component glyphName="dieresis" x="362" y="535" flags="0x4"/>
    </TTGlyph>
    <TTGlyph name="Idotaccent" xMin="-139" yMin="-12" xMax="1114" yMax="1766">
      <component glyphName="I" x="0" y="0" flags="0x204"/>
      <component glyphName="dotaccent" x="358" y="535" flags="0x4"/>
    </TTGlyph>
    <TTGlyph name="Igrave" xMin="-139" yMin="-12" xMax="956" yMax="1795">
      <component glyphName="I" x="0" y="0" flags="0x204"/>
      <component glyphName="grave" x="256" y="535" flags="0x4"/>
    </TTGlyph>
    <TTGlyph name="Imacron" xMin="-139" yMin="-12" xMax="1253" yMax="1706">
      <component glyphName="I" x="0" y="0" flags="0x204"/>
      <component glyphName="macron" x="360" y="535" flags="0x4"/>
    </TTGlyph>
    <TTGlyph name="Iogonek" xMin="-432" yMin="-399" xMax="870" yMax="1374">
      <contour>
        <pt x="596" y="881" on="1"/>
        <pt x="562" y="839" on="0"/>
        <pt x="461" y="702" on="0"/>
        <pt x="346" y="545" on="0"/>
        <pt x="229" y="381" on="0"/>
        <pt x="130" y="240" on="0"/>
        <pt x="61" y="137" on="0"/>
        <pt x="51" y="119" on="1"/>
        <pt x="23" y="63" on="0"/>
        <pt x="-33" y="6" on="0"/>
        <pt x="-45" y="-6" on="1"/>
        <pt x="-51" y="-12" on="0"/>
        <pt x="-57" y="-12" on="1"/>
        <pt x="-89" y="-24" on="0"/>
        <pt x="-167" y="-63" on="0"/>
        <pt x="-236" y="-114" on="0"/>
        <pt x="-283" y="-176" on="0"/>
        <pt x="-283" y="-213" on="1"/>
        <pt x="-283" y="-241" on="0"/>
        <pt x="-240" y="-272" on="0"/>
        <pt x="-203" y="-272" on="1"/>
        <pt x="-181" y="-272" on="0"/>
        <pt x="-129" y="-260" on="0"/>
        <pt x="-77" y="-242" on="0"/>
        <pt x="-29" y="-222" on="0"/>
        <pt x="-10" y="-213" on="1"/>
        <pt x="-7" y="-211" on="0"/>
        <pt x="6" y="-207" on="0"/>
        <pt x="12" y="-207" on="1"/>
        <pt x="17" y="-207" on="0"/>
        <pt x="25" y="-213" on="0"/>
        <pt x="25" y="-221" on="1"/>
        <pt x="25" y="-231" on="0"/>
        <pt x="17" y="-253" on="0"/>
        <pt x="8" y="-274" on="0"/>
        <pt x="0" y="-292" on="0"/>
        <pt x="0" y="-299" on="1"/>
        <pt x="0" y="-304" on="0"/>
        <pt x="6" y="-310" on="0"/>
        <pt x="12" y="-315" on="0"/>
        <pt x="18" y="-321" on="0"/>
        <pt x="18" y="-326" on="1"/>
        <pt x="18" y="-340" on="0"/>
        <pt x="-2" y="-359" on="0"/>
        <pt x="-14" y="-362" on="1"/>
        <pt x="-42" y="-370" on="0"/>
        <pt x="-92" y="-383" on="0"/>
        <pt x="-146" y="-393" on="0"/>
        <pt x="-210" y="-399" on="0"/>
        <pt x="-252" y="-399" on="1"/>
        <pt x="-291" y="-399" on="0"/>
        <pt x="-357" y="-383" on="0"/>
        <pt x="-405" y="-350" on="0"/>
        <pt x="-432" y="-300" on="0"/>
        <pt x="-432" y="-266" on="1"/>
        <pt x="-432" y="-215" on="0"/>
        <pt x="-379" y="-127" on="0"/>
        <pt x="-293" y="-52" on="0"/>
        <pt x="-183" y="11" on="0"/>
        <pt x="-125" y="37" on="1"/>
        <pt x="-130" y="52" on="0"/>
        <pt x="-139" y="88" on="0"/>
        <pt x="-139" y="100" on="1"/>
        <pt x="-139" y="134" on="0"/>
        <pt x="-82" y="248" on="0"/>
        <pt x="7" y="385" on="0"/>
        <pt x="117" y="532" on="0"/>
        <pt x="170" y="600" on="1"/>
        <pt x="227" y="674" on="0"/>
        <pt x="365" y="841" on="0"/>
        <pt x="504" y="1006" on="0"/>
        <pt x="636" y="1159" on="0"/>
        <pt x="741" y="1280" on="0"/>
        <pt x="807" y="1357" on="0"/>
        <pt x="811" y="1364" on="1"/>
        <pt x="818" y="1374" on="0"/>
        <pt x="829" y="1374" on="1"/>
        <pt x="843" y="1374" on="0"/>
        <pt x="870" y="1343" on="0"/>
        <pt x="870" y="1315" on="1"/>
        <pt x="870" y="1302" on="0"/>
        <pt x="848" y="1251" on="0"/>
        <pt x="810" y="1183" on="0"/>
        <pt x="758" y="1102" on="0"/>
        <pt x="697" y="1014" on="0"/>
        <pt x="630" y="924" on="0"/>
      </contour>
    </TTGlyph>
    <TTGlyph name="Itilde" xMin="-139" yMin="-12" xMax="1302" yMax="1782">
      <component glyphName="I" x="0" y="0" flags="0x204"/>
      <component glyphName="tilde" x="360" y="535" flags="0x4"/>
    </TTGlyph>
    <TTGlyph name="J" xMin="-301" yMin="-287" xMax="1239" yMax="1413">
      <contour>
        <pt x="215" y="311" on="1"/>
        <pt x="206" y="311" on="0"/>
        <pt x="196" y="326" on="0"/>
        <pt x="188" y="326" on="1"/>
        <pt x="176" y="326" on="0"/>
        <pt x="115" y="289" on="0"/>
        <pt x="37" y="225" on="0"/>
        <pt x="-47" y="143" on="0"/>
        <pt x="-117" y="51" on="0"/>
        <pt x="-162" y="-42" on="0"/>
        <pt x="-162" y="-84" on="1"/>
        <pt x="-157" y="-86" on="0"/>
        <pt x="-151" y="-86" on="0"/>
        <pt x="-147" y="-86" on="1"/>
        <pt x="-108" y="-86" on="0"/>
        <pt x="-5" y="-37" on="0"/>
        <pt x="113" y="51" on="0"/>
        <pt x="243" y="170" on="0"/>
        <pt x="377" y="311" on="0"/>
        <pt x="510" y="467" on="0"/>
        <pt x="573" y="547" on="1"/>
        <pt x="609" y="592" on="0"/>
        <pt x="698" y="711" on="0"/>
        <pt x="793" y="845" on="0"/>
        <pt x="892" y="987" on="0"/>
        <pt x="986" y="1122" on="0"/>
        <pt x="1069" y="1244" on="0"/>
        <pt x="1134" y="1339" on="0"/>
        <pt x="1177" y="1400" on="0"/>
        <pt x="1182" y="1407" on="1"/>
        <pt x="1185" y="1413" on="0"/>
        <pt x="1190" y="1413" on="1"/>
        <pt x="1195" y="1413" on="0"/>
        <pt x="1202" y="1401" on="0"/>
        <pt x="1208" y="1401" on="1"/>
        <pt x="1218" y="1401" on="0"/>
        <pt x="1230" y="1379" on="0"/>
        <pt x="1237" y="1351" on="0"/>
        <pt x="1239" y="1324" on="0"/>
        <pt x="1239" y="1319" on="1"/>
        <pt x="1239" y="1297" on="0"/>
        <pt x="1190" y="1176" on="0"/>
        <pt x="1104" y="1005" on="0"/>
        <pt x="985" y="797" on="0"/>
        <pt x="843" y="579" on="0"/>
        <pt x="684" y="362" on="0"/>
        <pt x="602" y="268" on="1"/>
        <pt x="565" y="227" on="0"/>
        <pt x="474" y="119" on="0"/>
        <pt x="369" y="4" on="0"/>
        <pt x="251" y="-109" on="0"/>
        <pt x="124" y="-204" on="0"/>
        <pt x="-12" y="-273" on="0"/>
        <pt x="-82" y="-285" on="1"/>
        <pt x="-90" y="-287" on="0"/>
        <pt x="-104" y="-287" on="0"/>
        <pt x="-111" y="-287" on="1"/>
        <pt x="-143" y="-287" on="0"/>
        <pt x="-209" y="-256" on="0"/>
        <pt x="-233" y="-213" on="1"/>
        <pt x="-265" y="-188" on="0"/>
        <pt x="-301" y="-93" on="0"/>
        <pt x="-301" y="-37" on="1"/>
        <pt x="-301" y="-18" on="0"/>
        <pt x="-298" y="18" on="0"/>
        <pt x="-293" y="37" on="1"/>
        <pt x="-280" y="97" on="0"/>
        <pt x="-197" y="235" on="0"/>
        <pt x="-68" y="359" on="0"/>
        <pt x="102" y="452" on="0"/>
        <pt x="203" y="467" on="1"/>
        <pt x="215" y="467" on="0"/>
        <pt x="231" y="443" on="0"/>
        <pt x="239" y="412" on="0"/>
        <pt x="242" y="382" on="0"/>
        <pt x="242" y="375" on="1"/>
        <pt x="242" y="367" on="0"/>
        <pt x="239" y="345" on="0"/>
        <pt x="233" y="325" on="0"/>
        <pt x="223" y="311" on="0"/>
      </contour>
    </TTGlyph>
    <TTGlyph name="Jcircumflex" xMin="-301" yMin="-287" xMax="1546" yMax="1837">
      <component glyphName="J" x="0" y="0" flags="0x204"/>
      <component glyphName="circumflex" x="698" y="573" flags="0x4"/>
    </TTGlyph>
    <TTGlyph name="K" xMin="-209" yMin="-29" xMax="1530" yMax="1460">
      <contour>
        <pt x="834" y="1274" on="1"/>
        <pt x="824" y="1251" on="0"/>
        <pt x="782" y="1182" on="0"/>
        <pt x="725" y="1101" on="0"/>
        <pt x="658" y="1011" on="0"/>
        <pt x="590" y="922" on="0"/>
        <pt x="526" y="839" on="0"/>
        <pt x="500" y="805" on="1"/>
        <pt x="588" y="835" on="0"/>
        <pt x="786" y="938" on="0"/>
        <pt x="987" y="1062" on="0"/>
        <pt x="1176" y="1196" on="0"/>
        <pt x="1333" y="1318" on="0"/>
        <pt x="1445" y="1417" on="0"/>
        <pt x="1468" y="1444" on="1"/>
        <pt x="1483" y="1460" on="0"/>
        <pt x="1503" y="1460" on="1"/>
        <pt x="1506" y="1460" on="0"/>
        <pt x="1515" y="1458" on="0"/>
        <pt x="1520" y="1458" on="1"/>
        <pt x="1530" y="1455" on="0"/>
        <pt x="1530" y="1425" on="1"/>
        <pt x="1530" y="1408" on="0"/>
        <pt x="1518" y="1358" on="0"/>
        <pt x="1490" y="1298" on="0"/>
        <pt x="1440" y="1232" on="0"/>
        <pt x="1403" y="1198" on="1"/>
        <pt x="1370" y="1169" on="0"/>
        <pt x="1273" y="1081" on="0"/>
        <pt x="1144" y="978" on="0"/>
        <pt x="987" y="866" on="0"/>
        <pt x="800" y="757" on="0"/>
        <pt x="587" y="659" on="0"/>
        <pt x="467" y="621" on="1"/>
        <pt x="496" y="589" on="0"/>
        <pt x="565" y="482" on="0"/>
        <pt x="614" y="408" on="1"/>
        <pt x="647" y="356" on="0"/>
        <pt x="735" y="279" on="0"/>
        <pt x="836" y="227" on="0"/>
        <pt x="944" y="201" on="0"/>
        <pt x="997" y="201" on="1"/>
        <pt x="1048" y="201" on="0"/>
        <pt x="1098" y="213" on="1"/>
        <pt x="1113" y="217" on="0"/>
        <pt x="1151" y="229" on="0"/>
        <pt x="1188" y="241" on="0"/>
        <pt x="1223" y="250" on="0"/>
        <pt x="1235" y="250" on="1"/>
        <pt x="1244" y="250" on="0"/>
        <pt x="1262" y="241" on="0"/>
        <pt x="1262" y="233" on="1"/>
        <pt x="1262" y="222" on="0"/>
        <pt x="1243" y="196" on="0"/>
        <pt x="1218" y="172" on="0"/>
        <pt x="1193" y="153" on="0"/>
        <pt x="1188" y="150" on="1"/>
        <pt x="1181" y="147" on="0"/>
        <pt x="1171" y="131" on="0"/>
        <pt x="1156" y="109" on="0"/>
        <pt x="1131" y="84" on="0"/>
        <pt x="1108" y="74" on="1"/>
        <pt x="1096" y="69" on="0"/>
        <pt x="1091" y="60" on="0"/>
        <pt x="1082" y="47" on="0"/>
        <pt x="1058" y="29" on="0"/>
        <pt x="1028" y="14" on="1"/>
        <pt x="1021" y="11" on="0"/>
        <pt x="992" y="-3" on="0"/>
        <pt x="950" y="-18" on="0"/>
        <pt x="897" y="-29" on="0"/>
        <pt x="866" y="-29" on="1"/>
        <pt x="818" y="-29" on="0"/>
        <pt x="704" y="11" on="0"/>
        <pt x="586" y="120" on="0"/>
        <pt x="468" y="314" on="0"/>
        <pt x="414" y="469" on="1"/>
        <pt x="407" y="488" on="0"/>
        <pt x="396" y="524" on="0"/>
        <pt x="384" y="554" on="0"/>
        <pt x="369" y="575" on="0"/>
        <pt x="358" y="580" on="1"/>
        <pt x="321" y="520" on="0"/>
        <pt x="224" y="383" on="0"/>
        <pt x="122" y="249" on="0"/>
        <pt x="21" y="124" on="0"/>
        <pt x="-63" y="30" on="0"/>
        <pt x="-122" y="-27" on="0"/>
        <pt x="-131" y="-27" on="1"/>
        <pt x="-139" y="-27" on="0"/>
        <pt x="-148" y="-24" on="0"/>
        <pt x="-157" y="-14" on="0"/>
        <pt x="-167" y="4" on="0"/>
        <pt x="-176" y="18" on="1"/>
        <pt x="-183" y="28" on="0"/>
        <pt x="-195" y="57" on="0"/>
        <pt x="-204" y="90" on="0"/>
        <pt x="-209" y="123" on="0"/>
        <pt x="-209" y="137" on="1"/>
        <pt x="-209" y="161" on="0"/>
        <pt x="-201" y="172" on="1"/>
        <pt x="-196" y="178" on="0"/>
        <pt x="-146" y="235" on="0"/>
        <pt x="-74" y="318" on="0"/>
        <pt x="11" y="417" on="0"/>
        <pt x="92" y="515" on="0"/>
        <pt x="160" y="601" on="0"/>
        <pt x="180" y="629" on="1"/>
        <pt x="195" y="650" on="0"/>
        <pt x="255" y="727" on="0"/>
        <pt x="335" y="828" on="0"/>
        <pt x="427" y="946" on="0"/>
        <pt x="522" y="1068" on="0"/>
        <pt x="612" y="1188" on="0"/>
        <pt x="688" y="1293" on="0"/>
        <pt x="743" y="1378" on="0"/>
        <pt x="754" y="1403" on="1"/>
        <pt x="757" y="1411" on="0"/>
        <pt x="764" y="1411" on="1"/>
        <pt x="770" y="1411" on="0"/>
        <pt x="783" y="1398" on="0"/>
        <pt x="788" y="1389" on="1"/>
        <pt x="792" y="1381" on="0"/>
        <pt x="804" y="1373" on="0"/>
        <pt x="816" y="1367" on="0"/>
        <pt x="825" y="1361" on="0"/>
        <pt x="827" y="1354" on="1"/>
        <pt x="829" y="1344" on="0"/>
        <pt x="840" y="1322" on="0"/>
        <pt x="840" y="1305" on="1"/>
        <pt x="840" y="1292" on="0"/>
      </contour>
    </TTGlyph>
    <TTGlyph name="Kcommaaccent" xMin="-209" yMin="-469" xMax="1530" yMax="1460">
      <component glyphName="K" x="0" y="0" flags="0x204"/>
      <component glyphName="commaaccent" x="-159" y="0" flags="0x4"/>
    </TTGlyph>
    <TTGlyph name="L" xMin="-176" yMin="-41" xMax="963" yMax="1436">
      <contour>
        <pt x="956" y="190" on="1"/>
        <pt x="947" y="184" on="0"/>
        <pt x="936" y="176" on="0"/>
        <pt x="936" y="170" on="1"/>
        <pt x="936" y="166" on="0"/>
        <pt x="942" y="160" on="1"/>
        <pt x="945" y="155" on="0"/>
        <pt x="950" y="149" on="0"/>
        <pt x="950" y="147" on="1"/>
        <pt x="950" y="142" on="0"/>
        <pt x="934" y="138" on="0"/>
        <pt x="911" y="135" on="1"/>
        <pt x="893" y="133" on="0"/>
        <pt x="872" y="127" on="0"/>
        <pt x="857" y="122" on="0"/>
        <pt x="844" y="119" on="0"/>
        <pt x="834" y="119" on="1"/>
        <pt x="828" y="119" on="0"/>
        <pt x="769" y="111" on="0"/>
        <pt x="679" y="96" on="0"/>
        <pt x="565" y="78" on="0"/>
        <pt x="444" y="57" on="0"/>
        <pt x="322" y="35" on="0"/>
        <pt x="217" y="15" on="0"/>
        <pt x="134" y="-2" on="0"/>
        <pt x="113" y="-8" on="1"/>
        <pt x="80" y="-17" on="0"/>
        <pt x="14" y="-29" on="0"/>
        <pt x="-46" y="-37" on="0"/>
        <pt x="-97" y="-41" on="0"/>
        <pt x="-115" y="-41" on="1"/>
        <pt x="-139" y="-41" on="0"/>
        <pt x="-147" y="-37" on="1"/>
        <pt x="-166" y="-26" on="0"/>
        <pt x="-174" y="14" on="0"/>
        <pt x="-174" y="33" on="1"/>
        <pt x="-174" y="54" on="0"/>
        <pt x="-176" y="82" on="0"/>
        <pt x="-176" y="96" on="1"/>
        <pt x="-176" y="113" on="0"/>
        <pt x="-167" y="138" on="0"/>
        <pt x="-150" y="141" on="1"/>
        <pt x="-78" y="156" on="1"/>
        <pt x="-80" y="162" on="0"/>
        <pt x="-82" y="177" on="0"/>
        <pt x="-82" y="186" on="1"/>
        <pt x="-82" y="191" on="0"/>
        <pt x="-82" y="201" on="0"/>
        <pt x="-80" y="207" on="1"/>
        <pt x="-78" y="222" on="0"/>
        <pt x="-41" y="293" on="0"/>
        <pt x="19" y="390" on="0"/>
        <pt x="97" y="508" on="0"/>
        <pt x="183" y="634" on="0"/>
        <pt x="272" y="762" on="0"/>
        <pt x="355" y="880" on="0"/>
        <pt x="426" y="982" on="0"/>
        <pt x="451" y="1018" on="1"/>
        <pt x="501" y="1091" on="0"/>
        <pt x="600" y="1227" on="0"/>
        <pt x="684" y="1335" on="0"/>
        <pt x="744" y="1407" on="0"/>
        <pt x="754" y="1415" on="1"/>
        <pt x="782" y="1428" on="0"/>
        <pt x="816" y="1436" on="0"/>
        <pt x="825" y="1436" on="1"/>
        <pt x="836" y="1436" on="0"/>
        <pt x="853" y="1427" on="0"/>
        <pt x="862" y="1427" on="1"/>
        <pt x="867" y="1427" on="0"/>
        <pt x="879" y="1426" on="0"/>
        <pt x="887" y="1423" on="1"/>
        <pt x="896" y="1417" on="0"/>
        <pt x="908" y="1415" on="0"/>
        <pt x="924" y="1415" on="1"/>
        <pt x="930" y="1415" on="0"/>
        <pt x="944" y="1408" on="0"/>
        <pt x="944" y="1399" on="1"/>
        <pt x="944" y="1391" on="0"/>
        <pt x="934" y="1369" on="0"/>
        <pt x="920" y="1352" on="1"/>
        <pt x="881" y="1302" on="0"/>
        <pt x="776" y="1169" on="0"/>
        <pt x="654" y="1015" on="0"/>
        <pt x="524" y="847" on="0"/>
        <pt x="396" y="677" on="0"/>
        <pt x="276" y="512" on="0"/>
        <pt x="178" y="362" on="0"/>
        <pt x="106" y="236" on="0"/>
        <pt x="90" y="190" on="1"/>
        <pt x="169" y="206" on="0"/>
        <pt x="352" y="240" on="0"/>
        <pt x="533" y="269" on="0"/>
        <pt x="699" y="287" on="0"/>
        <pt x="762" y="287" on="1"/>
        <pt x="776" y="287" on="0"/>
        <pt x="801" y="287" on="0"/>
        <pt x="813" y="285" on="1"/>
        <pt x="843" y="283" on="0"/>
        <pt x="880" y="278" on="0"/>
        <pt x="904" y="270" on="0"/>
        <pt x="919" y="261" on="0"/>
        <pt x="926" y="254" on="1"/>
        <pt x="938" y="245" on="0"/>
        <pt x="963" y="212" on="0"/>
        <pt x="963" y="201" on="1"/>
        <pt x="963" y="194" on="0"/>
      </contour>
    </TTGlyph>
    <TTGlyph name="Lacute" xMin="-176" yMin="-41" xMax="1360" yMax="1866">
      <component glyphName="L" x="0" y="0" flags="0x204"/>
      <component glyphName="acute" x="459" y="598" flags="0x4"/>
    </TTGlyph>
    <TTGlyph name="Lcaron" xMin="-176" yMin="-41" xMax="1405" yMax="1436">
      <component glyphName="L" x="0" y="0" flags="0x204"/>
      <component glyphName="commaaccent" x="870" y="1530" flags="0x4"/>
    </TTGlyph>
    <TTGlyph name="Lcommaaccent" xMin="-176" yMin="-469" xMax="963" yMax="1436">
      <component glyphName="L" x="0" y="0" flags="0x204"/>
      <component glyphName="commaaccent" x="-208" y="0" flags="0x4"/>
    </TTGlyph>
    <TTGlyph name="Ldot" xMin="-176" yMin="-41" xMax="963" yMax="1436">
      <component glyphName="L" x="0" y="0" flags="0x204"/>
      <component glyphName="periodcentered" x="657" y="-28" flags="0x4"/>
    </TTGlyph>
    <TTGlyph name="Lslash" xMin="-176" yMin="-41" xMax="963" yMax="1436">
      <contour>
        <pt x="924" y="1415" on="1"/>
        <pt x="930" y="1415" on="0"/>
        <pt x="944" y="1408" on="0"/>
        <pt x="944" y="1399" on="1"/>
        <pt x="944" y="1391" on="0"/>
        <pt x="934" y="1369" on="0"/>
        <pt x="920" y="1352" on="1"/>
        <pt x="879" y="1300" on="0"/>
        <pt x="768" y="1162" on="0"/>
        <pt x="642" y="1001" on="0"/>
        <pt x="506" y="827" on="0"/>
        <pt x="440" y="739" on="1"/>
        <pt x="457" y="745" on="0"/>
        <pt x="517" y="769" on="0"/>
        <pt x="588" y="797" on="0"/>
        <pt x="662" y="826" on="0"/>
        <pt x="722" y="847" on="0"/>
        <pt x="760" y="859" on="0"/>
        <pt x="760" y="856" on="1"/>
        <pt x="760" y="848" on="0"/>
        <pt x="752" y="829" on="0"/>
        <pt x="752" y="813" on="1"/>
        <pt x="752" y="808" on="0"/>
        <pt x="753" y="806" on="0"/>
        <pt x="756" y="803" on="1"/>
        <pt x="759" y="800" on="0"/>
        <pt x="756" y="797" on="1"/>
        <pt x="754" y="794" on="0"/>
        <pt x="736" y="768" on="0"/>
        <pt x="731" y="737" on="1"/>
        <pt x="731" y="727" on="1"/>
        <pt x="730" y="725" on="0"/>
        <pt x="727" y="718" on="0"/>
        <pt x="717" y="709" on="0"/>
        <pt x="698" y="695" on="0"/>
        <pt x="682" y="686" on="1"/>
        <pt x="629" y="666" on="0"/>
        <pt x="532" y="630" on="0"/>
        <pt x="438" y="596" on="0"/>
        <pt x="345" y="561" on="0"/>
        <pt x="297" y="543" on="1"/>
        <pt x="222" y="434" on="0"/>
        <pt x="112" y="252" on="0"/>
        <pt x="90" y="190" on="1"/>
        <pt x="169" y="206" on="0"/>
        <pt x="352" y="240" on="0"/>
        <pt x="533" y="269" on="0"/>
        <pt x="699" y="287" on="0"/>
        <pt x="762" y="287" on="1"/>
        <pt x="776" y="287" on="0"/>
        <pt x="801" y="287" on="0"/>
        <pt x="813" y="285" on="1"/>
        <pt x="843" y="283" on="0"/>
        <pt x="880" y="278" on="0"/>
        <pt x="904" y="270" on="0"/>
        <pt x="919" y="261" on="0"/>
        <pt x="926" y="254" on="1"/>
        <pt x="938" y="245" on="0"/>
        <pt x="963" y="212" on="0"/>
        <pt x="963" y="201" on="1"/>
        <pt x="963" y="194" on="0"/>
        <pt x="956" y="190" on="1"/>
        <pt x="947" y="184" on="0"/>
        <pt x="936" y="176" on="0"/>
        <pt x="936" y="170" on="1"/>
        <pt x="936" y="166" on="0"/>
        <pt x="942" y="160" on="1"/>
        <pt x="945" y="155" on="0"/>
        <pt x="950" y="149" on="0"/>
        <pt x="950" y="147" on="1"/>
        <pt x="950" y="142" on="0"/>
        <pt x="934" y="138" on="0"/>
        <pt x="911" y="135" on="1"/>
        <pt x="893" y="133" on="0"/>
        <pt x="872" y="127" on="0"/>
        <pt x="857" y="122" on="0"/>
        <pt x="844" y="119" on="0"/>
        <pt x="834" y="119" on="1"/>
        <pt x="828" y="119" on="0"/>
        <pt x="769" y="111" on="0"/>
        <pt x="679" y="96" on="0"/>
        <pt x="565" y="78" on="0"/>
        <pt x="444" y="57" on="0"/>
        <pt x="322" y="35" on="0"/>
        <pt x="217" y="15" on="0"/>
        <pt x="134" y="-2" on="0"/>
        <pt x="113" y="-8" on="1"/>
        <pt x="80" y="-17" on="0"/>
        <pt x="14" y="-29" on="0"/>
        <pt x="-46" y="-37" on="0"/>
        <pt x="-97" y="-41" on="0"/>
        <pt x="-115" y="-41" on="1"/>
        <pt x="-139" y="-41" on="0"/>
        <pt x="-147" y="-37" on="1"/>
        <pt x="-166" y="-26" on="0"/>
        <pt x="-174" y="14" on="0"/>
        <pt x="-174" y="33" on="1"/>
        <pt x="-174" y="54" on="0"/>
        <pt x="-176" y="82" on="0"/>
        <pt x="-176" y="96" on="1"/>
        <pt x="-176" y="113" on="0"/>
        <pt x="-167" y="138" on="0"/>
        <pt x="-150" y="141" on="1"/>
        <pt x="-78" y="156" on="1"/>
        <pt x="-80" y="162" on="0"/>
        <pt x="-82" y="177" on="0"/>
        <pt x="-82" y="186" on="1"/>
        <pt x="-82" y="191" on="0"/>
        <pt x="-82" y="201" on="0"/>
        <pt x="-80" y="207" on="1"/>
        <pt x="-79" y="219" on="0"/>
        <pt x="-56" y="264" on="0"/>
        <pt x="-20" y="325" on="0"/>
        <pt x="28" y="401" on="0"/>
        <pt x="55" y="444" on="1"/>
        <pt x="23" y="431" on="0"/>
        <pt x="-36" y="407" on="0"/>
        <pt x="-83" y="387" on="0"/>
        <pt x="-115" y="374" on="0"/>
        <pt x="-121" y="373" on="1"/>
        <pt x="-125" y="373" on="1"/>
        <pt x="-140" y="373" on="0"/>
        <pt x="-150" y="395" on="0"/>
        <pt x="-150" y="406" on="1"/>
        <pt x="-150" y="420" on="0"/>
        <pt x="-147" y="424" on="1"/>
        <pt x="-146" y="428" on="0"/>
        <pt x="-136" y="439" on="0"/>
        <pt x="-125" y="449" on="0"/>
        <pt x="-116" y="459" on="0"/>
        <pt x="-115" y="463" on="1"/>
        <pt x="-115" y="464" on="0"/>
        <pt x="-124" y="467" on="0"/>
        <pt x="-136" y="470" on="0"/>
        <pt x="-145" y="477" on="0"/>
        <pt x="-145" y="483" on="1"/>
        <pt x="-145" y="485" on="1"/>
        <pt x="-108" y="504" on="0"/>
        <pt x="-59" y="529" on="1"/>
        <pt x="-17" y="550" on="0"/>
        <pt x="106" y="607" on="0"/>
        <pt x="186" y="641" on="1"/>
        <pt x="225" y="696" on="0"/>
        <pt x="301" y="804" on="0"/>
        <pt x="370" y="902" on="0"/>
        <pt x="429" y="986" on="0"/>
        <pt x="451" y="1018" on="1"/>
        <pt x="501" y="1091" on="0"/>
        <pt x="600" y="1227" on="0"/>
        <pt x="684" y="1335" on="0"/>
        <pt x="744" y="1407" on="0"/>
        <pt x="754" y="1415" on="1"/>
        <pt x="782" y="1428" on="0"/>
        <pt x="816" y="1436" on="0"/>
        <pt x="825" y="1436" on="1"/>
        <pt x="836" y="1436" on="0"/>
        <pt x="853" y="1427" on="0"/>
        <pt x="862" y="1427" on="1"/>
        <pt x="867" y="1427" on="0"/>
        <pt x="879" y="1426" on="0"/>
        <pt x="887" y="1423" on="1"/>
        <pt x="896" y="1417" on="0"/>
        <pt x="908" y="1415" on="0"/>
      </contour>
    </TTGlyph>
    <TTGlyph name="M" xMin="-166" yMin="-33" xMax="2023" yMax="1417">
      <contour>
        <pt x="909" y="1323" on="1"/>
        <pt x="907" y="1316" on="0"/>
        <pt x="887" y="1241" on="0"/>
        <pt x="855" y="1125" on="0"/>
        <pt x="815" y="976" on="0"/>
        <pt x="770" y="811" on="0"/>
        <pt x="725" y="640" on="0"/>
        <pt x="683" y="481" on="0"/>
        <pt x="647" y="342" on="0"/>
        <pt x="635" y="291" on="1"/>
        <pt x="695" y="353" on="0"/>
        <pt x="852" y="510" on="0"/>
        <pt x="1026" y="682" on="0"/>
        <pt x="1211" y="861" on="0"/>
        <pt x="1387" y="1030" on="0"/>
        <pt x="1547" y="1181" on="0"/>
        <pt x="1672" y="1297" on="0"/>
        <pt x="1754" y="1370" on="0"/>
        <pt x="1765" y="1376" on="1"/>
        <pt x="1773" y="1381" on="0"/>
        <pt x="1782" y="1385" on="0"/>
        <pt x="1788" y="1388" on="0"/>
        <pt x="1793" y="1390" on="0"/>
        <pt x="1796" y="1393" on="1"/>
        <pt x="1798" y="1396" on="0"/>
        <pt x="1802" y="1397" on="0"/>
        <pt x="1810" y="1397" on="1"/>
        <pt x="1820" y="1398" on="0"/>
        <pt x="1833" y="1398" on="0"/>
        <pt x="1851" y="1407" on="1"/>
        <pt x="1858" y="1412" on="0"/>
        <pt x="1868" y="1417" on="0"/>
        <pt x="1874" y="1417" on="1"/>
        <pt x="1882" y="1417" on="0"/>
        <pt x="1895" y="1409" on="0"/>
        <pt x="1905" y="1403" on="1"/>
        <pt x="1920" y="1391" on="0"/>
        <pt x="1931" y="1391" on="1"/>
        <pt x="1939" y="1391" on="0"/>
        <pt x="1948" y="1401" on="0"/>
        <pt x="1954" y="1401" on="1"/>
        <pt x="1962" y="1401" on="0"/>
        <pt x="1970" y="1386" on="0"/>
        <pt x="1978" y="1386" on="1"/>
        <pt x="1983" y="1386" on="0"/>
        <pt x="1993" y="1391" on="0"/>
        <pt x="1999" y="1391" on="1"/>
        <pt x="2003" y="1391" on="0"/>
        <pt x="2013" y="1386" on="1"/>
        <pt x="2023" y="1381" on="0"/>
        <pt x="2023" y="1372" on="1"/>
        <pt x="2023" y="1367" on="0"/>
        <pt x="2016" y="1357" on="0"/>
        <pt x="2013" y="1352" on="1"/>
        <pt x="2009" y="1345" on="0"/>
        <pt x="1958" y="1265" on="0"/>
        <pt x="1879" y="1143" on="0"/>
        <pt x="1779" y="990" on="0"/>
        <pt x="1674" y="830" on="0"/>
        <pt x="1571" y="675" on="0"/>
        <pt x="1528" y="612" on="1"/>
        <pt x="1517" y="596" on="0"/>
        <pt x="1462" y="510" on="0"/>
        <pt x="1388" y="394" on="0"/>
        <pt x="1302" y="261" on="0"/>
        <pt x="1217" y="135" on="0"/>
        <pt x="1139" y="29" on="0"/>
        <pt x="1110" y="-2" on="1"/>
        <pt x="1102" y="-10" on="0"/>
        <pt x="1072" y="-18" on="0"/>
        <pt x="1055" y="-18" on="1"/>
        <pt x="1040" y="-18" on="0"/>
        <pt x="1022" y="-5" on="0"/>
        <pt x="1009" y="15" on="0"/>
        <pt x="999" y="37" on="0"/>
        <pt x="991" y="45" on="1"/>
        <pt x="980" y="56" on="0"/>
        <pt x="967" y="69" on="0"/>
        <pt x="967" y="78" on="1"/>
        <pt x="967" y="86" on="0"/>
        <pt x="976" y="107" on="0"/>
        <pt x="985" y="127" on="1"/>
        <pt x="992" y="141" on="0"/>
        <pt x="1035" y="201" on="0"/>
        <pt x="1097" y="283" on="0"/>
        <pt x="1173" y="382" on="0"/>
        <pt x="1250" y="487" on="0"/>
        <pt x="1324" y="594" on="0"/>
        <pt x="1354" y="643" on="1"/>
        <pt x="1379" y="686" on="0"/>
        <pt x="1465" y="806" on="0"/>
        <pt x="1563" y="938" on="0"/>
        <pt x="1663" y="1073" on="0"/>
        <pt x="1745" y="1189" on="0"/>
        <pt x="1796" y="1276" on="0"/>
        <pt x="1796" y="1294" on="1"/>
        <pt x="1796" y="1297" on="0"/>
        <pt x="1794" y="1301" on="0"/>
        <pt x="1792" y="1303" on="1"/>
        <pt x="1759" y="1283" on="0"/>
        <pt x="1638" y="1171" on="0"/>
        <pt x="1483" y="1012" on="0"/>
        <pt x="1300" y="817" on="0"/>
        <pt x="1109" y="610" on="0"/>
        <pt x="919" y="402" on="0"/>
        <pt x="747" y="216" on="0"/>
        <pt x="602" y="65" on="0"/>
        <pt x="553" y="18" on="1"/>
        <pt x="520" y="-8" on="1"/>
        <pt x="515" y="-11" on="0"/>
        <pt x="510" y="-16" on="0"/>
        <pt x="508" y="-16" on="1"/>
        <pt x="506" y="-16" on="0"/>
        <pt x="504" y="-14" on="0"/>
        <pt x="502" y="-14" on="1"/>
        <pt x="488" y="-14" on="0"/>
        <pt x="485" y="0" on="1"/>
        <pt x="477" y="4" on="1"/>
        <pt x="472" y="4" on="0"/>
        <pt x="468" y="-6" on="0"/>
        <pt x="463" y="-6" on="1"/>
        <pt x="458" y="-6" on="0"/>
        <pt x="449" y="12" on="0"/>
        <pt x="444" y="41" on="1"/>
        <pt x="432" y="49" on="0"/>
        <pt x="428" y="100" on="0"/>
        <pt x="428" y="131" on="1"/>
        <pt x="428" y="144" on="0"/>
        <pt x="449" y="257" on="0"/>
        <pt x="486" y="426" on="0"/>
        <pt x="537" y="633" on="0"/>
        <pt x="595" y="849" on="0"/>
        <pt x="658" y="1055" on="0"/>
        <pt x="690" y="1139" on="1"/>
        <pt x="664" y="1103" on="0"/>
        <pt x="588" y="996" on="0"/>
        <pt x="499" y="868" on="0"/>
        <pt x="400" y="724" on="0"/>
        <pt x="301" y="579" on="0"/>
        <pt x="206" y="440" on="0"/>
        <pt x="126" y="319" on="0"/>
        <pt x="64" y="225" on="0"/>
        <pt x="47" y="197" on="1"/>
        <pt x="9" y="135" on="0"/>
        <pt x="-40" y="58" on="0"/>
        <pt x="-70" y="13" on="0"/>
        <pt x="-86" y="-9" on="0"/>
        <pt x="-92" y="-16" on="1"/>
        <pt x="-98" y="-24" on="0"/>
        <pt x="-117" y="-33" on="0"/>
        <pt x="-125" y="-33" on="1"/>
        <pt x="-133" y="-33" on="0"/>
        <pt x="-143" y="-24" on="0"/>
        <pt x="-143" y="-14" on="1"/>
        <pt x="-143" y="-1" on="0"/>
        <pt x="-150" y="16" on="0"/>
        <pt x="-157" y="30" on="0"/>
        <pt x="-164" y="44" on="0"/>
        <pt x="-164" y="55" on="1"/>
        <pt x="-164" y="68" on="0"/>
        <pt x="-166" y="75" on="0"/>
        <pt x="-166" y="80" on="1"/>
        <pt x="-166" y="83" on="0"/>
        <pt x="-165" y="95" on="0"/>
        <pt x="-160" y="109" on="1"/>
        <pt x="-146" y="160" on="0"/>
        <pt x="-67" y="295" on="0"/>
        <pt x="37" y="443" on="0"/>
        <pt x="152" y="596" on="0"/>
        <pt x="203" y="666" on="1"/>
        <pt x="237" y="713" on="0"/>
        <pt x="331" y="836" on="0"/>
        <pt x="436" y="969" on="0"/>
        <pt x="546" y="1103" on="0"/>
        <pt x="645" y="1220" on="0"/>
        <pt x="725" y="1311" on="0"/>
        <pt x="748" y="1335" on="1"/>
        <pt x="760" y="1349" on="0"/>
        <pt x="776" y="1360" on="0"/>
        <pt x="782" y="1360" on="1"/>
        <pt x="787" y="1360" on="0"/>
        <pt x="795" y="1356" on="1"/>
        <pt x="800" y="1364" on="0"/>
        <pt x="809" y="1374" on="0"/>
        <pt x="815" y="1374" on="1"/>
        <pt x="819" y="1374" on="0"/>
        <pt x="827" y="1364" on="0"/>
        <pt x="833" y="1351" on="0"/>
        <pt x="838" y="1341" on="0"/>
        <pt x="840" y="1341" on="1"/>
        <pt x="840" y="1348" on="0"/>
        <pt x="846" y="1354" on="0"/>
        <pt x="855" y="1359" on="0"/>
        <pt x="865" y="1364" on="0"/>
        <pt x="868" y="1370" on="1"/>
        <pt x="871" y="1376" on="0"/>
        <pt x="877" y="1376" on="1"/>
        <pt x="882" y="1376" on="0"/>
        <pt x="892" y="1363" on="0"/>
        <pt x="897" y="1360" on="1"/>
        <pt x="898" y="1358" on="0"/>
        <pt x="903" y="1357" on="0"/>
        <pt x="908" y="1355" on="0"/>
        <pt x="911" y="1349" on="0"/>
        <pt x="911" y="1343" on="1"/>
        <pt x="909" y="1323" on="1"/>
      </contour>
    </TTGlyph>
    <TTGlyph name="N" xMin="-205" yMin="-57" xMax="1657" yMax="1419">
      <contour>
        <pt x="1655" y="1303" on="1"/>
        <pt x="1657" y="1298" on="0"/>
        <pt x="1657" y="1290" on="1"/>
        <pt x="1657" y="1282" on="0"/>
        <pt x="1650" y="1260" on="0"/>
        <pt x="1642" y="1235" on="1"/>
        <pt x="1634" y="1211" on="0"/>
        <pt x="1578" y="1112" on="0"/>
        <pt x="1489" y="976" on="0"/>
        <pt x="1369" y="807" on="0"/>
        <pt x="1228" y="617" on="0"/>
        <pt x="1069" y="413" on="0"/>
        <pt x="985" y="309" on="1"/>
        <pt x="894" y="198" on="0"/>
        <pt x="778" y="63" on="0"/>
        <pt x="758" y="35" on="1"/>
        <pt x="745" y="16" on="0"/>
        <pt x="715" y="-12" on="0"/>
        <pt x="698" y="-12" on="1"/>
        <pt x="689" y="-12" on="0"/>
        <pt x="669" y="-2" on="0"/>
        <pt x="659" y="10" on="1"/>
        <pt x="652" y="19" on="0"/>
        <pt x="642" y="59" on="0"/>
        <pt x="636" y="117" on="0"/>
        <pt x="633" y="191" on="0"/>
        <pt x="633" y="233" on="1"/>
        <pt x="633" y="315" on="0"/>
        <pt x="641" y="505" on="0"/>
        <pt x="647" y="596" on="1"/>
        <pt x="651" y="664" on="0"/>
        <pt x="659" y="816" on="0"/>
        <pt x="667" y="963" on="0"/>
        <pt x="674" y="1096" on="0"/>
        <pt x="678" y="1145" on="1"/>
        <pt x="500" y="889" on="1"/>
        <pt x="477" y="856" on="0"/>
        <pt x="404" y="744" on="0"/>
        <pt x="318" y="612" on="0"/>
        <pt x="226" y="471" on="0"/>
        <pt x="146" y="345" on="0"/>
        <pt x="84" y="246" on="0"/>
        <pt x="70" y="223" on="1"/>
        <pt x="20" y="137" on="0"/>
        <pt x="-69" y="5" on="0"/>
        <pt x="-88" y="-37" on="1"/>
        <pt x="-93" y="-48" on="0"/>
        <pt x="-97" y="-57" on="0"/>
        <pt x="-100" y="-57" on="1"/>
        <pt x="-103" y="-57" on="0"/>
        <pt x="-114" y="-52" on="0"/>
        <pt x="-125" y="-49" on="1"/>
        <pt x="-148" y="-45" on="0"/>
        <pt x="-154" y="-32" on="0"/>
        <pt x="-158" y="-23" on="1"/>
        <pt x="-161" y="-18" on="0"/>
        <pt x="-173" y="-18" on="0"/>
        <pt x="-176" y="-18" on="1"/>
        <pt x="-185" y="-18" on="0"/>
        <pt x="-195" y="-8" on="0"/>
        <pt x="-201" y="7" on="0"/>
        <pt x="-204" y="23" on="0"/>
        <pt x="-205" y="29" on="1"/>
        <pt x="-185" y="81" on="0"/>
        <pt x="-112" y="215" on="0"/>
        <pt x="-17" y="366" on="0"/>
        <pt x="96" y="530" on="0"/>
        <pt x="215" y="694" on="0"/>
        <pt x="335" y="851" on="0"/>
        <pt x="391" y="920" on="1"/>
        <pt x="475" y="1024" on="0"/>
        <pt x="593" y="1174" on="0"/>
        <pt x="670" y="1274" on="0"/>
        <pt x="712" y="1328" on="0"/>
        <pt x="719" y="1337" on="1"/>
        <pt x="724" y="1344" on="0"/>
        <pt x="730" y="1355" on="0"/>
        <pt x="735" y="1358" on="1"/>
        <pt x="740" y="1367" on="0"/>
        <pt x="749" y="1379" on="0"/>
        <pt x="752" y="1384" on="1"/>
        <pt x="759" y="1393" on="0"/>
        <pt x="774" y="1393" on="1"/>
        <pt x="779" y="1393" on="0"/>
        <pt x="789" y="1389" on="0"/>
        <pt x="791" y="1384" on="1"/>
        <pt x="797" y="1366" on="0"/>
        <pt x="801" y="1366" on="1"/>
        <pt x="804" y="1366" on="0"/>
        <pt x="812" y="1386" on="0"/>
        <pt x="823" y="1391" on="1"/>
        <pt x="829" y="1393" on="0"/>
        <pt x="835" y="1394" on="0"/>
        <pt x="838" y="1397" on="0"/>
        <pt x="841" y="1402" on="0"/>
        <pt x="846" y="1409" on="1"/>
        <pt x="853" y="1419" on="0"/>
        <pt x="862" y="1419" on="1"/>
        <pt x="868" y="1419" on="0"/>
        <pt x="879" y="1404" on="0"/>
        <pt x="879" y="1384" on="1"/>
        <pt x="878" y="1374" on="0"/>
        <pt x="877" y="1310" on="0"/>
        <pt x="874" y="1217" on="0"/>
        <pt x="870" y="1104" on="0"/>
        <pt x="865" y="987" on="0"/>
        <pt x="858" y="876" on="0"/>
        <pt x="854" y="831" on="1"/>
        <pt x="849" y="774" on="0"/>
        <pt x="847" y="640" on="0"/>
        <pt x="846" y="505" on="0"/>
        <pt x="845" y="381" on="0"/>
        <pt x="842" y="336" on="1"/>
        <pt x="864" y="366" on="0"/>
        <pt x="931" y="458" on="0"/>
        <pt x="1010" y="566" on="0"/>
        <pt x="1094" y="683" on="0"/>
        <pt x="1175" y="795" on="0"/>
        <pt x="1246" y="894" on="0"/>
        <pt x="1272" y="930" on="1"/>
        <pt x="1317" y="992" on="0"/>
        <pt x="1412" y="1123" on="0"/>
        <pt x="1490" y="1235" on="0"/>
        <pt x="1543" y="1315" on="0"/>
        <pt x="1548" y="1327" on="1"/>
        <pt x="1559" y="1350" on="0"/>
        <pt x="1581" y="1358" on="0"/>
        <pt x="1593" y="1358" on="1"/>
        <pt x="1602" y="1358" on="0"/>
        <pt x="1602" y="1343" on="1"/>
        <pt x="1602" y="1337" on="0"/>
        <pt x="1604" y="1337" on="1"/>
        <pt x="1607" y="1337" on="0"/>
        <pt x="1623" y="1352" on="0"/>
        <pt x="1628" y="1352" on="1"/>
        <pt x="1634" y="1352" on="0"/>
        <pt x="1644" y="1344" on="0"/>
        <pt x="1649" y="1331" on="1"/>
        <pt x="1649" y="1326" on="0"/>
        <pt x="1650" y="1316" on="0"/>
        <pt x="1652" y="1312" on="1"/>
        <pt x="1653" y="1307" on="0"/>
      </contour>
    </TTGlyph>
    <TTGlyph name="Nacute" xMin="-205" yMin="-57" xMax="1657" yMax="1805">
      <component glyphName="N" x="0" y="0" flags="0x204"/>
      <component glyphName="acute" x="752" y="537" flags="0x4"/>
    </TTGlyph>
    <TTGlyph name="Ncaron" xMin="-205" yMin="-57" xMax="1657" yMax="1801">
      <component glyphName="N" x="0" y="0" flags="0x204"/>
      <component glyphName="caron" x="707" y="537" flags="0x4"/>
    </TTGlyph>
    <TTGlyph name="Ncommaaccent" xMin="-205" yMin="-469" xMax="1657" yMax="1419">
      <component glyphName="N" x="0" y="0" flags="0x204"/>
      <component glyphName="commaaccent" x="-155" y="0" flags="0x4"/>
    </TTGlyph>
    <TTGlyph name="Ntilde" xMin="-205" yMin="-57" xMax="1661" yMax="1784">
      <component glyphName="N" x="0" y="0" flags="0x204"/>
      <component glyphName="tilde" x="719" y="537" flags="0x4"/>
    </TTGlyph>
    <TTGlyph name="O" xMin="-8" yMin="-25" xMax="1266" yMax="1376">
      <contour>
        <pt x="1006" y="1284" on="1"/>
        <pt x="1006" y="1276" on="0"/>
        <pt x="992" y="1258" on="0"/>
        <pt x="971" y="1242" on="0"/>
        <pt x="947" y="1230" on="0"/>
        <pt x="936" y="1227" on="1"/>
        <pt x="907" y="1218" on="0"/>
        <pt x="791" y="1165" on="0"/>
        <pt x="631" y="1057" on="0"/>
        <pt x="431" y="886" on="0"/>
        <pt x="317" y="760" on="1"/>
        <pt x="261" y="698" on="0"/>
        <pt x="183" y="579" on="0"/>
        <pt x="135" y="471" on="0"/>
        <pt x="113" y="373" on="0"/>
        <pt x="113" y="332" on="1"/>
        <pt x="113" y="269" on="0"/>
        <pt x="135" y="223" on="1"/>
        <pt x="160" y="188" on="0"/>
        <pt x="234" y="156" on="0"/>
        <pt x="281" y="156" on="1"/>
        <pt x="345" y="156" on="0"/>
        <pt x="498" y="214" on="0"/>
        <pt x="661" y="320" on="0"/>
        <pt x="825" y="468" on="0"/>
        <pt x="899" y="559" on="1"/>
        <pt x="974" y="652" on="0"/>
        <pt x="1075" y="821" on="0"/>
        <pt x="1136" y="970" on="0"/>
        <pt x="1161" y="1095" on="0"/>
        <pt x="1161" y="1143" on="1"/>
        <pt x="1161" y="1191" on="0"/>
        <pt x="1140" y="1256" on="0"/>
        <pt x="1124" y="1272" on="1"/>
        <pt x="1113" y="1281" on="0"/>
        <pt x="1091" y="1292" on="0"/>
        <pt x="1083" y="1300" on="1"/>
        <pt x="1079" y="1306" on="0"/>
        <pt x="1079" y="1307" on="1"/>
        <pt x="1079" y="1310" on="0"/>
        <pt x="1081" y="1316" on="0"/>
        <pt x="1081" y="1319" on="1"/>
        <pt x="1081" y="1323" on="0"/>
        <pt x="1077" y="1325" on="1"/>
        <pt x="1071" y="1328" on="0"/>
        <pt x="1059" y="1340" on="0"/>
        <pt x="1059" y="1343" on="1"/>
        <pt x="1059" y="1346" on="0"/>
        <pt x="1063" y="1346" on="1"/>
        <pt x="1067" y="1346" on="1"/>
        <pt x="1071" y="1346" on="0"/>
        <pt x="1074" y="1351" on="0"/>
        <pt x="1079" y="1357" on="0"/>
        <pt x="1086" y="1362" on="0"/>
        <pt x="1094" y="1362" on="1"/>
        <pt x="1101" y="1362" on="0"/>
        <pt x="1128" y="1354" on="0"/>
        <pt x="1162" y="1332" on="0"/>
        <pt x="1200" y="1292" on="0"/>
        <pt x="1219" y="1260" on="1"/>
        <pt x="1240" y="1221" on="0"/>
        <pt x="1266" y="1107" on="0"/>
        <pt x="1266" y="1036" on="1"/>
        <pt x="1266" y="962" on="0"/>
        <pt x="1234" y="789" on="0"/>
        <pt x="1162" y="606" on="0"/>
        <pt x="1047" y="419" on="0"/>
        <pt x="963" y="330" on="1"/>
        <pt x="881" y="243" on="0"/>
        <pt x="728" y="123" on="0"/>
        <pt x="591" y="44" on="0"/>
        <pt x="472" y="0" on="0"/>
        <pt x="376" y="-21" on="0"/>
        <pt x="304" y="-25" on="0"/>
        <pt x="283" y="-25" on="1"/>
        <pt x="241" y="-25" on="0"/>
        <pt x="165" y="12" on="0"/>
        <pt x="100" y="71" on="0"/>
        <pt x="49" y="147" on="0"/>
        <pt x="33" y="186" on="1"/>
        <pt x="11" y="215" on="0"/>
        <pt x="-8" y="286" on="0"/>
        <pt x="-8" y="328" on="1"/>
        <pt x="-8" y="385" on="0"/>
        <pt x="26" y="514" on="0"/>
        <pt x="84" y="649" on="0"/>
        <pt x="162" y="785" on="0"/>
        <pt x="207" y="850" on="1"/>
        <pt x="257" y="923" on="0"/>
        <pt x="388" y="1057" on="0"/>
        <pt x="530" y="1174" on="0"/>
        <pt x="674" y="1270" on="0"/>
        <pt x="800" y="1338" on="0"/>
        <pt x="899" y="1376" on="0"/>
        <pt x="926" y="1376" on="1"/>
        <pt x="942" y="1376" on="0"/>
        <pt x="959" y="1373" on="0"/>
        <pt x="970" y="1368" on="0"/>
        <pt x="979" y="1362" on="0"/>
        <pt x="987" y="1358" on="1"/>
        <pt x="1000" y="1352" on="0"/>
        <pt x="1004" y="1335" on="0"/>
        <pt x="1004" y="1323" on="1"/>
        <pt x="1004" y="1309" on="0"/>
        <pt x="1006" y="1292" on="0"/>
      </contour>
    </TTGlyph>
    <TTGlyph name="OE" xMin="-8" yMin="-37" xMax="2382" yMax="1427">
      <contour>
        <pt x="1006" y="1284" on="1"/>
        <pt x="1006" y="1276" on="0"/>
        <pt x="992" y="1258" on="0"/>
        <pt x="971" y="1242" on="0"/>
        <pt x="947" y="1230" on="0"/>
        <pt x="936" y="1227" on="1"/>
        <pt x="907" y="1218" on="0"/>
        <pt x="791" y="1165" on="0"/>
        <pt x="631" y="1057" on="0"/>
        <pt x="431" y="886" on="0"/>
        <pt x="317" y="760" on="1"/>
        <pt x="261" y="698" on="0"/>
        <pt x="183" y="579" on="0"/>
        <pt x="135" y="471" on="0"/>
        <pt x="113" y="373" on="0"/>
        <pt x="113" y="332" on="1"/>
        <pt x="113" y="269" on="0"/>
        <pt x="135" y="223" on="1"/>
        <pt x="160" y="188" on="0"/>
        <pt x="234" y="156" on="0"/>
        <pt x="281" y="156" on="1"/>
        <pt x="345" y="156" on="0"/>
        <pt x="498" y="214" on="0"/>
        <pt x="661" y="320" on="0"/>
        <pt x="825" y="468" on="0"/>
        <pt x="899" y="559" on="1"/>
        <pt x="974" y="652" on="0"/>
        <pt x="1075" y="821" on="0"/>
        <pt x="1136" y="970" on="0"/>
        <pt x="1161" y="1095" on="0"/>
        <pt x="1161" y="1143" on="1"/>
        <pt x="1161" y="1191" on="0"/>
        <pt x="1140" y="1256" on="0"/>
        <pt x="1124" y="1272" on="1"/>
        <pt x="1113" y="1281" on="0"/>
        <pt x="1091" y="1292" on="0"/>
        <pt x="1083" y="1300" on="1"/>
        <pt x="1079" y="1306" on="0"/>
        <pt x="1079" y="1307" on="1"/>
        <pt x="1079" y="1310" on="0"/>
        <pt x="1081" y="1316" on="0"/>
        <pt x="1081" y="1319" on="1"/>
        <pt x="1081" y="1323" on="0"/>
        <pt x="1077" y="1325" on="1"/>
        <pt x="1071" y="1328" on="0"/>
        <pt x="1059" y="1340" on="0"/>
        <pt x="1059" y="1343" on="1"/>
        <pt x="1059" y="1346" on="0"/>
        <pt x="1063" y="1346" on="1"/>
        <pt x="1067" y="1346" on="1"/>
        <pt x="1071" y="1346" on="0"/>
        <pt x="1074" y="1351" on="0"/>
        <pt x="1079" y="1357" on="0"/>
        <pt x="1086" y="1362" on="0"/>
        <pt x="1094" y="1362" on="1"/>
        <pt x="1101" y="1362" on="0"/>
        <pt x="1128" y="1354" on="0"/>
        <pt x="1162" y="1332" on="0"/>
        <pt x="1200" y="1292" on="0"/>
        <pt x="1219" y="1260" on="1"/>
        <pt x="1240" y="1221" on="0"/>
        <pt x="1266" y="1107" on="0"/>
        <pt x="1266" y="1036" on="1"/>
        <pt x="1266" y="1021" on="0"/>
        <pt x="1264" y="990" on="0"/>
        <pt x="1262" y="975" on="1"/>
        <pt x="1314" y="1041" on="0"/>
        <pt x="1407" y="1155" on="0"/>
        <pt x="1442" y="1198" on="1"/>
        <pt x="1425" y="1206" on="1"/>
        <pt x="1418" y="1207" on="0"/>
        <pt x="1413" y="1213" on="0"/>
        <pt x="1409" y="1220" on="0"/>
        <pt x="1404" y="1227" on="0"/>
        <pt x="1397" y="1229" on="1"/>
        <pt x="1393" y="1230" on="0"/>
        <pt x="1386" y="1242" on="0"/>
        <pt x="1381" y="1259" on="0"/>
        <pt x="1378" y="1278" on="0"/>
        <pt x="1378" y="1286" on="1"/>
        <pt x="1378" y="1294" on="0"/>
        <pt x="1382" y="1298" on="1"/>
        <pt x="1389" y="1301" on="0"/>
        <pt x="1389" y="1305" on="1"/>
        <pt x="1389" y="1310" on="0"/>
        <pt x="1386" y="1318" on="0"/>
        <pt x="1386" y="1323" on="1"/>
        <pt x="1386" y="1329" on="0"/>
        <pt x="1396" y="1346" on="0"/>
        <pt x="1413" y="1354" on="1"/>
        <pt x="1431" y="1363" on="0"/>
        <pt x="1511" y="1380" on="0"/>
        <pt x="1620" y="1397" on="0"/>
        <pt x="1753" y="1411" on="0"/>
        <pt x="1895" y="1421" on="0"/>
        <pt x="2040" y="1427" on="0"/>
        <pt x="2107" y="1427" on="1"/>
        <pt x="2169" y="1427" on="0"/>
        <pt x="2278" y="1421" on="0"/>
        <pt x="2320" y="1415" on="1"/>
        <pt x="2346" y="1410" on="0"/>
        <pt x="2359" y="1394" on="0"/>
        <pt x="2359" y="1384" on="1"/>
        <pt x="2359" y="1373" on="0"/>
        <pt x="2359" y="1366" on="0"/>
        <pt x="2361" y="1366" on="1"/>
        <pt x="2368" y="1363" on="0"/>
        <pt x="2382" y="1361" on="0"/>
        <pt x="2382" y="1356" on="1"/>
        <pt x="2382" y="1354" on="0"/>
        <pt x="2378" y="1350" on="1"/>
        <pt x="2372" y="1344" on="0"/>
        <pt x="2366" y="1338" on="0"/>
        <pt x="2363" y="1333" on="0"/>
        <pt x="2361" y="1325" on="0"/>
        <pt x="2359" y="1317" on="1"/>
        <pt x="2353" y="1300" on="0"/>
        <pt x="2319" y="1277" on="0"/>
        <pt x="2288" y="1272" on="1"/>
        <pt x="2278" y="1271" on="0"/>
        <pt x="2201" y="1265" on="0"/>
        <pt x="2088" y="1258" on="0"/>
        <pt x="1949" y="1250" on="0"/>
        <pt x="1809" y="1239" on="0"/>
        <pt x="1677" y="1227" on="0"/>
        <pt x="1626" y="1221" on="1"/>
        <pt x="1593" y="1179" on="0"/>
        <pt x="1510" y="1070" on="0"/>
        <pt x="1421" y="953" on="0"/>
        <pt x="1334" y="837" on="0"/>
        <pt x="1298" y="788" on="1"/>
        <pt x="1345" y="797" on="0"/>
        <pt x="1444" y="812" on="0"/>
        <pt x="1543" y="823" on="0"/>
        <pt x="1637" y="829" on="0"/>
        <pt x="1679" y="829" on="1"/>
        <pt x="1718" y="829" on="0"/>
        <pt x="1785" y="824" on="0"/>
        <pt x="1812" y="819" on="1"/>
        <pt x="1832" y="815" on="0"/>
        <pt x="1861" y="794" on="0"/>
        <pt x="1879" y="766" on="0"/>
        <pt x="1888" y="737" on="0"/>
        <pt x="1888" y="725" on="1"/>
        <pt x="1888" y="716" on="0"/>
        <pt x="1885" y="702" on="0"/>
        <pt x="1880" y="700" on="1"/>
        <pt x="1872" y="695" on="0"/>
        <pt x="1843" y="683" on="0"/>
        <pt x="1809" y="673" on="0"/>
        <pt x="1771" y="664" on="0"/>
        <pt x="1753" y="662" on="1"/>
        <pt x="1743" y="660" on="0"/>
        <pt x="1673" y="653" on="0"/>
        <pt x="1573" y="644" on="0"/>
        <pt x="1456" y="636" on="0"/>
        <pt x="1341" y="629" on="0"/>
        <pt x="1242" y="625" on="0"/>
        <pt x="1210" y="625" on="1"/>
        <pt x="1182" y="625" on="1"/>
        <pt x="1148" y="577" on="0"/>
        <pt x="1056" y="443" on="0"/>
        <pt x="960" y="303" on="0"/>
        <pt x="874" y="171" on="0"/>
        <pt x="846" y="125" on="1"/>
        <pt x="895" y="137" on="0"/>
        <pt x="1016" y="161" on="0"/>
        <pt x="1092" y="172" on="1"/>
        <pt x="1154" y="182" on="0"/>
        <pt x="1279" y="200" on="0"/>
        <pt x="1398" y="213" on="0"/>
        <pt x="1507" y="221" on="0"/>
        <pt x="1552" y="221" on="1"/>
        <pt x="1625" y="221" on="0"/>
        <pt x="1669" y="209" on="1"/>
        <pt x="1689" y="203" on="0"/>
        <pt x="1730" y="174" on="0"/>
        <pt x="1763" y="142" on="0"/>
        <pt x="1784" y="114" on="0"/>
        <pt x="1784" y="109" on="1"/>
        <pt x="1784" y="104" on="0"/>
        <pt x="1780" y="104" on="1"/>
        <pt x="1774" y="104" on="0"/>
        <pt x="1774" y="100" on="1"/>
        <pt x="1774" y="95" on="0"/>
        <pt x="1784" y="74" on="0"/>
        <pt x="1784" y="63" on="1"/>
        <pt x="1784" y="53" on="0"/>
        <pt x="1774" y="43" on="1"/>
        <pt x="1767" y="38" on="0"/>
        <pt x="1756" y="28" on="0"/>
        <pt x="1743" y="20" on="0"/>
        <pt x="1726" y="16" on="0"/>
        <pt x="1712" y="16" on="1"/>
        <pt x="1694" y="16" on="0"/>
        <pt x="1633" y="26" on="0"/>
        <pt x="1585" y="37" on="1"/>
        <pt x="1558" y="43" on="0"/>
        <pt x="1497" y="43" on="1"/>
        <pt x="1444" y="43" on="0"/>
        <pt x="1301" y="35" on="0"/>
        <pt x="1146" y="22" on="0"/>
        <pt x="989" y="6" on="0"/>
        <pt x="853" y="-11" on="0"/>
        <pt x="750" y="-28" on="0"/>
        <pt x="727" y="-35" on="1"/>
        <pt x="723" y="-37" on="0"/>
        <pt x="717" y="-37" on="1"/>
        <pt x="705" y="-37" on="0"/>
        <pt x="686" y="-25" on="0"/>
        <pt x="673" y="-5" on="0"/>
        <pt x="665" y="18" on="0"/>
        <pt x="664" y="29" on="1"/>
        <pt x="653" y="44" on="0"/>
        <pt x="640" y="81" on="0"/>
        <pt x="637" y="98" on="1"/>
        <pt x="570" y="54" on="0"/>
        <pt x="459" y="4" on="0"/>
        <pt x="370" y="-20" on="0"/>
        <pt x="304" y="-25" on="0"/>
        <pt x="283" y="-25" on="1"/>
        <pt x="241" y="-25" on="0"/>
        <pt x="165" y="12" on="0"/>
        <pt x="100" y="71" on="0"/>
        <pt x="49" y="147" on="0"/>
        <pt x="33" y="186" on="1"/>
        <pt x="11" y="215" on="0"/>
        <pt x="-8" y="286" on="0"/>
        <pt x="-8" y="328" on="1"/>
        <pt x="-8" y="385" on="0"/>
        <pt x="26" y="514" on="0"/>
        <pt x="84" y="649" on="0"/>
        <pt x="162" y="785" on="0"/>
        <pt x="207" y="850" on="1"/>
        <pt x="257" y="923" on="0"/>
        <pt x="388" y="1057" on="0"/>
        <pt x="530" y="1174" on="0"/>
        <pt x="674" y="1270" on="0"/>
        <pt x="800" y="1338" on="0"/>
        <pt x="899" y="1376" on="0"/>
        <pt x="926" y="1376" on="1"/>
        <pt x="942" y="1376" on="0"/>
        <pt x="959" y="1373" on="0"/>
        <pt x="970" y="1368" on="0"/>
        <pt x="979" y="1362" on="0"/>
        <pt x="987" y="1358" on="1"/>
        <pt x="1000" y="1352" on="0"/>
        <pt x="1004" y="1335" on="0"/>
        <pt x="1004" y="1323" on="1"/>
        <pt x="1004" y="1309" on="0"/>
        <pt x="1006" y="1292" on="0"/>
      </contour>
    </TTGlyph>
    <TTGlyph name="Oacute" xMin="-8" yMin="-25" xMax="1452" yMax="1805">
      <component glyphName="O" x="0" y="0" flags="0x204"/>
      <component glyphName="acute" x="551" y="537" flags="0x4"/>
    </TTGlyph>
    <TTGlyph name="Obreve" xMin="-8" yMin="-25" xMax="1444" yMax="1807">
      <component glyphName="O" x="0" y="0" flags="0x204"/>
      <component glyphName="breve" x="492" y="537" flags="0x4"/>
    </TTGlyph>
    <TTGlyph name="Ocircumflex" xMin="-8" yMin="-25" xMax="1350" yMax="1801">
      <component glyphName="O" x="0" y="0" flags="0x204"/>
      <component glyphName="circumflex" x="502" y="537" flags="0x4"/>
    </TTGlyph>
    <TTGlyph name="Odieresis" xMin="-8" yMin="-25" xMax="1388" yMax="1723">
      <component glyphName="O" x="0" y="0" flags="0x204"/>
      <component glyphName="dieresis" x="520" y="537" flags="0x4"/>
    </TTGlyph>
    <TTGlyph name="Ograve" xMin="-8" yMin="-25" xMax="1266" yMax="1797">
      <component glyphName="O" x="0" y="0" flags="0x204"/>
      <component glyphName="grave" x="414" y="537" flags="0x4"/>
    </TTGlyph>
    <TTGlyph name="Ohungarumlaut" xMin="-8" yMin="-25" xMax="1499" yMax="1805">
      <component glyphName="O" x="0" y="0" flags="0x204"/>
      <component glyphName="hungarumlaut" x="532" y="537" flags="0x4"/>
    </TTGlyph>
    <TTGlyph name="Omacron" xMin="-8" yMin="-25" xMax="1411" yMax="1708">
      <component glyphName="O" x="0" y="0" flags="0x204"/>
      <component glyphName="macron" x="518" y="537" flags="0x4"/>
    </TTGlyph>
    <TTGlyph name="Oslash" xMin="-199" yMin="-82" xMax="1462" yMax="1513">
      <contour>
        <pt x="1006" y="1284" on="1"/>
        <pt x="1006" y="1276" on="0"/>
        <pt x="992" y="1258" on="0"/>
        <pt x="971" y="1242" on="0"/>
        <pt x="947" y="1230" on="0"/>
        <pt x="936" y="1227" on="1"/>
        <pt x="907" y="1218" on="0"/>
        <pt x="791" y="1165" on="0"/>
        <pt x="631" y="1057" on="0"/>
        <pt x="431" y="886" on="0"/>
        <pt x="317" y="760" on="1"/>
        <pt x="261" y="698" on="0"/>
        <pt x="183" y="579" on="0"/>
        <pt x="133" y="471" on="0"/>
        <pt x="111" y="373" on="0"/>
        <pt x="111" y="332" on="1"/>
        <pt x="111" y="319" on="0"/>
        <pt x="113" y="298" on="0"/>
        <pt x="115" y="287" on="1"/>
        <pt x="236" y="405" on="0"/>
        <pt x="480" y="644" on="0"/>
        <pt x="730" y="889" on="0"/>
        <pt x="988" y="1142" on="0"/>
        <pt x="1122" y="1274" on="1"/>
        <pt x="1111" y="1282" on="0"/>
        <pt x="1091" y="1292" on="0"/>
        <pt x="1083" y="1300" on="1"/>
        <pt x="1079" y="1306" on="0"/>
        <pt x="1079" y="1307" on="1"/>
        <pt x="1079" y="1310" on="0"/>
        <pt x="1081" y="1316" on="0"/>
        <pt x="1081" y="1319" on="1"/>
        <pt x="1081" y="1323" on="0"/>
        <pt x="1077" y="1325" on="1"/>
        <pt x="1071" y="1328" on="0"/>
        <pt x="1059" y="1340" on="0"/>
        <pt x="1059" y="1343" on="1"/>
        <pt x="1059" y="1346" on="0"/>
        <pt x="1063" y="1346" on="1"/>
        <pt x="1067" y="1346" on="1"/>
        <pt x="1071" y="1346" on="0"/>
        <pt x="1074" y="1351" on="0"/>
        <pt x="1079" y="1357" on="0"/>
        <pt x="1086" y="1362" on="0"/>
        <pt x="1094" y="1362" on="1"/>
        <pt x="1105" y="1362" on="0"/>
        <pt x="1145" y="1346" on="0"/>
        <pt x="1171" y="1321" on="1"/>
        <pt x="1339" y="1487" on="1"/>
        <pt x="1359" y="1505" on="0"/>
        <pt x="1389" y="1513" on="0"/>
        <pt x="1399" y="1513" on="1"/>
        <pt x="1404" y="1513" on="0"/>
        <pt x="1410" y="1511" on="0"/>
        <pt x="1415" y="1509" on="1"/>
        <pt x="1426" y="1503" on="0"/>
        <pt x="1436" y="1504" on="0"/>
        <pt x="1448" y="1499" on="1"/>
        <pt x="1453" y="1496" on="0"/>
        <pt x="1462" y="1487" on="0"/>
        <pt x="1462" y="1479" on="1"/>
        <pt x="1462" y="1472" on="0"/>
        <pt x="1451" y="1451" on="0"/>
        <pt x="1434" y="1436" on="1"/>
        <pt x="1233" y="1231" on="1"/>
        <pt x="1248" y="1193" on="0"/>
        <pt x="1266" y="1095" on="0"/>
        <pt x="1266" y="1036" on="1"/>
        <pt x="1266" y="962" on="0"/>
        <pt x="1234" y="789" on="0"/>
        <pt x="1162" y="606" on="0"/>
        <pt x="1047" y="419" on="0"/>
        <pt x="963" y="330" on="1"/>
        <pt x="881" y="243" on="0"/>
        <pt x="728" y="123" on="0"/>
        <pt x="591" y="44" on="0"/>
        <pt x="472" y="0" on="0"/>
        <pt x="376" y="-21" on="0"/>
        <pt x="304" y="-25" on="0"/>
        <pt x="283" y="-25" on="1"/>
        <pt x="252" y="-25" on="0"/>
        <pt x="194" y="-4" on="0"/>
        <pt x="142" y="32" on="0"/>
        <pt x="95" y="79" on="0"/>
        <pt x="76" y="106" on="1"/>
        <pt x="-98" y="-59" on="1"/>
        <pt x="-118" y="-72" on="0"/>
        <pt x="-146" y="-82" on="0"/>
        <pt x="-160" y="-82" on="1"/>
        <pt x="-168" y="-82" on="0"/>
        <pt x="-188" y="-77" on="0"/>
        <pt x="-190" y="-74" on="1"/>
        <pt x="-190" y="-66" on="0"/>
        <pt x="-199" y="-49" on="0"/>
        <pt x="-199" y="-37" on="1"/>
        <pt x="-199" y="-29" on="0"/>
        <pt x="-192" y="-14" on="0"/>
        <pt x="-182" y="-6" on="1"/>
        <pt x="25" y="197" on="1"/>
        <pt x="8" y="224" on="0"/>
        <pt x="-8" y="291" on="0"/>
        <pt x="-8" y="328" on="1"/>
        <pt x="-8" y="385" on="0"/>
        <pt x="26" y="514" on="0"/>
        <pt x="84" y="649" on="0"/>
        <pt x="162" y="785" on="0"/>
        <pt x="207" y="850" on="1"/>
        <pt x="257" y="923" on="0"/>
        <pt x="388" y="1057" on="0"/>
        <pt x="530" y="1174" on="0"/>
        <pt x="674" y="1270" on="0"/>
        <pt x="800" y="1338" on="0"/>
        <pt x="899" y="1376" on="0"/>
        <pt x="926" y="1376" on="1"/>
        <pt x="942" y="1376" on="0"/>
        <pt x="959" y="1373" on="0"/>
        <pt x="970" y="1368" on="0"/>
        <pt x="979" y="1362" on="0"/>
        <pt x="987" y="1358" on="1"/>
        <pt x="1000" y="1352" on="0"/>
        <pt x="1004" y="1335" on="0"/>
        <pt x="1004" y="1323" on="1"/>
        <pt x="1004" y="1309" on="0"/>
        <pt x="1006" y="1292" on="0"/>
      </contour>
      <contour>
        <pt x="1161" y="1159" on="1"/>
        <pt x="1044" y="1042" on="0"/>
        <pt x="791" y="795" on="0"/>
        <pt x="534" y="548" on="0"/>
        <pt x="281" y="305" on="0"/>
        <pt x="164" y="193" on="1"/>
        <pt x="187" y="174" on="0"/>
        <pt x="247" y="156" on="0"/>
        <pt x="281" y="156" on="1"/>
        <pt x="345" y="156" on="0"/>
        <pt x="498" y="214" on="0"/>
        <pt x="661" y="320" on="0"/>
        <pt x="825" y="468" on="0"/>
        <pt x="899" y="559" on="1"/>
        <pt x="974" y="652" on="0"/>
        <pt x="1075" y="822" on="0"/>
        <pt x="1136" y="973" on="0"/>
        <pt x="1161" y="1105" on="0"/>
      </contour>
    </TTGlyph>
    <TTGlyph name="Oslashacute" xMin="-199" yMin="-82" xMax="1462" yMax="1805">
      <component glyphName="Oslash" x="0" y="0" flags="0x204"/>
      <component glyphName="acute" x="557" y="537" flags="0x4"/>
    </TTGlyph>
    <TTGlyph name="Otilde" xMin="-8" yMin="-25" xMax="1460" yMax="1784">
      <component glyphName="O" x="0" y="0" flags="0x204"/>
      <component glyphName="tilde" x="518" y="537" flags="0x4"/>
    </TTGlyph>
    <TTGlyph name="P" xMin="-145" yMin="-29" xMax="1362" yMax="1382">
      <contour>
        <pt x="918" y="1382" on="1"/>
        <pt x="978" y="1382" on="0"/>
        <pt x="1115" y="1362" on="0"/>
        <pt x="1237" y="1313" on="0"/>
        <pt x="1327" y="1232" on="0"/>
        <pt x="1339" y="1171" on="1"/>
        <pt x="1347" y="1153" on="0"/>
        <pt x="1362" y="1100" on="0"/>
        <pt x="1362" y="1063" on="1"/>
        <pt x="1362" y="1025" on="0"/>
        <pt x="1337" y="933" on="0"/>
        <pt x="1269" y="825" on="0"/>
        <pt x="1148" y="702" on="0"/>
        <pt x="1053" y="635" on="1"/>
        <pt x="983" y="586" on="0"/>
        <pt x="833" y="515" on="0"/>
        <pt x="689" y="468" on="0"/>
        <pt x="557" y="446" on="0"/>
        <pt x="504" y="446" on="1"/>
        <pt x="454" y="446" on="0"/>
        <pt x="387" y="465" on="0"/>
        <pt x="373" y="483" on="1"/>
        <pt x="353" y="506" on="0"/>
        <pt x="350" y="545" on="1"/>
        <pt x="324" y="506" on="0"/>
        <pt x="258" y="409" on="0"/>
        <pt x="189" y="307" on="0"/>
        <pt x="120" y="202" on="0"/>
        <pt x="59" y="106" on="0"/>
        <pt x="11" y="25" on="0"/>
        <pt x="-2" y="-4" on="1"/>
        <pt x="-8" y="-18" on="0"/>
        <pt x="-31" y="-29" on="0"/>
        <pt x="-43" y="-29" on="1"/>
        <pt x="-58" y="-29" on="0"/>
        <pt x="-92" y="-19" on="0"/>
        <pt x="-106" y="-16" on="1"/>
        <pt x="-129" y="-10" on="0"/>
        <pt x="-145" y="12" on="0"/>
        <pt x="-145" y="41" on="1"/>
        <pt x="-145" y="50" on="0"/>
        <pt x="-145" y="74" on="0"/>
        <pt x="-143" y="88" on="1"/>
        <pt x="-142" y="115" on="0"/>
        <pt x="-98" y="206" on="0"/>
        <pt x="-28" y="319" on="0"/>
        <pt x="60" y="445" on="0"/>
        <pt x="151" y="567" on="0"/>
        <pt x="237" y="678" on="0"/>
        <pt x="270" y="719" on="1"/>
        <pt x="309" y="766" on="0"/>
        <pt x="416" y="894" on="0"/>
        <pt x="532" y="1030" on="0"/>
        <pt x="642" y="1161" on="0"/>
        <pt x="684" y="1210" on="1"/>
        <pt x="629" y="1198" on="0"/>
        <pt x="519" y="1167" on="0"/>
        <pt x="427" y="1138" on="0"/>
        <pt x="363" y="1116" on="0"/>
        <pt x="354" y="1112" on="1"/>
        <pt x="338" y="1108" on="1"/>
        <pt x="328" y="1108" on="0"/>
        <pt x="328" y="1114" on="1"/>
        <pt x="328" y="1122" on="0"/>
        <pt x="344" y="1133" on="1"/>
        <pt x="358" y="1139" on="0"/>
        <pt x="358" y="1145" on="1"/>
        <pt x="352" y="1156" on="0"/>
        <pt x="353" y="1172" on="0"/>
        <pt x="348" y="1174" on="1"/>
        <pt x="343" y="1175" on="0"/>
        <pt x="327" y="1178" on="0"/>
        <pt x="311" y="1182" on="0"/>
        <pt x="299" y="1189" on="0"/>
        <pt x="299" y="1194" on="1"/>
        <pt x="299" y="1199" on="0"/>
        <pt x="306" y="1209" on="0"/>
        <pt x="317" y="1217" on="1"/>
        <pt x="342" y="1235" on="0"/>
        <pt x="465" y="1291" on="0"/>
        <pt x="630" y="1344" on="0"/>
        <pt x="823" y="1382" on="0"/>
      </contour>
      <contour>
        <pt x="942" y="1239" on="1"/>
        <pt x="922" y="1239" on="0"/>
        <pt x="882" y="1239" on="0"/>
        <pt x="860" y="1237" on="1"/>
        <pt x="839" y="1208" on="0"/>
        <pt x="771" y="1118" on="0"/>
        <pt x="688" y="1009" on="0"/>
        <pt x="597" y="889" on="0"/>
        <pt x="510" y="774" on="0"/>
        <pt x="433" y="670" on="0"/>
        <pt x="406" y="631" on="1"/>
        <pt x="415" y="617" on="0"/>
        <pt x="447" y="610" on="0"/>
        <pt x="469" y="610" on="1"/>
        <pt x="492" y="610" on="0"/>
        <pt x="593" y="632" on="0"/>
        <pt x="731" y="682" on="0"/>
        <pt x="898" y="763" on="0"/>
        <pt x="987" y="821" on="1"/>
        <pt x="1038" y="853" on="0"/>
        <pt x="1129" y="929" on="0"/>
        <pt x="1198" y="1011" on="0"/>
        <pt x="1239" y="1095" on="0"/>
        <pt x="1239" y="1135" on="1"/>
        <pt x="1239" y="1140" on="0"/>
        <pt x="1239" y="1146" on="0"/>
        <pt x="1237" y="1151" on="1"/>
        <pt x="1222" y="1167" on="0"/>
        <pt x="1174" y="1199" on="0"/>
        <pt x="1102" y="1224" on="0"/>
        <pt x="1005" y="1239" on="0"/>
      </contour>
    </TTGlyph>
    <TTGlyph name="Q" xMin="-70" yMin="-311" xMax="1458" yMax="1477">
      <contour>
        <pt x="1063" y="1430" on="1"/>
        <pt x="1011" y="1404" on="0"/>
        <pt x="853" y="1311" on="0"/>
        <pt x="662" y="1160" on="0"/>
        <pt x="449" y="940" on="0"/>
        <pt x="342" y="786" on="1"/>
        <pt x="288" y="709" on="0"/>
        <pt x="213" y="572" on="0"/>
        <pt x="167" y="451" on="0"/>
        <pt x="147" y="342" on="0"/>
        <pt x="147" y="293" on="1"/>
        <pt x="194" y="326" on="0"/>
        <pt x="296" y="387" on="0"/>
        <pt x="400" y="435" on="0"/>
        <pt x="499" y="463" on="0"/>
        <pt x="543" y="463" on="1"/>
        <pt x="575" y="463" on="0"/>
        <pt x="636" y="447" on="0"/>
        <pt x="690" y="412" on="0"/>
        <pt x="735" y="355" on="0"/>
        <pt x="750" y="313" on="1"/>
        <pt x="896" y="429" on="0"/>
        <pt x="1028" y="598" on="1"/>
        <pt x="1111" y="706" on="0"/>
        <pt x="1226" y="898" on="0"/>
        <pt x="1297" y="1063" on="0"/>
        <pt x="1329" y="1201" on="0"/>
        <pt x="1329" y="1255" on="1"/>
        <pt x="1329" y="1303" on="0"/>
        <pt x="1306" y="1376" on="0"/>
        <pt x="1286" y="1399" on="1"/>
        <pt x="1265" y="1405" on="0"/>
        <pt x="1237" y="1405" on="1"/>
        <pt x="1205" y="1405" on="0"/>
        <pt x="1131" y="1387" on="0"/>
        <pt x="1051" y="1349" on="0"/>
        <pt x="967" y="1288" on="0"/>
        <pt x="926" y="1245" on="1"/>
        <pt x="923" y="1242" on="0"/>
        <pt x="910" y="1237" on="0"/>
        <pt x="905" y="1237" on="1"/>
        <pt x="897" y="1237" on="0"/>
        <pt x="887" y="1243" on="0"/>
        <pt x="887" y="1249" on="1"/>
        <pt x="887" y="1253" on="0"/>
        <pt x="893" y="1264" on="1"/>
        <pt x="897" y="1270" on="0"/>
        <pt x="930" y="1304" on="0"/>
        <pt x="981" y="1346" on="0"/>
        <pt x="1045" y="1392" on="0"/>
        <pt x="1118" y="1429" on="0"/>
        <pt x="1196" y="1454" on="0"/>
        <pt x="1235" y="1454" on="1"/>
        <pt x="1260" y="1454" on="0"/>
        <pt x="1284" y="1448" on="1"/>
        <pt x="1300" y="1443" on="0"/>
        <pt x="1326" y="1434" on="0"/>
        <pt x="1337" y="1427" on="1"/>
        <pt x="1357" y="1421" on="0"/>
        <pt x="1392" y="1403" on="0"/>
        <pt x="1401" y="1389" on="1"/>
        <pt x="1408" y="1376" on="0"/>
        <pt x="1428" y="1338" on="0"/>
        <pt x="1446" y="1287" on="0"/>
        <pt x="1458" y="1221" on="0"/>
        <pt x="1458" y="1180" on="1"/>
        <pt x="1458" y="1128" on="0"/>
        <pt x="1433" y="996" on="0"/>
        <pt x="1371" y="831" on="0"/>
        <pt x="1264" y="633" on="0"/>
        <pt x="1182" y="516" on="1"/>
        <pt x="1075" y="363" on="0"/>
        <pt x="856" y="154" on="0"/>
        <pt x="750" y="86" on="1"/>
        <pt x="740" y="46" on="0"/>
        <pt x="725" y="-32" on="0"/>
        <pt x="725" y="-74" on="1"/>
        <pt x="728" y="-134" on="0"/>
        <pt x="774" y="-180" on="0"/>
        <pt x="811" y="-180" on="1"/>
        <pt x="842" y="-180" on="0"/>
        <pt x="923" y="-157" on="0"/>
        <pt x="967" y="-141" on="1"/>
        <pt x="1001" y="-128" on="0"/>
        <pt x="1079" y="-81" on="0"/>
        <pt x="1150" y="-34" on="0"/>
        <pt x="1204" y="0" on="0"/>
        <pt x="1214" y="0" on="1"/>
        <pt x="1219" y="0" on="0"/>
        <pt x="1223" y="-8" on="0"/>
        <pt x="1223" y="-10" on="1"/>
        <pt x="1223" y="-19" on="0"/>
        <pt x="1205" y="-50" on="0"/>
        <pt x="1161" y="-98" on="0"/>
        <pt x="1089" y="-164" on="0"/>
        <pt x="1034" y="-209" on="1"/>
        <pt x="960" y="-268" on="0"/>
        <pt x="845" y="-311" on="0"/>
        <pt x="805" y="-311" on="1"/>
        <pt x="767" y="-311" on="0"/>
        <pt x="718" y="-289" on="0"/>
        <pt x="709" y="-276" on="1"/>
        <pt x="698" y="-263" on="0"/>
        <pt x="665" y="-214" on="0"/>
        <pt x="634" y="-152" on="0"/>
        <pt x="612" y="-78" on="0"/>
        <pt x="612" y="-39" on="1"/>
        <pt x="612" y="14" on="1"/>
        <pt x="537" y="-18" on="0"/>
        <pt x="401" y="-49" on="0"/>
        <pt x="344" y="-49" on="1"/>
        <pt x="231" y="-49" on="0"/>
        <pt x="172" y="-2" on="1"/>
        <pt x="155" y="10" on="0"/>
        <pt x="128" y="35" on="0"/>
        <pt x="119" y="47" on="1"/>
        <pt x="87" y="69" on="0"/>
        <pt x="51" y="114" on="0"/>
        <pt x="37" y="143" on="1"/>
        <pt x="-31" y="80" on="1"/>
        <pt x="-39" y="72" on="0"/>
        <pt x="-49" y="72" on="1"/>
        <pt x="-57" y="72" on="0"/>
        <pt x="-70" y="82" on="0"/>
        <pt x="-70" y="90" on="1"/>
        <pt x="-70" y="99" on="0"/>
        <pt x="-63" y="109" on="1"/>
        <pt x="-54" y="123" on="0"/>
        <pt x="-11" y="167" on="0"/>
        <pt x="18" y="193" on="1"/>
        <pt x="10" y="222" on="0"/>
        <pt x="4" y="286" on="0"/>
        <pt x="4" y="324" on="1"/>
        <pt x="4" y="390" on="0"/>
        <pt x="33" y="544" on="0"/>
        <pt x="96" y="710" on="0"/>
        <pt x="195" y="886" on="0"/>
        <pt x="266" y="975" on="1"/>
        <pt x="343" y="1071" on="0"/>
        <pt x="516" y="1220" on="0"/>
        <pt x="685" y="1331" on="0"/>
        <pt x="841" y="1407" on="0"/>
        <pt x="962" y="1454" on="0"/>
        <pt x="1037" y="1476" on="0"/>
        <pt x="1042" y="1477" on="1"/>
        <pt x="1044" y="1477" on="1"/>
        <pt x="1054" y="1477" on="0"/>
        <pt x="1069" y="1453" on="0"/>
        <pt x="1069" y="1442" on="1"/>
        <pt x="1069" y="1433" on="0"/>
      </contour>
      <contour>
        <pt x="315" y="111" on="1"/>
        <pt x="380" y="111" on="0"/>
        <pt x="538" y="167" on="0"/>
        <pt x="625" y="221" on="1"/>
        <pt x="625" y="256" on="0"/>
        <pt x="622" y="307" on="0"/>
        <pt x="617" y="344" on="0"/>
        <pt x="608" y="370" on="0"/>
        <pt x="602" y="379" on="1"/>
        <pt x="591" y="382" on="0"/>
        <pt x="564" y="387" on="0"/>
        <pt x="547" y="387" on="1"/>
        <pt x="511" y="387" on="0"/>
        <pt x="421" y="366" on="0"/>
        <pt x="319" y="325" on="0"/>
        <pt x="210" y="267" on="0"/>
        <pt x="156" y="231" on="1"/>
        <pt x="171" y="179" on="0"/>
        <pt x="201" y="143" on="1"/>
        <pt x="245" y="111" on="0"/>
      </contour>
    </TTGlyph>
    <TTGlyph name="R" xMin="-160" yMin="-39" xMax="1511" yMax="1448">
      <contour>
        <pt x="1354" y="360" on="1"/>
        <pt x="1349" y="357" on="0"/>
        <pt x="1344" y="353" on="0"/>
        <pt x="1341" y="347" on="0"/>
        <pt x="1340" y="336" on="0"/>
        <pt x="1339" y="326" on="1"/>
        <pt x="1338" y="316" on="0"/>
        <pt x="1335" y="302" on="0"/>
        <pt x="1328" y="288" on="0"/>
        <pt x="1314" y="274" on="0"/>
        <pt x="1303" y="264" on="1"/>
        <pt x="1296" y="258" on="0"/>
        <pt x="1258" y="211" on="0"/>
        <pt x="1198" y="147" on="0"/>
        <pt x="1116" y="76" on="0"/>
        <pt x="1014" y="16" on="0"/>
        <pt x="893" y="-23" on="0"/>
        <pt x="823" y="-23" on="1"/>
        <pt x="768" y="-23" on="0"/>
        <pt x="691" y="32" on="0"/>
        <pt x="638" y="122" on="0"/>
        <pt x="605" y="239" on="0"/>
        <pt x="583" y="364" on="0"/>
        <pt x="568" y="486" on="0"/>
        <pt x="559" y="537" on="1"/>
        <pt x="551" y="569" on="0"/>
        <pt x="524" y="609" on="0"/>
        <pt x="488" y="631" on="0"/>
        <pt x="447" y="639" on="0"/>
        <pt x="426" y="639" on="1"/>
        <pt x="418" y="639" on="0"/>
        <pt x="406" y="639" on="0"/>
        <pt x="399" y="637" on="1"/>
        <pt x="364" y="588" on="0"/>
        <pt x="277" y="462" on="0"/>
        <pt x="187" y="330" on="0"/>
        <pt x="101" y="201" on="0"/>
        <pt x="32" y="95" on="0"/>
        <pt x="-14" y="23" on="0"/>
        <pt x="-18" y="14" on="1"/>
        <pt x="-31" y="-14" on="0"/>
        <pt x="-47" y="-39" on="0"/>
        <pt x="-59" y="-39" on="1"/>
        <pt x="-62" y="-39" on="0"/>
        <pt x="-69" y="-39" on="0"/>
        <pt x="-72" y="-37" on="1"/>
        <pt x="-92" y="-31" on="0"/>
        <pt x="-128" y="-5" on="0"/>
        <pt x="-139" y="18" on="1"/>
        <pt x="-144" y="29" on="0"/>
        <pt x="-149" y="35" on="0"/>
        <pt x="-152" y="43" on="0"/>
        <pt x="-155" y="59" on="0"/>
        <pt x="-158" y="80" on="1"/>
        <pt x="-160" y="85" on="0"/>
        <pt x="-160" y="95" on="0"/>
        <pt x="-160" y="100" on="1"/>
        <pt x="-160" y="113" on="0"/>
        <pt x="-153" y="145" on="0"/>
        <pt x="-133" y="189" on="0"/>
        <pt x="-97" y="250" on="0"/>
        <pt x="-39" y="336" on="0"/>
        <pt x="42" y="448" on="0"/>
        <pt x="98" y="522" on="1"/>
        <pt x="150" y="591" on="0"/>
        <pt x="268" y="735" on="0"/>
        <pt x="389" y="875" on="0"/>
        <pt x="509" y="1008" on="0"/>
        <pt x="615" y="1124" on="0"/>
        <pt x="702" y="1218" on="0"/>
        <pt x="731" y="1249" on="1"/>
        <pt x="650" y="1232" on="0"/>
        <pt x="512" y="1196" on="0"/>
        <pt x="467" y="1178" on="1"/>
        <pt x="461" y="1175" on="0"/>
        <pt x="451" y="1171" on="0"/>
        <pt x="446" y="1171" on="1"/>
        <pt x="438" y="1171" on="0"/>
        <pt x="432" y="1183" on="0"/>
        <pt x="426" y="1186" on="1"/>
        <pt x="422" y="1188" on="0"/>
        <pt x="422" y="1192" on="1"/>
        <pt x="422" y="1196" on="0"/>
        <pt x="434" y="1208" on="1"/>
        <pt x="438" y="1213" on="0"/>
        <pt x="440" y="1217" on="0"/>
        <pt x="441" y="1221" on="0"/>
        <pt x="448" y="1227" on="0"/>
        <pt x="457" y="1233" on="1"/>
        <pt x="463" y="1239" on="0"/>
        <pt x="463" y="1243" on="1"/>
        <pt x="463" y="1248" on="0"/>
        <pt x="449" y="1252" on="0"/>
        <pt x="449" y="1255" on="1"/>
        <pt x="455" y="1261" on="0"/>
        <pt x="461" y="1266" on="0"/>
        <pt x="465" y="1268" on="0"/>
        <pt x="471" y="1270" on="0"/>
        <pt x="477" y="1272" on="1"/>
        <pt x="488" y="1278" on="0"/>
        <pt x="560" y="1309" on="0"/>
        <pt x="667" y="1348" on="0"/>
        <pt x="804" y="1390" on="0"/>
        <pt x="957" y="1425" on="0"/>
        <pt x="1121" y="1448" on="0"/>
        <pt x="1202" y="1448" on="1"/>
        <pt x="1221" y="1448" on="1"/>
        <pt x="1269" y="1446" on="0"/>
        <pt x="1343" y="1428" on="0"/>
        <pt x="1397" y="1398" on="0"/>
        <pt x="1433" y="1360" on="0"/>
        <pt x="1444" y="1339" on="1"/>
        <pt x="1478" y="1308" on="0"/>
        <pt x="1511" y="1229" on="0"/>
        <pt x="1511" y="1186" on="1"/>
        <pt x="1511" y="1155" on="0"/>
        <pt x="1488" y="1067" on="0"/>
        <pt x="1410" y="966" on="0"/>
        <pt x="1262" y="859" on="0"/>
        <pt x="1137" y="809" on="1"/>
        <pt x="1041" y="771" on="0"/>
        <pt x="871" y="719" on="0"/>
        <pt x="725" y="686" on="0"/>
        <pt x="602" y="669" on="0"/>
        <pt x="553" y="666" on="1"/>
        <pt x="595" y="647" on="0"/>
        <pt x="667" y="585" on="0"/>
        <pt x="690" y="539" on="1"/>
        <pt x="715" y="487" on="0"/>
        <pt x="752" y="360" on="0"/>
        <pt x="790" y="248" on="0"/>
        <pt x="839" y="172" on="0"/>
        <pt x="877" y="172" on="1"/>
        <pt x="960" y="172" on="0"/>
        <pt x="1195" y="270" on="0"/>
        <pt x="1329" y="373" on="1"/>
        <pt x="1338" y="379" on="0"/>
        <pt x="1348" y="379" on="1"/>
        <pt x="1360" y="379" on="0"/>
        <pt x="1360" y="371" on="1"/>
        <pt x="1360" y="363" on="0"/>
      </contour>
      <contour>
        <pt x="1186" y="1313" on="1"/>
        <pt x="1126" y="1310" on="0"/>
        <pt x="968" y="1292" on="0"/>
        <pt x="883" y="1278" on="1"/>
        <pt x="854" y="1243" on="0"/>
        <pt x="767" y="1130" on="0"/>
        <pt x="670" y="1001" on="0"/>
        <pt x="571" y="871" on="0"/>
        <pt x="532" y="819" on="1"/>
        <pt x="690" y="845" on="0"/>
        <pt x="961" y="921" on="0"/>
        <pt x="1079" y="981" on="1"/>
        <pt x="1134" y="1009" on="0"/>
        <pt x="1248" y="1067" on="0"/>
        <pt x="1341" y="1131" on="0"/>
        <pt x="1399" y="1204" on="0"/>
        <pt x="1399" y="1247" on="1"/>
        <pt x="1399" y="1267" on="0"/>
        <pt x="1391" y="1286" on="1"/>
        <pt x="1372" y="1303" on="0"/>
        <pt x="1311" y="1315" on="0"/>
        <pt x="1268" y="1315" on="1"/>
        <pt x="1249" y="1315" on="0"/>
        <pt x="1209" y="1315" on="0"/>
      </contour>
    </TTGlyph>
    <TTGlyph name="Racute" xMin="-160" yMin="-39" xMax="1567" yMax="1876">
      <component glyphName="R" x="0" y="0" flags="0x204"/>
      <component glyphName="acute" x="666" y="608" flags="0x4"/>
    </TTGlyph>
    <TTGlyph name="Rcaron" xMin="-160" yMin="-39" xMax="1571" yMax="1872">
      <component glyphName="R" x="0" y="0" flags="0x204"/>
      <component glyphName="caron" x="621" y="608" flags="0x4"/>
    </TTGlyph>
    <TTGlyph name="Rcommaaccent" xMin="-160" yMin="-469" xMax="1511" yMax="1448">
      <component glyphName="R" x="0" y="0" flags="0x204"/>
      <component glyphName="commaaccent" x="-163" y="0" flags="0x4"/>
    </TTGlyph>
</ttFont>
